<?xml version="1.0" standalone="no"?><!DOCTYPE svg PUBLIC "-//W3C//DTD SVG 1.1//EN"
        "http://www.w3.org/Graphics/SVG/1.1/DTD/svg11.dtd">
<svg t="1636819129014" class="icon" viewBox="0 0 1024 1024" version="1.1" xmlns="http://www.w3.org/2000/svg" p-id="9681"
     xmlns:xlink="http://www.w3.org/1999/xlink" width="30" height="30">
    <defs>
        <style type="text/css"></style>
    </defs>
    <path d="M695.296 92.2624H257.9968c-68.3008 0-123.648 55.3472-123.648 123.648v570.8288c0 68.3008 55.3472 123.648 123.648 123.648h308.4288c-62.1056-45.0048-102.6048-118.0672-102.6048-200.448 0-136.4992 111.0528-247.5008 247.5008-247.5008 38.5536 0 75.0592 8.8576 107.6224 24.6784V215.9616c0.0512-68.3008-55.3472-123.6992-123.648-123.6992zM393.6256 644.352H316.7744c-24.6784 0-44.6976-20.0192-44.6976-44.6976s20.0192-44.6976 44.6976-44.6976h76.9024c24.6784 0 44.6976 20.0192 44.6976 44.6976s-20.0192 44.6976-44.7488 44.6976z m115.712-158.9248H316.7744c-24.6784 0-44.6976-20.0192-44.6976-44.6976s20.0192-44.6976 44.6976-44.6976h192.5632c24.6784 0 44.6976 20.0192 44.6976 44.6976s-20.0192 44.6976-44.6976 44.6976z m126.72-151.9104H316.7744c-24.6784 0-44.6976-20.0192-44.6976-44.6976s20.0192-44.6976 44.6976-44.6976h319.2832c24.6784 0 44.6976 20.0192 44.6976 44.6976s-20.0192 44.6976-44.6976 44.6976z"
          fill="#05C46D" p-id="9682"></path>
    <path d="M905.5232 832.2048l-45.824-44.2368a166.8096 166.8096 0 0 0 19.3024-77.9776c0-92.4672-75.2128-167.68-167.68-167.68s-167.68 75.2128-167.68 167.68c0 92.4672 75.2128 167.68 167.68 167.68 31.8976 0 61.7472-8.96 87.1424-24.4736l44.9536 43.3664a44.41088 44.41088 0 0 0 31.0272 12.544c11.7248 0 23.3984-4.5568 32.1536-13.6704 17.2032-17.7664 16.6912-46.08-1.0752-63.232z m-194.2016-43.9808c-43.1616 0-78.2336-35.1232-78.2336-78.2336 0-43.1616 35.1232-78.2336 78.2336-78.2336 43.1616 0 78.2336 35.1232 78.2336 78.2336 0 43.1616-35.072 78.2336-78.2336 78.2336z"
          fill="#05C46D" p-id="9683"></path>
    <path d="M818.9952 215.9616c0-68.3008-55.3472-123.648-123.648-123.648H257.9968c-68.3008 0-123.648 55.3472-123.648 123.648v570.8288c0 42.7008 21.6576 80.384 54.6304 102.6048 30.5664 4.5056 61.8496 6.8608 93.6448 6.8608 80.3328 0 157.1328-14.848 227.9424-41.8816-29.3376-40.6528-46.7456-90.4704-46.7456-144.3328 0-136.4992 111.0528-247.5008 247.5008-247.5008 38.5536 0 75.0592 8.8576 107.6224 24.6784V215.9616z m-425.3696 428.3904H316.7744c-24.6784 0-44.6976-20.0192-44.6976-44.6976s20.0192-44.6976 44.6976-44.6976h76.9024c24.6784 0 44.6976 20.0192 44.6976 44.6976s-20.0192 44.6976-44.7488 44.6976z m115.712-158.9248H316.7744c-24.6784 0-44.6976-20.0192-44.6976-44.6976s20.0192-44.6976 44.6976-44.6976h192.5632c24.6784 0 44.6976 20.0192 44.6976 44.6976s-20.0192 44.6976-44.6976 44.6976z m126.72-151.9104H316.7744c-24.6784 0-44.6976-20.0192-44.6976-44.6976s20.0192-44.6976 44.6976-44.6976h319.2832c24.6784 0 44.6976 20.0192 44.6976 44.6976s-20.0192 44.6976-44.6976 44.6976z"
          fill="#1DCE75" p-id="9684"></path>
    <path d="M711.3216 542.3104c-92.4672 0-167.68 75.2128-167.68 167.68 0 42.1888 15.6672 80.7424 41.472 110.2336 27.0336-14.5408 52.8896-30.976 77.4144-49.152-17.92-14.336-29.44-36.352-29.44-61.0816 0-43.1616 35.1232-78.2336 78.2336-78.2336 26.2144 0 49.408 13.0048 63.6416 32.8704 19.5072-23.5008 37.3248-48.4352 53.2992-74.6496-30.208-29.44-71.4752-47.6672-116.9408-47.6672z"
          fill="#1DCE75" p-id="9685"></path>
    <path d="M695.296 92.2624H257.9968c-68.3008 0-123.648 55.3472-123.648 123.648v452.7616c56.9344-2.304 111.9232-12.032 164.0448-28.3136a44.65664 44.65664 0 0 1-26.3168-40.704c0-24.6784 20.0192-44.6976 44.6976-44.6976h76.9024c17.6128 0 32.8192 10.1888 40.0896 25.0368 168.0384-99.84 286.4128-274.5856 309.0944-478.1568-14.6432-6.1952-30.72-9.5744-47.5648-9.5744zM509.3376 485.4272H316.7744c-24.6784 0-44.6976-20.0192-44.6976-44.6976s20.0192-44.6976 44.6976-44.6976h192.5632c24.6784 0 44.6976 20.0192 44.6976 44.6976s-20.0192 44.6976-44.6976 44.6976z m126.72-151.9104H316.7744c-24.6784 0-44.6976-20.0192-44.6976-44.6976s20.0192-44.6976 44.6976-44.6976h319.2832c24.6784 0 44.6976 20.0192 44.6976 44.6976s-20.0192 44.6976-44.6976 44.6976z"
          fill="#3CD38E" p-id="9686"></path>
    <path d="M306.6368 332.3392c-19.8144-4.608-34.6112-22.3232-34.6112-43.52 0-24.6784 20.0192-44.6976 44.6976-44.6976h93.6448a641.3824 641.3824 0 0 0 107.1104-151.8592H257.9968c-68.3008 0-123.648 55.3472-123.648 123.648v199.2704c61.952-18.944 119.9104-47.104 172.288-82.8416z"
          fill="#48E1AA" p-id="9687"></path>
</svg>