<?xml version="1.0" encoding="UTF-8"?>
<svg width="240px" height="160px" viewBox="0 0 240 160" version="1.1" xmlns="http://www.w3.org/2000/svg" xmlns:xlink="http://www.w3.org/1999/xlink">
    <!-- Generator: Sketch 63.1 (92452) - https://sketch.com -->
    <title>banner/28-二手商品</title>
    <desc>Created with Sketch.</desc>
    <defs>
        <linearGradient x1="56.4977248%" y1="100%" x2="56.4977248%" y2="0%" id="linearGradient-1">
            <stop stop-color="#409EFF" offset="0%"></stop>
            <stop stop-color="#409EFF" offset="100%"></stop>
        </linearGradient>
        <linearGradient x1="56.4977248%" y1="100%" x2="56.4977248%" y2="0%" id="linearGradient-2">
            <stop stop-color="#b5d9ff" offset="0%"></stop>
            <stop stop-color="#7abbff" offset="100%"></stop>
        </linearGradient>
        <linearGradient x1="47.3531845%" y1="0%" x2="47.3531845%" y2="100%" id="linearGradient-3">
            <stop stop-color="#6ab3ff" offset="0%"></stop>
            <stop stop-color="#91c7ff" offset="100%"></stop>
        </linearGradient>
        <ellipse id="path-4" cx="96" cy="24" rx="96" ry="24"></ellipse>
        <filter x="-10.8%" y="-31.0%" width="121.5%" height="162.0%" filterUnits="objectBoundingBox" id="filter-6">
            <feGaussianBlur stdDeviation="4" in="SourceGraphic"></feGaussianBlur>
        </filter>
        <linearGradient x1="79.755102%" y1="0%" x2="20.244898%" y2="82.2701407%" id="linearGradient-7">
            <stop stop-color="#d1e8ff" offset="0%"></stop>
            <stop stop-color="#c4e1ff" offset="100%"></stop>
        </linearGradient>
        <linearGradient x1="82.6844726%" y1="0%" x2="17.9595427%" y2="99.0147992%" id="linearGradient-8">
            <stop stop-color="#b3d8ff" offset="0%"></stop>
            <stop stop-color="#b3d8ff" offset="99.934016%"></stop>
        </linearGradient>
        <linearGradient x1="53.7847098%" y1="0%" x2="44.6216856%" y2="89.7856253%" id="linearGradient-9">
            <stop stop-color="#76b9ff" offset="0%"></stop>
            <stop stop-color="#76b9ff" offset="100%"></stop>
        </linearGradient>
        <linearGradient x1="52.065235%" y1="4.40352222%" x2="47.934765%" y2="89.7856253%" id="linearGradient-10">
            <stop stop-color="#62aefd" offset="0%"></stop>
            <stop stop-color="#409EFF" offset="100%"></stop>
        </linearGradient>
        <linearGradient x1="48.2741667%" y1="5.26242244%" x2="42.4958002%" y2="99.4733459%" id="linearGradient-11">
            <stop stop-color="#89c3ff" offset="0%"></stop>
            <stop stop-color="#89c3ff" offset="100%"></stop>
        </linearGradient>
        <linearGradient x1="71.1588301%" y1="0.11609804%" x2="19.0131281%" y2="100%" id="linearGradient-12">
            <stop stop-color="#9fceff" offset="0%"></stop>
            <stop stop-color="#409EFF" offset="100%"></stop>
        </linearGradient>
        <linearGradient x1="77.6217719%" y1="0%" x2="28.6463741%" y2="100%" id="linearGradient-13">
            <stop stop-color="#b5d9ff" offset="0%"></stop>
            <stop stop-color="#89c3ff" offset="100%"></stop>
        </linearGradient>
        <linearGradient x1="100%" y1="41.7571933%" x2="0%" y2="57.1923366%" id="linearGradient-14">
            <stop stop-color="#56a9ff" offset="0%"></stop>
            <stop stop-color="#2c94ff" offset="100%"></stop>
        </linearGradient>
        <linearGradient x1="80.3037077%" y1="0%" x2="26.5730439%" y2="100%" id="linearGradient-15">
            <stop stop-color="#c0dfff" offset="0%"></stop>
            <stop stop-color="#409EFF" offset="100%"></stop>
        </linearGradient>
    </defs>
    <g id="banner/28-二手商品" stroke="none" stroke-width="1" fill="none" fill-rule="evenodd">
        <g id="家居日用">
            <rect id="蒙版" fill="url(#linearGradient-1)" x="0" y="0" width="240" height="105"></rect>
            <rect id="蒙版" fill="url(#linearGradient-2)" x="0" y="105" width="240" height="55"></rect>
            <g id="编组" transform="translate(24.000000, 34.000000)">
                <g id="编组-15" transform="translate(0.000000, 55.000000)">
                    <path d="M0,25 L12.8417242,25.0005906 C29.4402402,17.8266485 60.4654718,13 96,13 C131.534528,13 162.55976,17.8266485 179.158276,25.0005906 L192,25 L192,37 C192,50.254834 149.019336,61 96,61 C42.980664,61 0,50.254834 0,37 L0,37 L0,25 Z" id="形状结合" fill="#a8caeb" opacity="0.25"></path>
                    <g id="椭圆形" transform="translate(0.000000, 0.463580)">
                        <g id="Fill-11" transform="translate(0.000000, 0.536420)">
                            <mask id="mask-5" fill="white">
                                <use xlink:href="#path-4"></use>
                            </mask>
                            <use id="蒙版" fill="url(#linearGradient-3)" xlink:href="#path-4"></use>
                            <polygon id="椭圆形" fill="#70b6fb" filter="url(#filter-6)" mask="url(#mask-5)" points="120.25 36 172.468263 6.97989984 126.876933 -2.72408219 60.9092127 21.25"></polygon>
                        </g>
                    </g>
                </g>
                <g id="小袋子" transform="translate(100.000000, 45.500000) scale(-1, 1) translate(-100.000000, -45.500000) translate(64.000000, 0.000000)">
                    <path d="M34.8394297,20.5794019 L34.8394297,9.72676543 C34.8394297,7.21978138 33.983763,5.08516353 32.4301831,3.71630975 C30.8798166,2.34991795 28.8185041,1.9135116 26.6248539,2.48760923 C22.0952833,3.67328563 18.4102781,8.84989637 18.4102781,14.0274077 L18.4102781,24.8794622 C18.4102781,25.4827098 17.9825909,26.0834713 17.4552851,26.2214603 C16.9276873,26.3596488 16.5,25.9826429 16.5,25.3796863 L16.5,14.5273409 C16.5,8.1459534 21.0421325,1.76516785 26.6248539,0.303928636 C29.3285738,-0.403956011 31.869866,0.134258246 33.7807284,1.81877076 C35.6953886,3.50563734 36.75,6.13648032 36.75,9.2269238 L36.75,20.0792693 C36.75,20.6822258 36.3223127,21.2832784 35.7947149,21.4211759 C35.267117,21.5590734 34.8394297,21.1823585 34.8394297,20.5794019 Z" id="Fill-47" fill="url(#linearGradient-7)"></path>
                    <polygon id="Fill-49" fill="url(#linearGradient-8)" points="6.89955386 22.3006311 0 83.5 57 64.1530805 46.2269822 13"></polygon>
                    <polygon id="Fill-51" fill="url(#linearGradient-9)" points="22.630137 29.8003435 15.75 91 9.564645 84.9688611 9.43857169 84.9469486 0 83.3585776 7.03092168 22 17.1806986 24.5398366 17.313776 24.6643921"></polygon>
                    <polygon id="Fill-53" fill="url(#linearGradient-10)" points="22.630137 29.8003435 15.75 91 9.1230673 85.0106201 17.1806986 24.5398366"></polygon>
                    <polygon id="Fill-55" fill="url(#linearGradient-11)" points="61.766129 20.6227263 53.0815092 17.5819195 46.2269822 13 50.25 34.136564 71.25 77.25"></polygon>
                    <polygon id="Fill-57" fill="url(#linearGradient-12)" points="22.630137 29.8003435 15.75 91 71.25 77.1154812 61.8468891 20.5"></polygon>
                    <path d="M55.8154677,57.0434789 C56.2182403,65.3078318 51.4506034,73.0393209 45.1717809,74.3204328 C41.9913761,74.969353 38.959787,73.8383821 36.7148455,71.3671412 L36.7941641,72.9957964 C36.8594125,74.334606 34.8990307,74.7345963 34.8337823,73.3957868 L34.5417659,67.4040011 C34.4765175,66.0651916 36.4368993,65.6652012 36.5021477,67.0040108 L36.5531813,68.0470082 C38.5139326,71.2903976 41.6936456,72.9223907 45.0700706,72.2334751 C50.4899742,71.1276144 54.5974568,64.4671357 54.2512114,57.3626451 C54.223125,56.7863482 54.5505275,56.2477182 54.9824844,56.1595831 C55.4144413,56.0714479 55.7873812,56.4671821 55.8154677,57.0434789 Z M52.3686324,47.2335055 L52.2881426,45.6040927 C52.2228942,44.2652831 54.183276,43.8652928 54.2485244,45.2041024 L54.5405408,51.195888 C54.6057892,52.5346976 52.6454074,52.9346879 52.580159,51.5958784 L52.5304474,50.5550309 C50.5699329,47.3101834 47.3902586,45.6771726 44.0122361,46.3664141 C38.5932657,47.4720845 34.4848499,54.1327536 34.8310953,61.2372441 C34.8591818,61.8135409 34.5317792,62.3521709 34.0998223,62.4403061 C33.6678654,62.5284413 33.2949255,62.132707 33.266839,61.5564102 C32.8640664,53.2920573 37.6326588,45.5603733 43.9105258,44.2794563 C47.0912912,43.6304626 50.123732,44.7616565 52.3686324,47.2335055 Z M48.0680084,60.5735875 C48.0918794,61.0633887 47.8286152,61.5162533 47.4867355,61.5860094 L45.3048781,62.031189 L45.4634145,65.2841447 C45.4871209,65.770568 45.2265602,66.229704 44.8823063,66.2999446 C44.5380524,66.3701851 44.2384749,66.0287495 44.2146038,65.5389483 L44.0560674,62.2859926 L41.8742099,62.7311721 C41.5323302,62.8009282 41.2303785,62.4599771 41.2065075,61.9701758 C41.1826365,61.4803746 41.4433618,61.0246165 41.7876157,60.954376 L43.9694732,60.5091964 L43.8973663,59.0296589 L41.7155088,59.4748385 C41.3736291,59.5445946 41.0716774,59.2036434 41.0478064,58.7138422 C41.0241,58.2274189 41.2846607,57.7682829 41.6289146,57.6980424 L43.4142866,57.3337605 L41.6752137,55.3516979 C41.4162569,55.0565586 41.388764,54.4924427 41.6141368,54.0984823 C41.8395096,53.7045219 42.2359951,53.6236242 42.494952,53.9187635 L44.5691454,56.282771 L46.3743373,53.1272255 C46.59971,52.7332651 46.9961956,52.6523674 47.2551524,52.9475066 C47.5141092,53.2426459 47.5416021,53.8067617 47.3162293,54.2007221 L45.8026964,56.8464366 L47.2414402,56.5528796 C47.58332,56.4831235 47.8852716,56.8240747 47.9091427,57.3138759 C47.932849,57.8002992 47.6722883,58.2594353 47.3280344,58.3296758 L45.1461769,58.7748554 L45.2182839,60.2543929 L47.4001413,59.8092133 C47.7421857,59.7428351 48.0441374,60.0837863 48.0680084,60.5735875 Z" id="形状" fill="url(#linearGradient-13)"></path>
                    <path d="M34.7928522,31.6518816 C35.3245988,33.1316718 34.7973143,34.9347545 33.6150668,35.6793152 C32.4328193,36.4238758 31.043419,35.8277882 30.5116724,34.3479979 C29.9799258,32.8682077 30.5072104,31.065125 31.6894578,30.3205643 C32.8718039,29.5762781 34.2611056,30.1720913 34.7928522,31.6518816 Z M54.7928633,27.1519552 C55.3246336,28.6318115 54.7972102,30.4347002 53.6148895,31.179294 C52.4328773,31.9238878 51.0433983,31.3277736 50.5117267,29.8481918 C49.9799564,28.3683356 50.5072811,26.5651725 51.6892933,25.8205786 C52.8717126,25.0762592 54.261093,25.672099 54.7928633,27.1519552 Z" id="形状结合" fill="url(#linearGradient-14)"></path>
                    <path d="M51.8775313,28.7979956 L51.8775313,16.7638516 C51.8775313,13.983568 50.9264844,11.6016064 49.2001183,10.0555697 C47.477759,8.51284198 45.1872901,7.99223879 42.75,8.58959247 C37.7168643,9.82349992 33.6224687,15.4980589 33.6224687,21.2395778 L33.6224687,33.2734372 C33.6224687,33.9423327 33.1473746,34.6007003 32.5612344,34.7442883 C31.9750941,34.8881608 31.5,34.4625251 31.5,33.7939141 L31.5,21.7597701 C31.5,14.6838744 36.5468734,7.68906535 42.75,6.16836719 C45.7539687,5.43155404 48.5779167,6.07377924 50.701244,7.97566351 C52.828292,9.8801936 54,12.8163879 54,16.2433747 L54,28.2775187 C54,28.9461297 53.5249059,29.6047818 52.9387656,29.7483698 C52.3526254,29.8922423 51.8775313,29.4666065 51.8775313,28.7979956 Z" id="Fill-63" fill="url(#linearGradient-15)"></path>
                </g>
            </g>
        </g>
    </g>
</svg>