<?xml version="1.0" standalone="no"?><!DOCTYPE svg PUBLIC "-//W3C//DTD SVG 1.1//EN" "http://www.w3.org/Graphics/SVG/1.1/DTD/svg11.dtd"><svg t="1623714053668" class="icon" viewBox="0 0 1024 1024" version="1.1" xmlns="http://www.w3.org/2000/svg" p-id="9490" xmlns:xlink="http://www.w3.org/1999/xlink" width="200" height="200"><defs><style type="text/css"></style></defs><path d="M661.333333 160a32 32 0 0 1 24.085334 10.922667l149.333333 170.666666A32 32 0 0 1 842.666667 362.666667v426.666666a74.666667 74.666667 0 0 1-74.666667 74.666667H256A74.666667 74.666667 0 0 1 181.333333 789.333333V234.666667A74.666667 74.666667 0 0 1 256 160h405.333333z m-74.666666 64H256a10.666667 10.666667 0 0 0-10.666667 10.666667v554.666666a10.666667 10.666667 0 0 0 10.666667 10.666667h512a10.666667 10.666667 0 0 0 10.666667-10.666667V437.333333H618.666667a32 32 0 0 1-32-32v-181.333333z m190.826666 149.333333L650.666667 228.416V373.333333h126.826666z" fill="#E6E6E6" p-id="9491"></path></svg>