<?xml version="1.0" standalone="no"?><!DOCTYPE svg PUBLIC "-//W3C//DTD SVG 1.1//EN" "http://www.w3.org/Graphics/SVG/1.1/DTD/svg11.dtd"><svg t="1647855469489" class="icon" viewBox="0 0 1024 1024" version="1.1" xmlns="http://www.w3.org/2000/svg" p-id="4893" xmlns:xlink="http://www.w3.org/1999/xlink" width="24" height="24"><defs><style type="text/css">@font-face { font-family: feedback-iconfont; src: url("//at.alicdn.com/t/font_1031158_u69w8yhxdu.woff2?t=1630033759944") format("woff2"), url("//at.alicdn.com/t/font_1031158_u69w8yhxdu.woff?t=1630033759944") format("woff"), url("//at.alicdn.com/t/font_1031158_u69w8yhxdu.ttf?t=1630033759944") format("truetype"); }
</style></defs><path d="M853.503884 781.390473c2.952238 10.088776 4.604878 20.630876 4.604878 31.616068 0 82.057901-86.046748 141.631718-204.601888 141.631718-56.586786 0-105.609293-13.685697-141.563156-36.796044-35.95284 23.110347-84.978417 36.796044-141.559063 36.796044-118.544907 0-204.593701-59.572794-204.593701-141.631718 0-10.996448 1.658779-21.550829 4.619204-31.649837-69.545936-35.456536-72.727395-144.197146-44.506656-235.158834 12.942777-41.685401 35.015491-75.512834 55.783491-100.461039 0.99056-24.165376 7.063883-47.25014 17.58654-68.833715 4.567016-170.32727 142.987598-307.540352 312.877917-307.540352 169.615049 0 307.8586 136.802736 312.823682 306.769802 10.887978 22.074761 17.165961 45.718251 18.047028 70.501704 20.555152 24.854061 42.268686 58.34585 55.063083 99.54518C926.32747 637.19128 923.146011 745.976916 853.503884 781.390473zM821.007773 570.068534c-13.916964-44.831045-43.220361-77.586053-61.437258-94.791923 1.890047-7.398504 3.174296-14.915711 3.174296-22.629393 0-19.97289-6.690376-38.994106-18.60473-56.411801 0.170892-3.592828 0.618077-7.108908 0.618077-10.743692 0-130.132826-104.230899-235.624439-232.804207-235.624439S279.151791 255.358899 279.151791 385.492748c0 3.809769 0.456395 7.498788 0.645706 11.260461-11.697413 17.280572-18.286482 36.116569-18.286482 55.894008 0 7.541767 1.240247 14.891152 3.045359 22.13309-18.167778 17.062608-47.904033 50.039673-61.951981 95.28925-20.852934 67.168796-14.615882 133.480061 6.605442 140.697439 13.697977 4.66116 32.738635-14.139022 50.146097-45.980217 12.792351 35.031864 33.081443 66.512856 58.779731 92.89369-42.433438 9.715269-72.031547 30.752398-72.031547 55.320956 0 33.763988 55.558363 61.129242 124.091226 61.129242 50.79999 0 94.338598-15.074324 113.536846-36.607756 9.278317 0.949628 18.644639 1.609661 28.184923 1.609661 9.441023 0 18.7132-0.645706 27.898397-1.577938 19.212574 21.515013 62.72867 36.57501 113.50103 36.57501 68.532863 0 124.08918-27.365254 124.08918-61.129242 0-24.517393-29.482475-45.511543-71.773673-55.252395 25.668613-26.330692 45.945425-57.748239 58.754149-92.708472 17.372669 31.694863 36.351929 50.377364 50.015114 45.726437C835.623655 703.548594 841.860706 637.237329 821.007773 570.068534z" p-id="4894" fill="#ffffff"></path></svg>