<?xml version="1.0" standalone="no"?><!DOCTYPE svg PUBLIC "-//W3C//DTD SVG 1.1//EN"
        "http://www.w3.org/Graphics/SVG/1.1/DTD/svg11.dtd">
<svg t="1636818945669" class="icon" viewBox="0 0 1024 1024" version="1.1" xmlns="http://www.w3.org/2000/svg" p-id="9114"
     xmlns:xlink="http://www.w3.org/1999/xlink" width="30" height="30">
    <defs>
        <style type="text/css"></style>
    </defs>
    <path d="M880.4864 171.2128c-59.3408-1.8432-253.2864-14.2848-354.2016-98.5088-7.0144-5.888-17.152-5.632-24.0128 0.4608-101.5808 90.0608-294.1952 98.2528-353.9968 98.56-10.0864 0.0512-18.176 8.192-18.176 18.2784v391.8848c0 80.7424 62.464 276.0704 388.0448 369.8176 3.2256 0.9216 6.7584 0.9728 9.984 0.1024 294.1952-79.1552 370.0224-284.672 370.0224-363.8784V189.44c0-9.8304-7.8336-17.92-17.664-18.2272z m-122.9824 197.4784c-111.5648 100.608-219.0848 211.712-262.7072 355.0208-1.6896 5.5296-8.96 6.7072-12.3392 2.048-45.1584-62.3104-136.7552-169.6768-180.0704-219.8016-5.0688-5.8368 1.6896-14.336 8.5504-10.8032l141.1072 71.9872c3.072 1.536 6.7584 0.7168 8.8064-2.048 21.0432-28.3648 136.2432-175.0016 290.3552-208.4864 7.0656-1.536 11.6736 7.2192 6.2976 12.0832z"
          fill="#2595E8" p-id="9115"></path>
    <path d="M898.1504 274.688V189.44c0-9.8816-7.7824-17.9712-17.664-18.2272-59.3408-1.8432-253.2864-14.2848-354.2016-98.5088-7.0144-5.888-17.152-5.632-24.0128 0.4608-101.5808 90.0608-294.1952 98.2528-353.9968 98.56-10.0864 0.0512-18.176 8.192-18.176 18.2784v391.8848c0 56.0128 30.1056 167.0656 157.0816 261.12h0.9216c323.2256 0 587.8272-250.7776 610.048-568.32z m-403.3536 449.024c-1.6896 5.5296-8.96 6.7072-12.3392 2.048-45.1584-62.3104-136.7552-169.6768-180.0704-219.8016-5.0688-5.8368 1.6896-14.336 8.5504-10.8032l141.1072 71.9872c3.072 1.536 6.7584 0.7168 8.8064-2.048 21.0432-28.3648 136.2432-175.0016 290.3552-208.4864 7.0656-1.536 11.6736 7.2192 6.2976 12.0832-111.5648 100.608-219.0848 211.712-262.7072 355.0208z"
          fill="#3A9CED" p-id="9116"></path>
    <path d="M502.2208 73.1648C400.6912 163.2256 208.0768 171.4176 148.2752 171.7248c-10.0864 0.0512-18.176 8.192-18.176 18.2784v391.8848c0 12.1856 1.4848 27.0848 5.0176 43.776 80.5888-1.8432 157.2864-19.3024 227.2256-49.408a8142.336 8142.336 0 0 0-59.9552-70.2464c-5.0688-5.8368 1.6896-14.336 8.5504-10.8032l106.1888 54.1696c149.1968-82.7904 260.1472-226.1504 299.5712-396.9024-67.8912-13.9264-140.544-37.9904-190.464-79.6672-7.0144-5.9392-17.152-5.7344-24.0128 0.3584z"
          fill="#59ADF8" p-id="9117"></path>
    <path d="M515.4304 68.5568c-4.6592-0.256-9.4208 1.28-13.2096 4.608-101.5296 90.0608-294.144 98.2528-353.9456 98.56-10.0864 0.0512-18.176 8.192-18.176 18.2784v197.3248c169.1648-46.7456 308.8896-164.3008 385.3312-318.7712z"
          fill="#6BC2FC" p-id="9118"></path>
</svg>