<?xml version="1.0" standalone="no"?><!DOCTYPE svg PUBLIC "-//W3C//DTD SVG 1.1//EN" "http://www.w3.org/Graphics/SVG/1.1/DTD/svg11.dtd"><svg t="1636818968935" class="icon" viewBox="0 0 1024 1024" version="1.1" xmlns="http://www.w3.org/2000/svg" p-id="9394" xmlns:xlink="http://www.w3.org/1999/xlink" width="30" height="30"><defs><style type="text/css"></style></defs><path d="M927.5392 428.9536L842.752 344.7296a69.29408 69.29408 0 0 0-48.896-20.1216h-86.9376V254.0032c0-59.648-48.384-108.032-108.032-108.032H197.4272c-59.648 0-108.032 48.384-108.032 108.032v439.808c0 56.6272 43.5712 102.9632 98.9696 107.5712 0.256-83.456 68.1984-151.2448 151.7056-151.2448 83.6608 0 151.7056 68.0448 151.7056 151.7056h48.7936c0-83.6608 68.0448-151.7056 151.7056-151.7056s151.7056 68.0448 151.7056 151.7056h4.864c54.6816 0 99.0208-44.0832 99.0208-98.4064V477.5424c-0.0512-18.2272-7.3216-35.6864-20.3264-48.5888z m-475.7504 34.6112c0 21.3504-17.3568 38.7584-38.7584 38.7584h-158.208c-15.6672 0-29.2864-15.5136-29.2864-31.1808s13.6192-32.512 29.2864-32.512H388.096V320.6656c0-15.6672 14.8992-28.416 30.5664-28.416 15.6672 0 33.0752 12.6976 33.0752 28.416v142.8992z m424.448 68.7616h-114.5344c-21.3504 0-38.7584-17.3568-38.7584-38.7584V393.6256c0-15.6672 15.4624-28.416 31.1296-28.416s32.512 12.6976 32.512 28.416v75.0592h89.6c15.6672 0 28.416 16.128 28.416 31.7952s-12.6976 31.8464-28.3648 31.8464z" fill="#F23D4F" p-id="9395"></path><path d="M340.4288 801.8432m-96.5632 0a96.5632 96.5632 0 1 0 193.1264 0 96.5632 96.5632 0 1 0-193.1264 0Z" fill="#FC4956" p-id="9396"></path><path d="M692.224 801.8432m-96.5632 0a96.5632 96.5632 0 1 0 193.1264 0 96.5632 96.5632 0 1 0-193.1264 0Z" fill="#F23D4F" p-id="9397"></path><path d="M761.7024 532.3264c-21.3504 0-38.7584-17.3568-38.7584-38.7584V393.6256c0-15.6672 15.4624-28.416 31.1296-28.416s32.512 12.6976 32.512 28.416v75.0592h31.0784c12.0832-42.8032 19.6096-80.5888 22.016-126.6688-12.5952-11.1104-28.8768-17.408-45.8752-17.408h-86.9376V254.0032c0-59.648-48.384-108.032-108.032-108.032h-401.408c-59.648 0-108.032 48.384-108.032 108.032v439.808c0 56.6272 43.5712 102.9632 98.9696 107.5712 0.256-83.456 68.1984-151.2448 151.7056-151.2448 83.6608 0 151.7056 68.0448 151.7056 151.7056h48.7936c0-83.6608 68.0448-151.7056 151.7056-151.7056 13.9264 0 27.4432 1.9456 40.2944 5.4784 26.5216-38.144 48.7936-79.4624 66.048-123.2896h-36.9152zM451.7888 463.5648c0 21.3504-17.3568 38.7584-38.7584 38.7584h-158.208c-15.6672 0-29.2864-15.5136-29.2864-31.1808s13.6192-32.512 29.2864-32.512H388.096V320.6656c0-15.6672 14.8992-28.416 30.5664-28.416 15.6672 0 33.0752 12.6976 33.0752 28.416v142.8992z" fill="#FC4956" p-id="9398"></path><path d="M595.968 796.672c35.9424-26.7264 68.8128-57.344 97.9968-91.2896-0.5632 0-1.1264-0.1024-1.7408-0.1024-51.5584 0.0512-93.5424 40.4992-96.256 91.392z" fill="#FC4956" p-id="9399"></path><path d="M598.8864 145.9712H197.4272c-59.648 0-108.032 48.384-108.032 108.032v439.808c0 2.2528 0.2048 4.5056 0.3072 6.7584 64.4096-2.1504 126.2592-14.3872 184.0128-35.1232 7.7312-3.7888 15.872-6.8608 24.2688-9.3184 198.0928-80.9472 343.808-263.7824 371.9168-483.3792-18.9952-16.64-43.8272-26.7776-71.0144-26.7776zM451.7888 463.5648c0 21.3504-17.3568 38.7584-38.7584 38.7584h-158.208c-13.0048 0-29.2864-13.056-29.2864-31.1808 0-18.944 17.7664-32.512 29.2864-32.512H388.096V320.6656c0-15.6672 14.8992-28.416 30.5664-28.416 15.6672 0 33.0752 12.6976 33.0752 28.416v142.8992z" fill="#FF5C64" p-id="9400"></path><path d="M197.4272 145.9712c-59.648 0-108.032 48.384-108.032 108.032v207.4624c163.584-48.64 298.2912-164.4544 371.968-315.4944H197.4272z" fill="#FF716E" p-id="9401"></path></svg>