<?xml version="1.0" standalone="no"?><!DOCTYPE svg PUBLIC "-//W3C//DTD SVG 1.1//EN" "http://www.w3.org/Graphics/SVG/1.1/DTD/svg11.dtd"><svg t="1729581274416" class="icon" viewBox="0 0 1229 1024" version="1.1" xmlns="http://www.w3.org/2000/svg" p-id="3284" xmlns:xlink="http://www.w3.org/1999/xlink" width="240.0390625" height="200"><path d="M814.461729 219.012428" fill="#272636" p-id="3285"></path><path d="M18.646281 1023.999972l154.377255 0L173.023535-1.3e-05 18.646281-1.3e-05 18.646281 1023.999972zM223.337993 1023.999972l72.590174 0L295.928168-1.3e-05l-72.590174 0L223.337993 1023.999972zM390.338738 1023.999972l91.366339 0L481.705076-1.3e-05l-91.366339 0L390.338738 1023.999972zM651.850748 1023.999972l157.612662 0L809.46341-1.3e-05 651.850748-1.3e-05 651.850748 1023.999972zM850.31244 1023.999972l59.979819 0L910.292259-1.3e-05l-59.979819 0L850.31244 1023.999972zM1004.780175-1.3e-05 1004.780175 1023.999972 1212.730645 1023.999972 1212.730645-1.3e-05 1004.780175-1.3e-05z" fill="#272636" p-id="3286"></path></svg>