<?xml version="1.0" standalone="no"?><!DOCTYPE svg PUBLIC "-//W3C//DTD SVG 1.1//EN" "http://www.w3.org/Graphics/SVG/1.1/DTD/svg11.dtd"><svg t="1731892090058" class="icon" viewBox="0 0 1024 1024" version="1.1" xmlns="http://www.w3.org/2000/svg" p-id="14313" xmlns:xlink="http://www.w3.org/1999/xlink" width="200" height="200"><path d="M799.3 630.1l19.5-18.1c0.8-0.7 1.6-1.5 2.3-2.2 13.6-14 13.6-36.9 0-50.8L346.7 72.7c-13.6-14-35.9-14-49.6 0-13.6 14-13.6 36.9 0 50.8l118.1 121.1-290.6 297.9c-24.1 24.7-24.1 65 0 89.7L417.1 932c24.1 24.7 63.4 24.7 87.5 0l292.5-299.8c0.8-0.7 1.5-1.4 2.2-2.1z m-621.5-44.8l284.9-292 284.9 292H177.8z m774 244.2l-88.6-179.4-90.2 182c-9 16-14.1 34.6-14.1 54.5 0 59.9 46.7 108.5 104.2 108.5 57.6 0 104.2-48.6 104.2-108.5 0.1-21-5.7-40.4-15.5-57.1z m0 0" p-id="14314" fill="#2c2c2c"></path></svg>