<?xml version="1.0" standalone="no"?><!DOCTYPE svg PUBLIC "-//W3C//DTD SVG 1.1//EN" "http://www.w3.org/Graphics/SVG/1.1/DTD/svg11.dtd"><svg t="1723003465965" class="icon" viewBox="0 0 1024 1024" version="1.1" xmlns="http://www.w3.org/2000/svg" p-id="7196" xmlns:xlink="http://www.w3.org/1999/xlink" width="200" height="200"><path d="M128 64H64v896h896v-64H128V64z" fill="#333333" p-id="7197"></path><path d="M480 259.2V576h278.4c-28.8 108.8-128 192-246.4 192-140.8 0-256-115.2-256-256 0-131.2 99.2-236.8 224-252.8m32-67.2c-176 0-320 144-320 320s144 320 320 320 320-144 320-320H544V192h-32z" fill="#333333" p-id="7198"></path><path d="M672 134.4c124.8 22.4 201.6 112 220.8 249.6H672V134.4M608 64v384h352c0-224-128-384-352-384z" fill="#333333" p-id="7199"></path></svg>