<?xml version="1.0" standalone="no"?><!DOCTYPE svg PUBLIC "-//W3C//DTD SVG 1.1//EN" "http://www.w3.org/Graphics/SVG/1.1/DTD/svg11.dtd"><svg t="1715245280824" class="icon" viewBox="0 0 1024 1024" version="1.1" xmlns="http://www.w3.org/2000/svg" p-id="1321" xmlns:xlink="http://www.w3.org/1999/xlink" width="200" height="200"><path d="M838.544887 753.01171l-124.702576 0 0 116.708821 123.903201 0 0 127.900078 186.254489-186.254489-185.455113-185.455113L838.544887 753.01171 838.544887 753.01171zM838.544887 753.01171" p-id="1322"></path><path d="M783.387978 949.65808 163.0726 949.65808c-7.194379 0-12.790008-5.595628-12.790008-12.790008L150.282592 86.332553c0-7.194379 5.595628-12.790008 12.790008-12.790008L575.550351 73.542545c7.194379 0 12.790008 5.595628 12.790008 12.790008L588.340359 311.75644c0 29.576893 23.981265 54.357533 54.357533 54.357533l225.423888 0c7.194379 0 12.790008 5.595628 12.790008 12.790008L880.911788 575.550351l72.743169 73.542545L953.654957 281.380172c0-15.98751-6.395004-31.97502-17.586261-43.166276L715.441062 17.586261C703.450429 6.395004 688.262295 0 671.47541 0L138.291959 0c-33.57377 0-61.551913 27.178767-61.551913 61.551913l0 900.896175c0 33.57377 27.178767 61.551913 61.551913 61.551913l645.096019 0L783.387978 949.65808zM661.083528 101.520687c0-12.790008 15.188134-19.185012 24.78064-10.391881L863.325527 267.790788c8.79313 8.79313 2.398126 24.78064-10.391881 24.78064L675.472287 292.571429c-7.993755 0-14.388759-6.395004-14.388759-14.388759L661.083528 101.520687z" p-id="1323"></path><path d="M806.569867 438.857143 663.481655 438.857143c-7.993755 0-14.388759 6.395004-14.388759 14.388759l0 32.774395c0 7.993755 6.395004 14.388759 14.388759 14.388759l19.984387 0c8.79313 0 15.98751 7.993755 13.589383 17.586261l-52.758782 232.618267c-1.598751 7.993755-3.197502 15.98751-3.996877 26.379391l-0.799375 11.990632-2.398126 0-1.598751-11.990632c0 0 0-0.799375 0-0.799375 0-2.398126-0.799375-5.595628-2.398126-11.990632-0.799375-6.395004-2.398126-11.191257-3.197502-14.388759l-79.138173-300.565183c-1.598751-6.395004-7.194379-10.391881-13.589383-10.391881l-43.166276 0c-6.395004 0-11.990632 3.996877-13.589383 10.391881l-79.138173 300.565183c-0.799375 3.197502-1.598751 7.993755-2.398126 13.589383-0.799375 5.595628-1.598751 9.592506-2.398126 11.990632l-2.398126 11.990632L391.693989 787.384856l-0.799375-11.990632c-0.799375-9.592506-2.398126-18.385636-3.996877-26.379391l-52.758782-232.618267c-1.598751-8.79313 4.796253-17.586261 13.589383-17.586261l19.984387 0c7.993755 0 14.388759-6.395004 14.388759-14.388759l0-32.774395c0-7.993755-6.395004-14.388759-14.388759-14.388759L226.223263 437.258392c-8.79313 0-15.98751 7.194379-15.98751 15.98751l0 31.175644c0 7.993755 6.395004 14.388759 14.388759 14.388759l15.188134 0c6.395004 0 11.990632 4.796253 13.589383 10.391881l87.931304 355.722092c1.598751 6.395004 7.194379 10.391881 13.589383 10.391881L423.669009 875.316159c6.395004 0 11.990632-3.996877 13.589383-10.391881l70.345043-266.192037c2.398126-7.993755 4.796253-15.98751 5.595628-26.379391 0.799375-6.395004 0.799375-10.391881 0.799375-13.589383l2.398126 0 1.598751 12.790008c0 0.799375 0 0.799375 0 1.598751 0 1.598751 0.799375 5.595628 1.598751 10.391881 0.799375 6.395004 1.598751 11.191257 3.197502 15.188134l70.345043 266.192037c1.598751 6.395004 7.194379 10.391881 13.589383 10.391881l68.746292 0c6.395004 0 11.990632-4.796253 13.589383-10.391881l87.931304-355.722092c1.598751-6.395004 7.194379-10.391881 13.589383-10.391881l15.188134 0c7.993755 0 14.388759-6.395004 14.388759-14.388759l0-32.774395C820.958626 445.252147 814.563622 438.857143 806.569867 438.857143z" p-id="1324"></path></svg>