<svg width="16" height="16" viewBox="0 0 16 16" xmlns="http://www.w3.org/2000/svg"><g fill="#3D4757" fill-rule="evenodd"><path d="M13.31 5h-1.92a2.203 2.203 0 00-.39-.034c-.135 0-.27.012-.402.034H10v.18c-.578.256-1 .714-1 1.214v1.928c0 .196.117.43.3.658v1.23a3.543 3.543 0 01-.3-.4V11H8V1h1v4.265C9 4.763 10 4 10.942 4c1.19 0 1.92.422 2.367 1zM2 6c-.03-.498-.175-2 2.5-2C7.11 4 7 5 7 6.902V11H5.984v-.993c.38.662-.115.993-1.484.993C2.708 11 2 9.931 2 9c0-1.428.447-2 2.5-2h1.484c0-1 .031-2-1.484-2-1.533 0-1.577.485-1.577 1H2zm2.5 2C3.601 8 3 7.768 3 9c0 1.31.438 1 1.5 1 .617 0 1.484-.665 1.484-1.847V8H4.5z"/><path d="M13.085 6.316l-2.814 3a1 1 0 101.458 1.368l2.815-3a1 1 0 00-1.459-1.368z" fill-rule="nonzero"/></g></svg>