<svg width="126" height="20" xmlns="http://www.w3.org/2000/svg"><path d="M4 10h1v1H4zm12 0h1v1h-1zM6 10h1v1H6zm12 0h1v1h-1zM8 10h1v1H8zm12 0h1v1h-1zm-10 0h1v1h-1zm12 0h1v1h-1zm-10 0h1v1h-1zm12 0h1v1h-1zm-10 0h1v1h-1zm12 0h1v1h-1zm2 0h1v1h-1zm12 0h1v1h-1zm-10 0h1v1h-1zm12 0h1v1h-1zm-10 0h1v1h-1zm12 0h1v1h-1zm-10 0h1v1h-1zm12 0h1v1h-1zm-10 0h1v1h-1zm12 0h1v1h-1zm-10 0h1v1h-1zm12 0h1v1h-1zm2 0h1v1h-1zm12 0h1v1h-1zm-10 0h1v1h-1zm12 0h1v1h-1zm-10 0h1v1h-1zm12 0h1v1h-1zm-10 0h1v1h-1zm12 0h1v1h-1zm-10 0h1v1h-1zm12 0h1v1h-1zm-10 0h1v1h-1zm12 0h1v1h-1zm2 0h1v1h-1zm12 0h1v1h-1zm-10 0h1v1h-1zm12 0h1v1h-1zm-10 0h1v1h-1zm12 0h1v1h-1zm-10 0h1v1h-1zm12 0h1v1h-1zm-10 0h1v1h-1zm12 0h1v1h-1zm-10 0h1v1h-1zm12 0h1v1h-1zm2 0h1v1h-1zm12 0h1v1h-1zm-10 0h1v1h-1zm12 0h1v1h-1zm-10 0h1v1h-1zm12 0h1v1h-1zm-10 0h1v1h-1zm12 0h1v1h-1zm-10 0h1v1h-1zm12 0h1v1h-1zm-10 0h1v1h-1z" fill-rule="evenodd"/></svg>