<svg version="1.1" id="图层_1" xmlns="http://www.w3.org/2000/svg" x="0" y="0" viewBox="0 0 16 16" xml:space="preserve"><style>.st0{fill:none;stroke:#3d4757}.st1{fill:#3d4757}</style><g id="_x30_1-文字_x2F_02插入_x2F_分页-16px"><path id="矩形" class="st0" d="M5.5 2.5h7c.6 0 1 .4 1 1v3c0 .6-.4 1-1 1h-7c-.6 0-1-.4-1-1v-3c0-.6.4-1 1-1z"/><path id="三角形" class="st1" d="M4 8.5L1 6v5z"/><path id="合并形状" class="st0" d="M10.8 9.5H5c-.3 0-.5.2-.5.5v4c0 .3.2.5.5.5h8c.3 0 .5-.2.5-.5v-1.8l-2.7-2.7z"/><path id="矩形_1_" class="st1" d="M10 10h1v3h-1z"/><path id="矩形-copy-2" class="st1" d="M10 12h3v1h-3z"/></g></svg>