<svg width="16" height="16" viewBox="0 0 16 16" xmlns="http://www.w3.org/2000/svg"><g fill="none" fill-rule="evenodd"><path d="M7.5 2v2.5H4a.5.5 0 00-.5.5v2a.5.5 0 00.5.5h9a.5.5 0 00.5-.5V5a.5.5 0 00-.5-.5H9.5V2a.5.5 0 00-.5-.5H8a.5.5 0 00-.5.5z" stroke="#3D4757"/><path fill="#3D4757" d="M13 7h1v4h-1z"/><path d="M11 13a2 2 0 002-2V8.764A3 3 0 118.764 13H11z" fill="#3D4757"/><path fill="#3D4757" d="M1 13h10v1H1z"/><path d="M1 13a2 2 0 002-2V8.764A3 3 0 011 14v-1z" fill="#3D4757"/><path fill="#3D4757" d="M3 7h1v4H3z"/></g></svg>