<svg version="1.1" id="图层_1" xmlns="http://www.w3.org/2000/svg" x="0" y="0" viewBox="0 0 16 16" xml:space="preserve"><style>.st0{fill:#3d4757}</style><g id="_x30_1-文字_x2F_04页面_x2F_纸张方向-16px"><g id="编组" transform="translate(1 1)"><path id="合并形状" class="st0" d="M14 6v7c0 .6-.4 1-1 1H4c-.6 0-1-.4-1-1V6c0-.6.4-1 1-1h9c.6 0 1 .4 1 1zm-1 0H4v7h9V6z"/><path id="路径" class="st0" d="M9 4H8V1H1v9h1v1H1c-.6 0-1-.4-1-1V1c0-.6.4-1 1-1h7c.6 0 1 .4 1 1v3z"/><path id="矩形" class="st0" d="M11 7h1v5h-1z"/><path id="矩形-copy-2" class="st0" d="M2 2h5v1H2z"/></g></g></svg>