<?xml version="1.0" standalone="no"?><!DOCTYPE svg PUBLIC "-//W3C//DTD SVG 1.1//EN" "http://www.w3.org/Graphics/SVG/1.1/DTD/svg11.dtd"><svg t="1715223357853" class="icon" viewBox="0 0 1024 1024" version="1.1" xmlns="http://www.w3.org/2000/svg" p-id="1284" xmlns:xlink="http://www.w3.org/1999/xlink" width="200" height="200"><path d="M668.7 150.3c-14.3 0-25.9-11.6-25.9-25.9s11.6-25.9 25.9-25.9h151.4c59.6 0 107.9 48.2 107.9 107.8v151.4c0 14.3-11.6 25.9-25.9 25.9s-25.9-11.6-25.9-25.9V206.3c0-30.9-25-56-56-56H668.7z m207.4 506.3c-0.6-14.3 10.4-26.4 24.7-27.1 14.3-0.6 26.4 10.4 27.1 24.7V820.3c0 59.6-48.2 107.8-107.8 107.8H717.8c-14.3 0-25.9-11.6-25.9-25.9s11.6-25.9 25.9-25.9h102.4c30.9 0 56-25 56-56V656.6zM369.8 876.4c14.3 0 25.9 11.6 25.9 25.9s-11.6 25.9-25.9 25.9H206c-59.5 0-107.8-48.3-107.8-107.8V668.9c0-14.3 11.6-25.9 25.9-25.9s25.9 11.6 25.9 25.9v151.4c0 30.9 25 56 56 56h163.8v0.1zM150.1 357.8c0 14.3-11.6 25.9-25.9 25.9s-25.9-11.6-25.9-25.9V206.3c0-59.7 48.2-107.9 107.8-107.9h151.4c14.3 0 25.9 11.6 25.9 25.9s-11.6 25.9-25.9 25.9H206.1c-30.9 0-56 25-56 56v151.6z m363 285.2c88.8 0 171.5-46.1 249.8-142.6-78.3-96.5-161-142.6-249.8-142.6-88.8 0-171.5 46.2-249.9 142.6C341.6 596.8 424.3 643 513.1 643z m0 51.8c-105.8 0-202.6-53.9-290.1-161.8-15.4-19-15.4-46.3 0-65.3 87.5-107.9 184.3-161.8 290.1-161.8 105.8 0 202.5 53.9 290.1 161.8 15.4 19 15.4 46.3 0 65.3-87.6 107.9-184.3 161.8-290.1 161.8z" p-id="1285"></path><path d="M513.1 565.2c35.8 0 64.8-29 64.8-64.8s-29-64.8-64.8-64.8-64.8 29-64.8 64.8 29 64.8 64.8 64.8z m0 51.9c-64.4 0-116.7-52.2-116.7-116.7s52.2-116.7 116.7-116.7 116.7 52.2 116.7 116.7-52.2 116.7-116.7 116.7z" p-id="1286"></path></svg>