<?xml version="1.0" standalone="no"?><!DOCTYPE svg PUBLIC "-//W3C//DTD SVG 1.1//EN" "http://www.w3.org/Graphics/SVG/1.1/DTD/svg11.dtd"><svg t="1729582027290" class="icon" viewBox="0 0 1024 1024" version="1.1" xmlns="http://www.w3.org/2000/svg" p-id="4641" xmlns:xlink="http://www.w3.org/1999/xlink" width="200" height="200"><path d="M48.384 45.376l412.224 0 0 84.992-412.224 0 0-84.992ZM565.44 45.376l238.656 0 0 84.992-238.656 0 0-84.992ZM891.584 45.376l86.72 0 0 86.72-86.72 0 0-86.72ZM48.384 374.4l412.224 0 0 85.056-412.224 0 0-85.056ZM45.696 45.376l84.992 0 0 412.224-84.992 0 0-412.224ZM375.616 45.376l84.992 0 0 412.224-84.992 0 0-412.224ZM189.376 200.832l115.712 0 0 115.712-115.712 0 0-115.712ZM565.44 130.368l82.752 0 0 87.232-82.752 0 0-87.232ZM804.032 130.368l90.752 0 0 160.512-90.752 0 0-160.512ZM891.584 217.6l86.72 0 0 151.872-86.72 0 0-151.872ZM651.328 282.688l152.768 0 0 109.312-152.768 0 0-109.312ZM736.832 369.408l155.392 0 0 88.128-155.392 0 0-88.128ZM565.952 372.16l85.376 0 0 85.376-85.376 0 0-85.376ZM45.696 542.784l84.992 0 0 192.576-84.992 0 0-192.576ZM130.88 717.248l91.968 0 0 92.032-91.968 0 0-92.032ZM45.696 805.632l85.184 0 0 173.056-85.184 0 0-173.056ZM217.664 542.784l261.696 0 0 105.728-261.696 0 0-105.728ZM281.344 639.104l109.184 0 0 100.48-109.184 0 0-100.48ZM370.176 717.248l109.184 0 0 174.848-109.184 0 0-174.848ZM285.44 805.632l105.088 0 0 173.056-105.088 0 0-173.056ZM197.952 869.12l102.016 0 0 109.568-102.016 0 0-109.568ZM629.184 542.784l195.264 0 0 174.464-195.264 0 0-174.464ZM871.168 542.784l107.136 0 0 107.136-107.136 0 0-107.136ZM545.088 630.016l107.136 0 0 194.304-107.136 0 0-194.304ZM716.672 692.8l107.776 0 0 111.872-107.776 0 0-111.872ZM545.088 869.12l107.136 0 0 109.568-107.136 0 0-109.568ZM802.816 892.096l175.488 0 0 86.592-175.488 0 0-86.592ZM890.56 804.672l87.744 0 0 105.728-87.744 0 0-105.728Z" fill="#272636" p-id="4642"></path></svg>