<?xml version="1.0" standalone="no"?><!DOCTYPE svg PUBLIC "-//W3C//DTD SVG 1.1//EN" "http://www.w3.org/Graphics/SVG/1.1/DTD/svg11.dtd"><svg t="1714708781943" class="icon" viewBox="0 0 1024 1024" version="1.1" xmlns="http://www.w3.org/2000/svg" p-id="6105" xmlns:xlink="http://www.w3.org/1999/xlink" width="200" height="200"><path d="M701.3 316.1c15.9 0 28.8-13.3 28.8-29.8v-57.6c0-16.4-12.9-29.8-28.8-29.8s-28.8 13.3-28.8 29.8v57.6c0 16.5 12.9 29.8 28.8 29.8z" fill="#00D8A0" p-id="6106"></path><path d="M820.6 960H203.8c-77.2 0-140-62.8-140-140V203.2c0-77.2 62.8-140 140-140h616.7c77.2 0 140 62.8 140 140v616.7c0.1 77.3-62.7 140.1-139.9 140.1zM203.8 103.2c-55.2 0-100 44.9-100 100v616.7c0 55.2 44.9 100 100 100h616.7c55.2 0 100-44.9 100-100V203.2c0-55.2-44.9-100-100-100H203.8z" fill="#1A1A1A" p-id="6107"></path><path d="M764.7 442.1H261.9c-39 0-70.7-31.7-70.7-70.7V79.9h40v291.5c0 16.9 13.8 30.7 30.7 30.7h502.8c16.9 0 30.7-13.8 30.7-30.7V79.9h40v291.5c0 39-31.7 70.7-70.7 70.7z" fill="#1A1A1A" p-id="6108"></path></svg>