<svg width="16" height="16" viewBox="0 0 16 16" xmlns="http://www.w3.org/2000/svg"><g fill="#3D4757" fill-rule="evenodd"><path d="M10.42 7.903H6.692a9.182 9.182 0 01-.41-.172 5.54 5.54 0 01-.814-.447 2.955 2.955 0 01-.655-.595 2.728 2.728 0 01-.44-.777 2.877 2.877 0 01-.162-1.006c0-.472.094-.888.282-1.25.188-.36.453-.663.793-.907s.747-.43 1.22-.558A5.97 5.97 0 018.063 2c.504 0 .95.049 1.337.147.387.097.725.23 1.013.398.287.169.53.365.73.59a3.337 3.337 0 01.772 1.486c.03.13.054.255.073.379h-1.276a2.393 2.393 0 00-.22-.615 2.315 2.315 0 00-.59-.724 2.467 2.467 0 00-.834-.44 3.376 3.376 0 00-1.005-.146 4.69 4.69 0 00-.958.097 2.77 2.77 0 00-.839.314 1.765 1.765 0 00-.597.566c-.152.233-.229.518-.229.854 0 .348.086.642.258.884.171.241.401.449.689.622.287.174.615.323.983.448s.749.247 1.142.367c.31.097.62.196.934.297a8.439 8.439 0 01.973.38zm1.376 1c.175.217.315.466.418.746.105.285.158.612.158.98 0 .554-.104 1.041-.312 1.462-.207.42-.496.772-.867 1.054-.37.282-.81.495-1.32.64A6.12 6.12 0 018.205 14c-.543 0-1.071-.09-1.586-.273a4.44 4.44 0 01-1.374-.773 3.873 3.873 0 01-.97-1.217 3.695 3.695 0 01-.395-1.612h1.27c.028.407.122.78.282 1.12a2.835 2.835 0 001.581 1.465c.363.138.76.207 1.192.207.387 0 .758-.042 1.112-.126a2.85 2.85 0 00.938-.399 2.01 2.01 0 00.647-.708c.16-.29.241-.642.241-1.054 0-.337-.087-.623-.261-.86a2.333 2.333 0 00-.69-.61 4.651 4.651 0 00-.495-.257h2.099z"/><path d="M3 7h10v1H3z"/></g></svg>