<svg version="1.1" id="图层_1" xmlns="http://www.w3.org/2000/svg" x="0" y="0" viewBox="0 0 16 16" xml:space="preserve"><style>.st0{fill:#3d4757}</style><g id="_x30_0-公共_x2F_02工具栏_x2F_subscript"><path id="_x32_" class="st0" d="M15 13.3v.7h-3c0-.3.1-.5.3-.8.2-.2.5-.6 1-1 .4-.3.6-.5.7-.7.1-.2.2-.3.2-.5s-.1-.3-.2-.4c-.1-.1-.2-.1-.4-.1s-.3 0-.4.1-.2.4-.2.7l-.9-.1c.1-.4.2-.7.5-.9.3-.2.6-.3 1-.3s.8.1 1 .3c.3.2.4.5.4.8 0 .2 0 .4-.1.5-.1.2-.2.3-.3.5-.1.1-.3.3-.6.5s-.4.4-.5.4c-.1.1-.1.2-.2.3H15z"/><path id="合并形状" class="st0" d="M7.2 8.5l4 5.5H9.8L6.5 9.4 3.2 14H1.8l4-5.5-4-5.5h1.4l3.3 4.6L9.8 3h1.3L7.2 8.5z"/></g></svg>