<svg version="1.1" id="图层_1" xmlns="http://www.w3.org/2000/svg" x="0" y="0" viewBox="0 0 16 16" xml:space="preserve"><style>.st0{fill:#3d4757}</style><g id="_x30_0-公共_x2F_02工具栏_x2F_superscript"><path id="_x32_" class="st0" d="M15 6.3V7h-3c0-.3.1-.5.3-.8.2-.2.5-.6 1-1 .3-.2.6-.5.7-.6.1-.2.2-.3.2-.5s-.1-.3-.2-.4c-.1-.1-.2-.1-.4-.1s-.3 0-.4.1-.2.3-.2.6l-.9-.1c.1-.4.2-.7.5-.9s.6-.3 1-.3.8.1 1 .3c.3.2.4.5.4.8 0 .2 0 .4-.1.5s-.2.4-.4.5c-.1.1-.3.3-.6.5s-.4.4-.4.5c-.1.1-.1.2-.2.3l1.7-.1z"/><path id="合并形状" class="st0" d="M7.4 8.5l4 5.5H10L6.7 9.4 3.4 14H2l4-5.5L2 3h1.4l3.3 4.6L10 3h1.3L7.4 8.5z"/></g></svg>