<?xml version="1.0" standalone="no"?><!DOCTYPE svg PUBLIC "-//W3C//DTD SVG 1.1//EN" "http://www.w3.org/Graphics/SVG/1.1/DTD/svg11.dtd"><svg t="1727524019529" class="icon" viewBox="0 0 1024 1024" version="1.1" xmlns="http://www.w3.org/2000/svg" p-id="1348" xmlns:xlink="http://www.w3.org/1999/xlink" width="200" height="200"><path d="M393.2 701.7c-8.2 0-16.4-3.1-22.6-9.4-12.5-12.5-12.5-32.8 0-45.3l115.3-115.3c14-14 36.9-14 50.9 0L652.1 647c12.5 12.5 12.5 32.8 0 45.3s-32.8 12.5-45.3 0l-95.5-95.5-95.5 95.5c-6.2 6.2-14.4 9.4-22.6 9.4z" fill="" p-id="1349"></path><path d="M511.3 921.1c-17.7 0-32-14.3-32-32v-276c0-17.7 14.3-32 32-32s32 14.3 32 32v276c0 17.6-14.3 32-32 32z" fill="" p-id="1350"></path><path d="M732.7 784.9c-17.7 0-32-14.3-32-32s14.3-32 32-32c90.6 0 164.3-73.7 164.3-164.3 0-82.9-61.9-153-144-163.1l-22.7-2.8-4.7-22.4c-20.8-99.9-110.1-172.4-212.4-172.4-102.2 0-191.5 72.5-212.4 172.4l-4.7 22.4-22.7 2.8c-82.1 10.1-144 80.2-144 163.1 0 90.6 73.7 164.3 164.3 164.3 17.7 0 32 14.3 32 32s-14.3 32-32 32c-61 0-118.3-23.8-161.5-66.9-43.1-43.1-66.9-100.5-66.9-161.5 0-107.6 75.2-199.7 178.2-222.8 15.8-53.8 47.7-102.2 91.3-138.1 50.1-41.2 113.4-63.9 178.3-63.9s128.3 22.7 178.3 63.9c43.6 35.9 75.5 84.3 91.3 138.1C885.9 356.8 961 448.9 961 556.5c0 61-23.8 118.3-66.9 161.5-43.1 43.1-100.4 66.9-161.4 66.9z" fill="" p-id="1351"></path></svg>