<svg width="16" height="16" xmlns="http://www.w3.org/2000/svg"><g fill="none" fill-rule="evenodd"><rect stroke="#3D4757" x="2.5" y="1.5" width="11" height="13" rx="1"/><path d="M4 7h8v1H4V7zm0-2h8v1H4V5zm0 6h8v1H4v-1zm0-2h8v1H4V9z" fill="#909AA9" fill-rule="nonzero"/><path d="M6 5.623c.36-.354.936-.638 2-.604 1.785.057 2-.008 2 1.894v4.098H8.984v-.993c1.046.662.885.993-.484.993-1.792 0-2.5-1.068-2.5-2 0-1.427.447-2 2.5-2h.484c0-1-.006-1.007-.984-1-.978.008-1.419.437-2 .437v-.825zm2.5 2.389c-.899 0-1.5-.232-1.5 1 0 1.31.438 1 1.5 1 .617 0 .484-.665.484-1.848v-.152H8.5z" fill="#3D4757"/></g></svg>