<?xml version="1.0" standalone="no"?><!DOCTYPE svg PUBLIC "-//W3C//DTD SVG 1.1//EN" "http://www.w3.org/Graphics/SVG/1.1/DTD/svg11.dtd"><svg t="1664500886996" class="icon" viewBox="0 0 1024 1024" version="1.1" xmlns="http://www.w3.org/2000/svg" p-id="7076" xmlns:xlink="http://www.w3.org/1999/xlink" width="200" height="200"><path d="M512.3 959c-10.6 0-20.8-4.2-28.3-11.7l-125-125c-15.6-15.6-15.6-40.9 0-56.6s40.9-15.6 56.6 0l96.7 96.7 96.7-96.7c15.6-15.6 40.9-15.6 56.6 0s15.6 40.9 0 56.6l-125 125c-7.5 7.5-17.7 11.7-28.3 11.7z" p-id="7077" fill="#409EFF"></path><path d="M512.3 815.3c-22.1 0-40-17.9-40-40v-300c0-22.1 17.9-40 40-40s40 17.9 40 40v300c0 22.1-17.9 40-40 40z" p-id="7078" fill="#409EFF"></path><path d="M729.4 699.2h-92.1c-22.1 0-40-17.9-40-40s17.9-40 40-40h92.1c65 0 117.9-52.9 117.9-117.9 0-64.8-52.6-117.6-117.4-117.9h-1.2c-11.3 0-22.1-4.6-29.7-12.9a40.16 40.16 0 0 1-10.4-30.7c0.5-5.8 0.8-11.1 0.8-16.2 0-97.6-79.4-177.1-177.1-177.1s-177 79.5-177 177.2c0 5.1 0.3 10.4 0.8 16.2 1 11.2-2.8 22.4-10.4 30.7-7.6 8.2-18.3 12.9-29.4 12.9h-1.4c-64.8 0.3-117.4 53-117.4 117.9 0 65 52.9 117.9 117.9 117.9h92.1c22.1 0 40 17.9 40 40s-17.9 40-40 40h-92.1c-109.1 0-197.9-88.8-197.9-197.9 0-95.6 68.1-175.6 158.4-193.9C259.8 245 286 186.7 330.7 142c48.6-48.6 113.1-75.3 181.8-75.3S645.7 93.4 694.3 142c44.7 44.7 70.9 102.9 74.8 165.5 90.3 18.4 158.4 98.3 158.4 193.9-0.2 109-89 197.8-198.1 197.8z" p-id="7079" fill="#409EFF"></path></svg>
