<?xml version="1.0" standalone="no"?><!DOCTYPE svg PUBLIC "-//W3C//DTD SVG 1.1//EN" "http://www.w3.org/Graphics/SVG/1.1/DTD/svg11.dtd"><svg t="1664500379444" class="icon" viewBox="0 0 1024 1024" version="1.1" xmlns="http://www.w3.org/2000/svg" p-id="5123" xmlns:xlink="http://www.w3.org/1999/xlink" width="200" height="200"><path d="M928 697.6l-115.2-121.6v-211.2c0-134.4-83.2-249.6-211.2-300.8-6.4-38.4-51.2-64-96-64-51.2 0-76.8 32-96 64-134.4 38.4-217.6 160-217.6 300.8v211.2l-108.8 121.6c-12.8 12.8-19.2 38.4-19.2 51.2 0 32 32 64 70.4 64h748.8c12.8 0 38.4-6.4 51.2-12.8 12.8-12.8 19.2-38.4 19.2-51.2 6.4-25.6-12.8-38.4-25.6-51.2z m-364.8-569.6c115.2 32 185.6 128 185.6 236.8v236.8l115.2 140.8h-729.6l134.4-147.2v-230.4c0-108.8 76.8-204.8 185.6-236.8l19.2-6.4v-19.2c0-12.8 12.8-32 38.4-32 19.2 0 32 12.8 38.4 32v19.2l12.8 6.4z" p-id="5124" fill="#409EFF"></path><path d="M518.4 198.4c0 19.2 6.4 38.4 25.6 38.4 44.8 6.4 76.8 44.8 83.2 102.4 0 19.2 12.8 38.4 38.4 38.4 19.2 0 38.4-12.8 38.4-38.4-6.4-96-83.2-147.2-147.2-166.4-12.8 0-38.4 12.8-38.4 25.6zM672 838.4c-6.4-6.4-19.2-6.4-32 0s-19.2 12.8-25.6 19.2c-38.4 70.4-70.4 76.8-89.6 76.8-32 0-57.6-6.4-89.6-76.8-6.4-19.2-38.4-25.6-57.6-19.2-19.2 6.4-32 12.8-32 25.6-6.4 12.8-6.4 25.6 0 38.4 38.4 76.8 96 121.6 166.4 121.6s128-38.4 166.4-121.6c19.2-19.2 19.2-32 19.2-38.4 0-12.8-12.8-19.2-25.6-25.6z" p-id="5125" fill="#409EFF"></path></svg>
