<svg xmlns="http://www.w3.org/2000/svg" width="175" height="200"><path fill="#448AFF" d="M-727.133-505.471v142.084c0 4.624-3.75 8.332-8.334 8.332h-158.332a8.304 8.304 0 0 1-8.334-8.332v-183.334c0-4.584 3.708-8.334 8.334-8.334h117.124l49.542 49.584z"/><path fill="#FFF" d="M-863.174-488.432h13.227l13.436 56.874h.208l15.002-56.874h13.334l14.584 56.874h.209l13.853-56.874h13.228l-20.52 74.377h-13.232l-14.892-56.877h-.212l-15.206 56.877h-13.44z"/><path fill="#62BB37" d="M-492.467-505.47v142.084c0 4.624-3.75 8.332-8.334 8.332h-158.332a8.304 8.304 0 0 1-8.334-8.332V-546.72c0-4.584 3.708-8.334 8.334-8.334h117.124l49.542 49.584z"/><path fill="#FFF" d="M-612.26-488.428h15.524l16.874 26.25 17.602-26.25h14.584l-24.582 35.832 26.354 38.542h-15.836l-18.538-28.438-18.856 28.438h-14.896l26.354-38.542z"/><path fill="#F57C00" d="M-270.478-505.473v142.084c0 4.624-3.75 8.332-8.334 8.332h-158.332a8.304 8.304 0 0 1-8.334-8.332v-183.334c0-4.584 3.708-8.334 8.334-8.334h117.124l49.542 49.584z"/><path fill="#FFF" d="M-387.038-488.432h32.812c5.274 0 9.582.766 12.914 2.292 3.334 1.53 5.9 3.438 7.708 5.728 1.806 2.292 3.038 4.794 3.698 7.5.66 2.71.988 5.208.988 7.5 0 2.294-.328 4.776-.988 7.45-.66 2.672-1.892 5.156-3.698 7.446-1.808 2.29-4.374 4.186-7.708 5.676-3.332 1.498-7.64 2.242-12.914 2.242h-19.792v28.54h-13.02v-74.374zm13.02 35.21h19.06c1.46 0 2.954-.212 4.48-.626a12.867 12.867 0 0 0 4.218-2.032c1.286-.94 2.328-2.188 3.126-3.75.798-1.564 1.196-3.524 1.196-5.884 0-2.43-.346-4.444-1.042-6.042-.692-1.596-1.632-2.866-2.812-3.802-1.18-.94-2.534-1.578-4.06-1.928-1.53-.346-3.162-.52-4.896-.52h-19.27v24.584z"/><path fill="#448AFF" d="M175-505.473v142.084c0 4.624-3.75 8.332-8.334 8.332H8.334A8.304 8.304 0 0 1 0-363.389v-183.334c0-4.584 3.708-8.334 8.334-8.334h117.124L175-505.473z"/><path fill="#FFF" d="M53.345-490.326h14.3l19.69 62.15h.22l20.13-62.15h13.97l-26.84 78.54H79.527z"/><path fill="#29D3B2" d="M-49.989-505.472v142.082c0 4.625-3.751 8.334-8.334 8.334h-158.332a8.306 8.306 0 0 1-8.334-8.334v-183.331c0-4.584 3.709-8.334 8.334-8.334H-99.53l49.541 49.583z"/><path fill="#FFF" d="M-172.601-498.429h70.225v13.121h-27.581v73.626h-15.186v-73.626h-27.458z"/><path fill="#F57C00" d="M-726.134-239.02v143.708c0 4.677-3.793 8.427-8.429 8.427h-160.141a8.398 8.398 0 0 1-8.429-8.427v-185.429c0-4.636 3.75-8.429 8.429-8.429h118.462l50.108 50.15z"/><path fill="#FFF" d="M-772.273-215.135l-33.73 33.73 3.75 4.19 28.87-28.868zM-833.623-191.299c-23.634 23.634-31.372 45.44-31.372 45.44s21.806-7.738 45.44-31.372l4.072-4.074-14.068-14.066-4.072 4.072zM-810.692-186.103l-14.068-14.067 38.405-38.406 14.068 14.068zM-864.994-141.652h92.707v6.274h-92.707z"/><path fill="#62BB37" d="M-492.467-238.443v142.084c0 4.624-3.75 8.332-8.334 8.332h-158.332a8.304 8.304 0 0 1-8.334-8.332v-183.334c0-4.584 3.708-8.334 8.334-8.334h117.124l49.542 49.584z"/><path fill="#FFF" d="M-627.969-195.661h22.914v41.894h-22.914zM-591.424-235.319h22.914v81.552h-22.914zM-554.881-211.354h22.914v57.588h-22.914zM-627.969-142.529h96.002v6.2h-96.002z"/><path fill="#448AFF" d="M-259.087-238.445v142.084c0 4.624-3.75 8.332-8.334 8.332h-158.332a8.304 8.304 0 0 1-8.334-8.332v-183.334c0-4.584 3.708-8.334 8.334-8.334h117.124l49.542 49.584z"/><path fill="#FFF" d="M-391.952-182.227v-41.732c0-4.466 3.654-8.12 8.12-8.12h74.49c4.466 0 8.12 3.654 8.12 8.12v41.732M-391.952-174.843h90.73v8.12h-90.73zM-368.272-141.49h43.368v8.12h-43.368z"/><path fill="#FFF" d="M-350.648-171.977h8.12v34.55h-8.12z"/><path fill="#718BC8" d="M-37.745-238.445v142.084c0 4.624-3.75 8.332-8.334 8.332h-158.332a8.304 8.304 0 0 1-8.334-8.332v-183.334c0-4.584 3.708-8.334 8.334-8.334h117.124l49.542 49.584z"/><path fill="#FFF" d="M-125.245-252.028c-27.614 0-50 22.386-50 50s22.386 50 50 50 50-22.386 50-50-22.387-50-50-50zm-.001 64.584c-8.054 0-14.582-6.53-14.582-14.584 0-8.054 6.528-14.584 14.582-14.584 8.054 0 14.584 6.53 14.584 14.584 0 8.054-6.53 14.584-14.584 14.584zM-148.313-109.815h-4.702v-3.046h-.086c-.668 1.306-1.64 2.242-2.916 2.806a9.85 9.85 0 0 1-4.048.85c-1.77 0-3.316-.312-4.634-.936-1.322-.624-2.418-1.472-3.288-2.546-.872-1.072-1.524-2.342-1.958-3.808-.436-1.466-.654-3.04-.654-4.724 0-2.028.276-3.786.828-5.264.55-1.482 1.284-2.7 2.198-3.658.914-.958 1.958-1.66 3.134-2.11a9.96 9.96 0 0 1 3.59-.676c.698 0 1.406.066 2.134.196a9.66 9.66 0 0 1 2.09.63 8.33 8.33 0 0 1 1.848 1.112 6.16 6.16 0 0 1 1.416 1.588h.086v-11.49h4.962v31.076zm-17.324-11.012c0 .958.124 1.902.37 2.83a7.78 7.78 0 0 0 1.132 2.482 5.727 5.727 0 0 0 1.938 1.74c.782.434 1.71.652 2.784.652 1.104 0 2.054-.23 2.852-.696a5.892 5.892 0 0 0 1.958-1.828 8.278 8.278 0 0 0 1.132-2.546c.246-.942.37-1.908.37-2.894 0-2.496-.558-4.44-1.676-5.834-1.116-1.392-2.632-2.088-4.548-2.088-1.162 0-2.14.24-2.938.718a5.983 5.983 0 0 0-1.958 1.872 7.755 7.755 0 0 0-1.088 2.612 13.58 13.58 0 0 0-.328 2.98M-140.739-132.316h4.702v3.132h.128c.378-.55.784-1.058 1.22-1.522.434-.464.92-.856 1.458-1.176a7.466 7.466 0 0 1 1.85-.762c.698-.188 1.494-.282 2.394-.282 1.364 0 2.634.306 3.808.914 1.176.608 2.01 1.554 2.504 2.828.84-1.158 1.812-2.074 2.916-2.74 1.102-.668 2.482-1.002 4.136-1.002 2.378 0 4.228.58 5.55 1.74 1.318 1.162 1.978 3.106 1.978 5.834v15.538h-4.962v-13.146c0-.898-.03-1.718-.086-2.458-.06-.74-.226-1.378-.502-1.916a2.836 2.836 0 0 0-1.24-1.24c-.55-.29-1.306-.434-2.264-.434-1.68 0-2.9.522-3.654 1.566-.756 1.046-1.132 2.524-1.132 4.44v13.188h-4.962v-14.45c0-1.568-.282-2.75-.85-3.548-.566-.796-1.602-1.196-3.112-1.196a4.54 4.54 0 0 0-1.85.392 4.595 4.595 0 0 0-1.566 1.13c-.45.494-.812 1.104-1.088 1.828-.278.728-.414 1.554-.414 2.482v13.362h-4.962v-22.502zM-79.892-110.99c0 3.396-.95 5.928-2.85 7.596-1.9 1.67-4.636 2.502-8.204 2.502-1.134 0-2.272-.116-3.418-.346a10.209 10.209 0 0 1-3.134-1.176 7.541 7.541 0 0 1-2.37-2.178c-.64-.9-1.018-2-1.134-3.308h4.962c.146.698.392 1.262.742 1.7.346.434.76.776 1.24 1.02a4.658 4.658 0 0 0 1.586.48c.582.072 1.192.108 1.83.108 2.002 0 3.468-.492 4.396-1.48.928-.984 1.392-2.408 1.392-4.266v-3.436h-.086c-.696 1.246-1.646 2.22-2.852 2.916a7.647 7.647 0 0 1-3.896 1.044c-1.798 0-3.328-.312-4.59-.936a8.733 8.733 0 0 1-3.134-2.568c-.828-1.088-1.43-2.344-1.808-3.764-.376-1.422-.566-2.946-.566-4.57 0-1.508.234-2.946.698-4.31.464-1.364 1.132-2.56 2.002-3.592a9.628 9.628 0 0 1 3.2-2.46c1.262-.608 2.69-.912 4.286-.912 1.422 0 2.728.298 3.918.892 1.19.596 2.102 1.53 2.742 2.808h.086v-3.09h4.962v21.326zm-11.012-2.742c1.104 0 2.038-.224 2.808-.674a5.532 5.532 0 0 0 1.872-1.784 7.844 7.844 0 0 0 1.044-2.524c.218-.942.326-1.894.326-2.852s-.116-1.886-.346-2.786c-.234-.9-.588-1.698-1.068-2.394a5.142 5.142 0 0 0-1.872-1.654c-.768-.404-1.69-.608-2.764-.608-1.104 0-2.032.23-2.786.694a5.575 5.575 0 0 0-1.826 1.808 7.74 7.74 0 0 0-1.002 2.524 13.25 13.25 0 0 0-.306 2.808c0 .93.118 1.834.35 2.72.23.886.588 1.676 1.066 2.374a5.669 5.669 0 0 0 1.828 1.696c.74.436 1.632.652 2.676.652"/><path fill="#D32F2F" d="M175 49.584v142.084c0 4.624-3.75 8.332-8.334 8.332H8.334A8.304 8.304 0 0 1 0 191.668V8.334C0 3.75 3.708 0 8.334 0h117.124L175 49.584z"/><path fill="#F6F4F4" d="M85.987 77.631c.758 0 .758 0 0 0 .758-3.03 1.516-4.544 1.516-6.816v-1.514c.756-3.786.756-6.816 0-7.572v-.758l-.758-.758s0 .758-.758.758c-1.515 4.544-1.515 9.844 0 16.66m-22.716 52.25c-1.516.756-3.03 1.514-3.786 2.27-5.302 4.544-9.088 9.846-9.844 12.118 4.542-.758 9.086-5.302 13.63-14.388.756 0 .756 0 0 0 .756 0 0 0 0 0m69.666-11.36c-.756-.756-3.786-3.028-14.388-3.028h-1.514v.758c5.3 2.27 10.602 3.786 14.388 3.786H133.695v-.758s-.758 0-.758-.758m3.03 6.058c-1.516.758-3.786 1.516-6.816 1.516-6.058 0-15.146-1.516-22.718-5.302-12.872 1.514-22.716 3.03-30.29 6.058-.756 0-.756 0-1.514.758-9.086 15.902-16.66 23.474-22.718 23.474-1.514 0-2.27 0-3.028-.756l-3.786-2.272v-.758c-.758-1.514-.758-2.272-.758-3.786.758-3.786 5.302-10.602 14.388-15.902 1.514-.758 3.786-2.272 6.816-3.786 2.27-3.786 4.542-8.33 7.572-13.63 3.786-7.574 6.058-15.146 8.328-21.96-3.028-9.088-4.542-14.388-1.512-24.99.756-3.03 3.028-6.058 6.056-6.058h1.516c1.514 0 3.028.758 4.542 1.514 5.302 5.302 3.03 17.416 0 27.26v.758c3.03 8.33 7.574 15.146 12.116 19.688 2.272 1.516 3.786 3.03 6.816 4.544 3.786 0 6.816-.756 9.844-.756 9.088 0 15.146 1.514 17.416 5.3.758 1.514.758 3.028.758 4.544-.758.756-1.515 3.028-3.028 4.542M86.745 95.047c-1.514 5.3-4.544 11.358-7.572 18.174-1.514 3.03-3.03 5.3-4.544 8.33h1.514c9.844-3.786 18.932-6.058 24.99-6.816-1.514-.756-2.272-1.514-3.03-2.272-3.787-4.542-8.329-10.6-11.358-17.416"/><path fill="#5465FC" d="M-727.138 49.585v142.084c0 4.624-3.75 8.332-8.334 8.332h-158.332a8.304 8.304 0 0 1-8.334-8.332V8.335c0-4.584 3.708-8.334 8.334-8.334h117.124l49.542 49.584z"/><path fill="#FFF" d="M-853.389 68.272c4.224-.768 10.081-1.344 18.047-1.344 8.641 0 14.977 1.824 19.107 5.28 3.84 3.168 6.336 8.256 6.336 14.305 0 6.144-1.92 11.231-5.57 14.687-4.704 4.704-12.096 6.914-20.447 6.914-2.21 0-4.224-.096-5.762-.386v24.387h-11.712V68.272zm11.712 30.145c1.44.384 3.362.48 5.762.48 8.832 0 14.207-4.32 14.207-11.903 0-7.202-4.992-11.041-13.153-11.041-3.264 0-5.568.288-6.816.576v21.888zM-802.801 121.265c2.69 1.632 7.777 3.362 12.001 3.362 5.184 0 7.488-2.114 7.488-5.186 0-3.168-1.92-4.8-7.68-6.816-9.119-3.168-12.959-8.159-12.863-13.633 0-8.255 6.816-14.687 17.663-14.687 5.184 0 9.696 1.344 12.385 2.784l-2.304 8.352c-2.016-1.152-5.762-2.688-9.89-2.688-4.224 0-6.527 2.016-6.527 4.896 0 2.978 2.208 4.416 8.159 6.53 8.448 3.072 12.385 7.392 12.481 14.303 0 8.45-6.623 14.593-19.009 14.593-5.664 0-10.753-1.346-14.207-3.266l2.303-8.544z"/><path fill="#F57C00" d="M-511.116 49.584v142.084c0 4.624-3.75 8.332-8.334 8.332h-158.332a8.304 8.304 0 0 1-8.334-8.332V8.334c0-4.584 3.708-8.334 8.334-8.334h117.124l49.542 49.584z"/><path fill="#FFF" d="M-619.592 114.785l-5.568 18.337h-12.193l20.739-64.707h15.073l21.023 64.707h-12.671l-5.856-18.337h-20.547zm18.53-8.927l-5.088-15.937c-1.248-3.936-2.304-8.354-3.264-12.097h-.192c-.96 3.744-1.92 8.258-3.074 12.097l-4.992 15.937h16.61zM-559.881 73.312c0 3.552-2.592 6.336-6.72 6.336-3.938 0-6.53-2.784-6.53-6.336 0-3.648 2.69-6.434 6.624-6.434 4.034 0 6.53 2.786 6.626 6.434m-12.577 13.057h11.905v46.754h-11.905V86.369z"/><path fill="#C11187" d="M-37.75 49.584v142.084c0 4.624-3.75 8.332-8.334 8.332h-158.332a8.304 8.304 0 0 1-8.334-8.332V8.334c0-4.584 3.708-8.334 8.334-8.334h117.124l49.542 49.584z"/><path fill="#FFF" d="M-159.425 68.847h11.807v64.707h-11.807zM-91.459 65.392v55.011c0 4.798.194 9.983.386 13.151h-10.561l-.48-7.392h-.192c-2.784 5.182-8.448 8.448-15.263 8.448-11.137 0-19.971-9.505-19.971-23.905-.096-15.649 9.697-24.961 20.931-24.961 6.432 0 11.042 2.688 13.151 6.144h.192V65.392h11.807zm-11.808 40.897c0-.96-.096-2.114-.288-3.074-1.056-4.608-4.8-8.351-10.175-8.351-7.584 0-11.809 6.719-11.809 15.457 0 8.543 4.226 14.783 11.713 14.783 4.8 0 9.023-3.264 10.177-8.351.286-1.056.382-2.208.382-3.456v-7.008z"/><path fill="#F57C00" d="M-259.091 49.584v142.084c0 4.624-3.75 8.332-8.334 8.332h-158.332a8.304 8.304 0 0 1-8.334-8.332V8.334c0-4.584 3.708-8.334 8.334-8.334h117.124l49.542 49.584z"/><path fill="#F57C00" d="M-357.393 64.907h21.999v21.999h-21.999z"/><path fill="#FFF" d="M-299.594 93.406v-5.5h-23.791c7.5 5.298 14.101 13.349 19.571 24.041 7.678 15.011 10.454 29.8 10.566 30.422l-7.866 1.448c-.09-.484-8.178-42.534-33.412-53.021v4.978h-23.735v-4.978c-25.237 10.49-33.324 52.537-33.412 53.021l-7.867-1.448c.114-.622 2.888-15.411 10.568-30.422 5.47-10.691 12.071-18.743 19.571-24.041h-24.187v5.5h-18.999V74.407h18.999v5.5h35.328v-7.868h23.735v7.868h34.932v-5.5h18.999v18.999h-19zm-39.8-16.499h-13.999v13.999h13.999V76.907z"/><path fill="#C11187" d="M175 307.61v142.084c0 4.624-3.75 8.332-8.334 8.332H8.334A8.304 8.304 0 0 1 0 449.694V266.36c0-4.584 3.708-8.334 8.334-8.334h117.124L175 307.61z"/><g fill="#FFF"><path d="M75.79 390.389l-6.76-12.408c-2.686-4.816-4.444-8.15-6.204-11.76h-.278c-1.482 3.61-3.148 6.944-5.648 11.76l-6.206 12.408H37.638l18.52-31.576-17.78-30.836h13.056l6.762 12.872c2.036 3.888 3.518 6.944 5.186 10.464h.184c1.668-3.89 2.964-6.668 4.908-10.464l6.666-12.872h13.056l-18.24 30.466 18.982 31.946H75.79zM136.992 324.644v53.06c0 4.628.186 9.63.37 12.686h-10.186l-.462-7.13h-.184c-2.688 4.998-8.15 8.148-14.724 8.148-10.742 0-19.262-9.168-19.262-23.056-.092-15.094 9.352-24.078 20.188-24.078 6.204 0 10.65 2.594 12.686 5.928h.184v-25.558h11.39zm-11.39 39.448c0-.926-.092-2.038-.276-2.964-1.02-4.444-4.632-8.056-9.818-8.056-7.314 0-11.388 6.482-11.388 14.908 0 8.242 4.074 14.26 11.296 14.26 4.63 0 8.706-3.148 9.816-8.054.278-1.02.37-2.132.37-3.336v-6.758z"/></g><path fill="#A0F" d="M-511.112 307.611v142.084c0 4.624-3.75 8.332-8.334 8.332h-158.332a8.304 8.304 0 0 1-8.334-8.332V266.361c0-4.584 3.708-8.334 8.334-8.334h117.124l49.542 49.584z"/><path fill="#FFF" d="M-557.124 319.863h-80.848l-14.14 31.298 54.564 62.868 54.562-62.868-14.138-31.298zm-3.72 6.926l8.282 20.65h-14.884l6.602-20.65zm-7.058-.33l-6.042 19.378-15.102-19.378h21.144zm-14.072 20.98h-31.15l15.576-19.814 15.574 19.814zm-24.078-20.98l-15.1 19.378-6.044-19.378h21.144zm-28.202.33l6.602 20.65h-14.884l8.282-20.65zm-6.632 27.244h16.126l16.454 37.538-32.58-37.538zm23.326 0H-577.538l-20.01 45.652-20.012-45.652zm30.768 37.54l16.454-37.538h16.126l-32.58 37.538z"/><path fill="#D32F2F" d="M-259.607 307.61v142.084c0 4.634-3.724 8.332-8.282 8.332h-157.396c-4.608 0-8.28-3.698-8.28-8.332V266.36c0-4.584 3.698-8.334 8.28-8.334h116.408l49.27 49.584z"/><path fill="#FFF" d="M-297.122 332.647c.579.149 1.173.25 1.734.453 1.728.628 2.294 2.07 2.253 3.887-.056 2.523-.229 5.022-.936 7.483-1.308 4.549-4.118 7.567-8.195 9.358-2.871 1.261-5.893 1.72-8.935 2.076-2.098.243-4.193.535-6.287.821-.28.038-.561.149-.823.272-1.119.519-1.41 1.537-.582 2.444a21.79 21.79 0 0 0 2.803 2.557c3.754 2.883 7.615 5.62 11.301 8.595 4.167 3.362 7.819 7.291 10.595 12.06 2.726 4.684 4.108 9.788 3.925 15.378-.048 1.475-.722 2.326-2.111 2.396-2.159.107-4.32.123-6.479.143-2.682.024-5.362.014-8.044.02-2.732.004-5.466.002-8.201.012-1.952.006-3.905.032-5.857.034a18.846 18.846 0 0 1-1.714-.072c-2.436-.213-3.34-1.159-3.585-3.744-.35-3.664-.907-7.263-2.306-10.649-2.35-5.696-6.167-9.981-11.098-13.207-4.259-2.785-8.891-4.531-13.923-4.972-4.961-.436-9.579.553-13.287 4.575-2.241 2.43-3.477 5.428-4.342 8.621-.392 1.445-.734 2.905-1.165 4.336-.491 1.626-1.811 1.96-3.147 2.006-2.916.098-5.831.098-8.746.125-2.682.024-5.362.028-8.044.042-2.473.014-4.947.052-7.418.03-.646-.006-1.294-.153-1.924-.308-.935-.227-1.314-.779-1.261-1.781.328-6.092 2.74-11.054 7.364-14.82 3.811-3.102 8.145-5.034 12.694-6.352 4.315-1.251 8.696-2.227 13.042-3.356 1.219-.316 2.443-.656 3.614-1.135 1.873-.767 2.179-2.022.7-3.4-1.419-1.326-3.006-2.479-4.623-3.529-4.352-2.825-8.839-5.428-12.798-8.873-4.062-3.535-7.462-7.615-9.315-12.969-.974-2.817-1.38-5.744-1.374-8.754 0-1.155.557-2.05 1.783-2.34a21.873 21.873 0 0 1 4.406-.573c3.332-.09 6.664-.052 9.996-.058 2.682-.004 5.364.01 8.044.008 1.98 0 3.958-.02 5.937-.016.909.002 1.819.046 2.73.066 1.533.034 2.197.543 2.491 2.141.348 1.889.584 3.803.885 5.704 1.078 6.814 3.632 12.766 8.76 17.178 3.527 3.036 7.639 4.449 12.194 4.646 2.382.102 4.744.068 7.046-.751 3.547-1.261 5.269-4.096 4.937-8.018-.151-1.813-.272-3.63-.382-5.447-.074-1.235.312-1.982 1.469-2.207 1.451-.284 2.946-.38 4.418-.403 2.942-.042 5.883.03 8.824.044 2.68.01 5.362-.01 8.042.012 1.638.012 3.273.074 4.911.114.002.033.004.065.004.097"/><path fill="#D32F2F" d="M-37.745 307.61v142.084c0 4.624-3.75 8.332-8.334 8.332h-158.332a8.304 8.304 0 0 1-8.334-8.332V266.36c0-4.584 3.708-8.334 8.334-8.334h117.124l49.542 49.584z"/><g fill="#FFF"><path d="M-115.129 437.7s-.022-23.724 0-30.064c0-.318-.008-.636 0-.952.07-3.12 1.69-4.742 4.84-4.752 6.614-.02 13.226 0 19.84 0 5.562 0 8.37-2.794 8.372-8.35.002-22.692-.008-45.384.008-68.078.002-3.048-1.018-5.546-3.796-6.986-1.046-.542-2.326-.878-3.502-.88a23363.06 23363.06 0 0 0-72.018-.05c-3.896.002-6.908 3.018-7.108 6.962-.046.904-.01 1.812-.01 2.718v66.582c0 5.096 3.012 8.082 8.12 8.08 11.776-.006 35.328-.002 35.328-.002v9.812s-23.946-.008-36.04.008c-2.722.002-5.344-.46-7.734-1.76-5.898-3.212-9.34-8.042-9.346-14.932-.024-23.372.092-46.744-.07-70.114-.05-7.154 5.04-15.584 14.712-17.022a18.82 18.82 0 0 1 2.704-.2c23.916-.024 47.83-.042 71.746-.05 9-.004 16.8 7.706 16.812 16.718.034 23.462.034 46.924.006 70.388-.012 9.346-7.282 17.056-16.64 17.254-4.708.098-9.422.056-14.13.014-1.088-.01-2.122 1.36-2.122 1.36l-9.972 24.296z"/><path d="M-141.491 347.286v2.236c.002 11.594.006 23.186.006 34.778 0 1.808-.004 1.814-1.772 1.814-3.432.004-6.864.002-10.436.002-.036-.67-.09-1.194-.09-1.716-.004-16.03.014-32.062-.03-48.092-.004-1.318.376-1.672 1.672-1.656 5.432.068 10.868.076 16.302-.008 1.324-.02 1.76.446 2.066 1.66 2.618 10.354 5.304 20.69 7.972 31.032.12.466.272.922.734 1.436.158-.416.358-.824.47-1.252 2.75-10.552 5.506-21.1 8.212-31.664.244-.948.66-1.198 1.582-1.194 5.616.016 11.23.01 16.844-.068 1.212-.016 1.53.366 1.528 1.544-.034 16.168-.034 32.334.002 48.5.004 1.182-.31 1.582-1.52 1.548-3.214-.092-6.43-.056-9.644-.082-.398-.004-.792-.07-1.36-.124v-38.544l-.38-.072c-.148.432-.32.86-.442 1.3-3.336 12.034-6.678 24.068-9.978 36.114-.276 1.008-.706 1.394-1.766 1.36-2.398-.074-4.802-.08-7.2-.002-1.094.036-1.586-.296-1.884-1.388-3.3-12.09-6.654-24.168-9.996-36.246-.116-.42-.266-.832-.4-1.248a20.3 20.3 0 0 1-.492.032"/></g><path fill="#A0F" d="M-727.133 307.611v142.084c0 4.624-3.75 8.332-8.334 8.332h-158.332a8.304 8.304 0 0 1-8.334-8.332V266.361c0-4.584 3.708-8.334 8.334-8.334h117.124l49.542 49.584z"/><path fill="#FFF" d="M-861.69 328.777c4.416-.768 11.04-1.344 17.856-1.344 9.314 0 15.65 1.536 19.972 5.184 3.55 2.976 5.568 7.488 5.568 12.962 0 8.352-5.666 14.016-11.714 16.224v.29c4.608 1.726 7.394 6.238 9.024 12.48 2.018 8.064 3.744 15.554 5.09 18.05h-12.194c-.96-1.92-2.496-7.202-4.32-15.266-1.824-8.45-4.896-11.136-11.616-11.328h-5.954v26.594h-11.712v-63.846zm11.712 28.61h7.01c7.968 0 12.96-4.224 12.96-10.656 0-7.104-4.992-10.37-12.674-10.37-3.744 0-6.144.288-7.296.576v20.45zM-807.067 328.777c4.224-.768 10.08-1.344 18.048-1.344 8.642 0 14.978 1.824 19.108 5.28 3.84 3.168 6.336 8.256 6.336 14.306 0 6.144-1.92 11.232-5.57 14.688-4.704 4.704-12.096 6.914-20.448 6.914-2.21 0-4.224-.096-5.762-.386v24.388h-11.712v-63.846zm11.712 30.146c1.442.384 3.362.48 5.762.48 8.832 0 14.208-4.32 14.208-11.904 0-7.202-4.992-11.042-13.154-11.042-3.264 0-5.568.288-6.816.576v21.89z"/><path fill="#7757BC" d="M-727.133 565.636V707.72c0 4.624-3.75 8.332-8.334 8.332h-158.332a8.304 8.304 0 0 1-8.334-8.332V524.386c0-4.584 3.708-8.334 8.334-8.334h117.124l49.542 49.584z"/><path fill="#FFF" d="M-847.965 629.199l-5.408 17.81h-11.842l20.142-62.846h14.64l20.42 62.846h-12.31l-5.686-17.81h-19.956zm17.996-8.67l-4.942-15.48c-1.212-3.822-2.238-8.112-3.17-11.748h-.186c-.932 3.636-1.866 8.02-2.984 11.748l-4.85 15.48h16.132zM-794.821 627.52c.28 8.206 6.714 11.75 13.986 11.75 5.316 0 9.14-.746 12.588-2.052l1.678 7.926c-3.914 1.586-9.322 2.798-15.85 2.798-14.732 0-23.404-9.046-23.404-22.94 0-12.586 7.646-24.428 22.192-24.428 14.732 0 19.58 12.122 19.58 22.098 0 2.146-.186 3.824-.372 4.848h-30.398zm19.954-8.018c.096-4.196-1.772-11.096-9.416-11.096-7.086 0-10.07 6.434-10.538 11.096h19.954z"/><path fill="#009497" d="M-511.112 565.637v142.084c0 4.624-3.75 8.332-8.335 8.332h-158.332a8.304 8.304 0 0 1-8.334-8.332V524.387c0-4.584 3.708-8.334 8.334-8.334h117.124l49.543 49.584z"/><path fill="#FFF" d="M-598.611 566.655l32.849 40.88v57.67h21.9v-69.35zM-653.361 665.205h21.899v-57.67l32.851-40.88-54.75 29.2z"/><path fill="#FFF" d="M-598.611 662.285l22.629-24.554-22.629-71.076-23.361 71.076z"/><path fill="#D32F2F" d="M-727.133 823.662v142.084c0 4.624-3.75 8.332-8.334 8.332h-158.332a8.304 8.304 0 0 1-8.334-8.332V782.412c0-4.584 3.708-8.334 8.334-8.334h117.124l49.542 49.584z"/><path fill="#FFF" d="M-793.495 897.968h-42.28V855.69h42.28v42.278zm8-50.278h-58.28v58.278h58.28V847.69z"/><path fill="#FFF" d="M-822.208 869.254h15.15v15.15h-15.15zM-819.562 820.338h9.856v29.25h-9.856zM-819.562 903.92h9.856v29.4h-9.856zM-788.301 871.9h30.158v9.856h-30.158zM-871.125 871.9h29.492v9.856h-29.492z"/><path fill="#03A9F4" d="M-37.745 823.661v142.084c0 4.624-3.75 8.332-8.334 8.332h-158.332a8.304 8.304 0 0 1-8.334-8.332V782.411c0-4.584 3.708-8.334 8.334-8.334h117.124l49.542 49.584z"/><path fill="#FFF" d="M-125.245 930.47l-49.5-27.692v-54.016l49.5-23.076 49.5 23.076v54.016l-49.5 27.692zm-40.5-32.97l40.5 22.658 40.5-22.658v-43.004l-40.5-18.88-40.5 18.88V897.5z"/><path fill="#FFF" d="M-125.267 881.451l-47.176-26.392 4.394-7.856 42.824 23.958 42.816-23.478 4.328 7.892z"/><path fill="#FFF" d="M-125.245 929.814a4.502 4.502 0 0 1-4.5-4.5v-49.008c0-2.484 2.016-4.5 4.5-4.5s4.5 2.016 4.5 4.5v49.008c0 2.484-2.016 4.5-4.5 4.5"/><path fill="#546E7A" d="M-270.478 823.661v142.084c0 4.624-3.75 8.332-8.334 8.332h-158.332a8.304 8.304 0 0 1-8.334-8.332V782.411c0-4.584 3.708-8.334 8.334-8.334h117.124l49.542 49.584z"/><path fill="#FFF" d="M-301.454 881.876c-.66-7.46-2.24-13.22-5-18.12-2.88-5.12-6.56-8.7-11.22-11-4.46-2.18-9.44-3.54-16.18-4.4-6.22-.8-12.78-1.02-20.98-.66-3.18.14-6.9.34-10.48.92-3.74.58-6.44 1.26-8.8 2.22-5 2.06-8.96 5.96-12.12 11.96-1.84 3.48-2.92 7.62-3.32 12.64-.58 7.4-.22 12.98 1.14 18.1.76 2.82 1.86 5.02 3.36 6.72 3.62 4.08 8.42 6.76 15.54 8.7 2.48.68 5.06 1.04 7.28 1.3 6.22.76 11.32.46 16.12-.96 5.34-1.58 10.2-3.9 14.48-6.92 2.18-1.54 4.24-3.42 6.12-5.22.62-.6.74-.76-.04-1.78-2.24-2.94-5.3-5.4-9.34-7.58-2.72-1.44-5.42-2.08-8.36-1.94-4.04.18-7.8.24-11.52.14-2.64-.06-5.18-.12-7.52-.9-3.14-1.04-6.12-2.64-8.98-4.2-1.84-.98-3.28-2.24-4.48-3.36-.48-.44-1.1-1.14-1.06-2.04.04-.92.74-1.58 1.34-2.04 1.06-.82 2.16-1.58 3.26-2.3l1.94-1.28c2.44-1.58 4.94-3.2 7.5-4.72l.66-.38c2.14-1.28 4.36-2.6 6.78-3.34 3.52-1.08 7.18-1.22 9.98-1.22.7 0 1.38 0 2.08.02 4.78.1 9.08.9 13.1 2.44 3.44 1.32 6.36 3.18 8.68 5.52 4.54 4.56 7.1 10.58 7.8 18.46.5 5.4.26 10.76-.7 15.88-.4 2.12-1.14 4.22-1.88 6.2-1.08 2.94-3.36 4.9-5.42 6.52-1.54 1.22-3.04 2.08-4.48 2.6-2.94 1.04-5.6 1.76-8.16 2.24l-.66.12c-4.16.78-8.46 1.58-12.76 1.88-4.16.26-8.6.38-14.34.38-1.44 0-2.86 0-4.3-.02-7.74-.06-13.9-1.06-19.36-3.16-3.74-1.42-6.76-3.68-9.02-6.72-2.62-3.54-4.36-7.84-5.16-12.8-1.16-7.24-1.84-12.82-2.24-18.1-.62-8.08.14-15.64 2.28-22.44.74-2.4 1.86-4.8 3.3-7.12 1.68-2.68 4.08-4.98 7.18-6.82 3.38-2.02 7.22-3.32 12.44-4.2 1.5-.26 3.02-.44 4.54-.62.92-.12 1.84-.22 2.76-.36 1.84-.24 3.68-.52 5.52-.78 3.3-.48 6.6-.96 9.9-1.38 5.14-.64 10.2-.72 14.04-.72 2.2 0 4.4.02 6.62.06l1.04.02c3.28.04 6.6.2 9.82.34 1.58.08 3.18.16 4.76.22h.4c0-.08 0-.18-.02-.32l-.76-6.14-.96-7.92-.16-.16c-.34 0-.66.06-.98.1-1.36.24-2.74.48-4.1.72-2.92.5-5.92 1.04-8.92 1.44-7.28.96-13.34 1.74-19.7 2.28l-3.96.32c-7.5.58-15.26 1.2-22.72 2.74-2.62.54-5.66 1.2-8.58 2.12-2.94.92-5.8 2.1-8.22 3.14-2.96 1.28-5.52 3.1-7.62 5.42-3.94 4.36-6.66 9.78-8.58 17.06-1.36 5.22-2.02 10.96-2.12 18.58-.08 8.3.94 16.68 3.14 25.58 1.82 7.34 4.02 13.02 6.92 17.94 2.08 3.5 4.48 6.08 7.32 7.88 3.72 2.38 7.02 3.8 10.38 4.5l2.3.5c2.96.64 6.02 1.32 9.02 1.6 4.24.38 8.58.56 12.78.72l4.4.18.02-.3h.96c1.2 0 2.4.02 3.6.04 2.6.02 5.2.06 7.8-.08 7.2-.4 14.8-1.02 21.92-3.64 2.36-.88 4.84-1.88 6.86-3.3 2.58-1.84 4.98-4.08 7.3-6.24l.56-.54c4.8-4.48 7.56-10.12 8.16-16.72.719-7.88.739-15.78.08-23.5m-55.48 20.6c.04-.44.1-.88.2-1.3.58-2.4 1.16-4.82 1.8-7.2.2-.76.54-2.04 1.98-2.04.3 0 .62.06 1.16.18 4.3 1.06 8.62 2.12 12.94 3.22.36.08.68.24.96.38l.96.44-.14 1.7-5.04 1.8c-3.94 1.38-7.86 2.74-11.8 4.1-.48.16-.96.22-1.4.28l-.52.06-1.32.22.22-1.84z"/><path fill="#FFF" d="M-347.522 864.836c-.42 1.08-.86 2.16-1.28 3.24-.62 1.54-1.24 3.1-1.84 4.66-.08.2-.1.22-.7.32-.06.02-.14.04-.22.04l-1.84-.38c-1.64-.34-3.26-.68-4.88-1.08-1.04-.24-2.06-.58-3.02-.92.76-.3 1.52-.6 2.28-.92 1.6-.64 3.18-1.28 4.78-1.96 1.34-.58 2.68-1.18 4.02-1.8.88-.4 1.759-.8 2.7-1.2"/><path fill="#009497" d="M-511.112 823.661v142.084c0 4.624-3.75 8.332-8.334 8.332h-158.332a8.304 8.304 0 0 1-8.334-8.332V782.411c0-4.584 3.708-8.334 8.334-8.334h117.124l49.542 49.584z"/><path fill="#FFF" d="M-552.069 924.62h-93.086v-93.086h93.086v93.086zm-89.086-4h85.086v-85.086h-85.086v85.086z"/><path fill="#FFF" d="M-603.973 833.534h49.904v49.904h-49.904z"/><path fill="#62BB37" d="M-283.089 1117.208v142.935c0 4.661-3.746 8.382-8.332 8.382H-449.76c-4.635 0-8.329-3.72-8.329-8.382v-184.432c0-4.611 3.72-8.384 8.329-8.384h117.105l49.566 49.881z"/><path fill="#FFF" d="M-397.739 1195.433c0 2.76 1.793 4.609 4.523 4.609h4.523v16.094c0 3.67 3.171 6.901 6.783 6.901 3.613 0 6.784-3.201 6.784-6.901v-16.094h9.074v16.094c0 3.67 3.173 6.901 6.785 6.901s6.785-3.201 6.785-6.901v-16.094h4.523c2.731 0 4.521-1.849 4.521-4.609v-45.99h-54.299v45.99zm-11.336-45.99c-3.641 0-6.784 3.201-6.784 6.901v32.188c0 3.67 3.173 6.901 6.784 6.901 3.612 0 6.785-3.201 6.785-6.901v-32.188c0-3.669-3.173-6.901-6.785-6.901m76.971 0c-3.611 0-6.783 3.201-6.783 6.901v32.188c0 3.67 3.171 6.901 6.783 6.901 3.613 0 6.785-3.201 6.785-6.901v-32.188c.029-3.669-3.144-6.901-6.785-6.901m-22.613-26.664l5.903-5.962c.911-.911.911-2.32 0-3.201-.91-.911-2.232-.911-3.171 0l-6.784 6.901c-3.171-2.292-7.253-3.201-11.776-3.201s-8.575.91-12.245 2.761l-6.344-6.931c-.881-.441-2.732-.441-3.614 0-.441.911-.441 2.761 0 3.672l5.903 5.962c-6.344 5.05-10.865 12.862-10.865 22.053h54.299c.002-9.163-4.55-17.445-11.306-22.054m-24.902 12.891h-4.523v-4.611h4.523v4.611zm22.612 0h-4.523v-4.611h4.523v4.611z"/><path fill="#ACACAC" d="M424.059 1372.535v142.084c0 4.624-3.75 8.332-8.334 8.332H257.393a8.304 8.304 0 0 1-8.334-8.332v-183.334c0-4.584 3.708-8.334 8.334-8.334h117.124l49.542 49.584z"/><path fill="#F6F4F4" d="M292.528 1390.832h88.062v12.848h-88.062zM292.528 1420.694h88.062v12.848h-88.062zM292.528 1450.557h61.644v12.846h-61.644z"/><path fill="#03A9F4" d="M189.035 1372.805v141.33c0 4.598-3.717 8.29-8.242 8.29H24.277c-4.573 0-8.242-3.693-8.242-8.29v-182.366c0-4.548 3.669-8.29 8.242-8.29H140.05l48.985 49.326z"/><path fill="#FFF" d="M154.855 1425.031c-.135 6.281-2.731 12.037-6.867 16.172-4.146 4.134-9.756 6.671-15.977 6.671h-11.048a34.074 34.074 0 0 0 5.939-9.161h5.11c7.404 0 13.513-6.098 13.685-13.818.159-7.513-5.953-13.439-13.685-13.671h-21.634c-3.049 0-5.89 1.036-8.209 2.793a13.78 13.78 0 0 0-3.292 3.536 14.142 14.142 0 0 0-2.318 7.476l-9.159-.135c.014-.817.074-1.634.183-2.427.817-6.462 4.281-12.145 9.245-15.866 3.806-2.854 8.501-4.548 13.55-4.548h21.634c12.476.269 23.11 10.269 22.843 22.978"/><path fill="#FFF" d="M50.217 1424.897c.135-6.281 2.731-12.036 6.866-16.172 4.146-4.134 9.756-6.671 15.977-6.671h11.048a34.074 34.074 0 0 0-5.939 9.161h-5.11c-7.404 0-13.513 6.098-13.685 13.818-.159 7.513 5.953 13.439 13.685 13.671h21.634c3.049 0 5.89-1.036 8.209-2.793a13.748 13.748 0 0 0 3.292-3.536 14.142 14.142 0 0 0 2.318-7.476l9.159.135a20.059 20.059 0 0 1-.183 2.427c-.817 6.462-4.281 12.145-9.245 15.866-3.806 2.854-8.501 4.548-13.55 4.548H73.06c-12.477-.27-23.111-10.27-22.843-22.978"/><path fill="#7757BC" d="M-270.302 1372.736v142.084c0 4.634-3.754 8.332-8.349 8.332h-158.657c-4.645 0-8.346-3.698-8.346-8.332v-183.334c0-4.584 3.727-8.334 8.346-8.334h117.341l49.665 49.584z"/><path fill="#FFF" d="M-329.502 1418.339v-17.866c0-3.066-2.28-5.109-5.71-5.109h-68.351c-3.405 0-5.71 2.042-5.71 5.109v51.006c0 3.066 2.278 5.108 5.71 5.108h68.377c3.405 0 5.71-2.042 5.71-5.108v-17.84l22.791 20.408v-56.114l-22.817 20.406z"/><path fill="#FF5722" d="M-727.133 1372.536v142.084c0 4.624-3.75 8.332-8.334 8.332h-158.332a8.304 8.304 0 0 1-8.334-8.332v-183.334c0-4.584 3.708-8.334 8.334-8.334h117.124l49.542 49.584z"/><path fill="#FFF" d="M-846.185 1428.188l24.53 27.062 33.552-46.552 38.612 62.062h-126.286zM-824.009 1397.281c0 8.444-6.844 15.288-15.288 15.288-8.442 0-15.288-6.844-15.288-15.288 0-8.444 6.846-15.288 15.288-15.288 8.444 0 15.288 6.844 15.288 15.288"/><path fill="#FDCA07" d="M-49.989 1373.223v142.084c0 4.624-3.75 8.332-8.334 8.332h-158.332a8.304 8.304 0 0 1-8.334-8.332v-183.334c0-4.584 3.708-8.334 8.334-8.334h117.124l49.542 49.584z"/><path fill="#FFF" d="M-149.751 1322.264h12.262v12.262h-12.262zM-149.751 1346.79h12.262v12.262h-12.262zM-149.751 1370.31h12.262v12.262h-12.262zM-149.751 1394.538h12.262v27.04h-12.262zM-137.488 1334.528h12.262v12.262h-12.262zM-137.488 1359.052h12.262v12.262h-12.262zM-137.488 1382.486h12.262v12.262h-12.262z"/><path fill="#FFF" d="M-143.62 1409.316h18.394v12.262h-18.394zM-122.754 1466.012l-4.324-33.834-21.932-.198-3.466 34.032c-.484 3.656 1.572 6.864 6.52 6.864h16.682c4.736 0 7.034-3.328 6.52-6.864zm-7.153-.326h-15.414v-6.292h15.414v6.292z"/><path fill="#FFED18" d="M661.333 1366.855h-78.974l-17.276-17.5h-61.24a8.76 8.76 0 0 0-8.76 8.761V1487.798c0 4.812 3.938 8.75 8.75 8.75h157.5c4.812 0 8.75-3.938 8.75-8.75v-112.193c0-4.812-3.937-8.75-8.75-8.75"/><path fill="#FDCA07" d="M670.083 1487.797c0 4.812-3.938 8.75-8.75 8.75h-157.5c-4.812 0-8.75-3.938-8.75-8.75v-93.984c0-4.812 3.938-8.75 8.75-8.75h157.5c4.812 0 8.75 3.938 8.75 8.75v93.984z"/><g font-family="'MicrosoftYaHei'" font-size="40"><text transform="translate(-1068.162 -200.859)">M</text><text transform="translate(-1029.082 -200.859)">A</text><text transform="translate(-1001.482 -200.859)">C</text></g><text transform="translate(-1053.282 -451.565)" font-family="'MicrosoftYaHei'" font-size="40">WIN</text><text transform="translate(-1177.083 76.999)" font-family="'MicrosoftYaHei'" font-size="40">图形／印刷</text><text transform="translate(-1257.083 367.517)" font-family="'MicrosoftYaHei'" font-size="40">产品／思维导图</text><text transform="translate(-1177.083 625.543)" font-family="'MicrosoftYaHei'" font-size="40">影视／广告</text><text transform="translate(-1057.082 1159.597)" font-family="'MicrosoftYaHei'" font-size="40">代码</text><text transform="translate(-1057.082 1456.626)" font-family="'MicrosoftYaHei'" font-size="40">通用</text><text transform="translate(-1177.083 851.076)" font-family="'MicrosoftYaHei'" font-size="40">工业／建筑</text><path fill="#FF40B6" d="M-511.112 1372.235v142.935c0 4.661-3.746 8.382-8.332 8.382h-158.339c-4.636 0-8.329-3.72-8.329-8.382v-184.432c0-4.611 3.72-8.384 8.329-8.384h117.105l49.566 49.881z"/><path fill="#FFF" d="M-627.65 1382.881a2.611 2.611 0 0 0-2.62 2.62v67.198a15.833 15.833 0 0 0-7.911-2.096c-8.724 0-15.772 7.046-15.772 15.744s7.048 15.746 15.772 15.746 15.77-7.048 15.77-15.746c0-.627-.026-1.283-.105-1.859.079-.235.105-.497.105-.761v-55.277l55.251-9.744v38.248a15.854 15.854 0 0 0-7.911-2.096c-8.724 0-15.772 7.048-15.772 15.746s7.048 15.744 15.772 15.744 15.77-7.046 15.77-15.744c0-.63-.027-1.284-.105-1.861a2.43 2.43 0 0 0 .105-.758v-73.512c0-1.284 0-2.881-2.173-2.567-.447.05-66.176 10.975-66.176 10.975"/><path fill="#29D3B2" d="M-727.133 1117.509v142.083c0 4.625-3.75 8.333-8.333 8.333H-893.8a8.304 8.304 0 0 1-8.333-8.333v-183.333c0-4.583 3.708-8.333 8.333-8.333h117.125l49.542 49.583z"/><g fill="#FFF"><path d="M-835.675 1128.081h1.562v7.812h-1.562c-5.836-.205-8.545 1.772-8.125 5.938v16.562c0 4.17-1.67 7.397-5 9.688 3.33 2.295 5 5.522 5 9.688v16.562c-.42 3.955 2.289 5.83 8.125 5.625h1.562v7.812h-1.562c-11.875.415-17.607-3.75-17.188-12.5v-16.875c.205-4.165-2.188-6.25-7.188-6.25h-.938v-7.812h.938c5 0 7.393-2.08 7.188-6.25v-16.562c-.419-9.375 5.313-13.853 17.188-13.438zM-795.467 1128.081h1.562c11.875-.415 17.602 4.062 17.188 13.438v16.562c0 4.17 2.393 6.25 7.188 6.25h1.25v7.812h-1.25c-4.795 0-7.188 2.085-7.188 6.25v16.875c.414 8.54-5.312 12.705-17.188 12.5h-1.562v-7.812h1.562c5.83.205 8.539-1.67 8.125-5.625v-16.562c0-4.165 1.664-7.393 5-9.688-3.336-2.29-5-5.518-5-9.688v-16.562c.414-4.165-2.295-6.143-8.125-5.938h-1.562v-7.812z"/></g><path fill="#29D3B2" d="M-511.112 1117.509v142.083c0 4.625-3.75 8.333-8.333 8.333h-158.333a8.304 8.304 0 0 1-8.333-8.333v-183.333c0-4.583 3.708-8.333 8.333-8.333h117.125l49.541 49.583z"/><ellipse fill="#FFF" cx="-598.612" cy="1131.989" rx="42.548" ry="12.063"/><path fill="#FFF" d="M-598.612 1168.058c36.612 0 43.5-12.899 43.5-12.899v-17.676s-5.167 12.11-43.5 12.11-43.5-12.11-43.5-12.11v17.676s6.888 12.899 43.5 12.899z"/><path fill="#FFF" d="M-598.612 1191.992c36.612 0 43.5-12.899 43.5-12.899v-17.676s-5.167 12.11-43.5 12.11-43.5-12.11-43.5-12.11v17.676s6.888 12.899 43.5 12.899z"/><path fill="#FFF" d="M-598.612 1215.926c36.612 0 43.5-12.899 43.5-12.899v-17.676s-5.167 12.11-43.5 12.11-43.5-12.11-43.5-12.11v17.676s6.888 12.899 43.5 12.899z"/><path fill="#03A9F4" d="M-49.989 1117.509v142.083c0 4.625-3.75 8.333-8.333 8.333h-158.333a8.304 8.304 0 0 1-8.333-8.333v-183.333c0-4.583 3.708-8.333 8.333-8.333H-99.53l49.541 49.583z"/><path fill="#FFF" d="M-162.787 1170.767c.344 20.488 16.447 28.926 31.6 28.926 12.601 0 20-2.805 26.25-6.055l2.582 10.848c-5.332 3.402-11.332 6.916-29.916 6.916-29.999 0-44.979-18.43-44.979-42.014 0-25.137 18.807-44.938 43.084-44.938 27.205 0 36.437 23.932 36.437 39.256 0 3.1-.346 5.51-.518 7.061h-64.54zm50.422-10.848c.174-9.643-5.959-24.621-23.006-24.621-15.324 0-26.039 14.117-27.244 24.621h50.25z"/><path fill="#3F7AD9" d="M-727.133-505.471l-42.456.386c-4.005 0-7.252-3.829-7.252-8.552v-41.417"/><path fill="#D46B1C" d="M-270.478-505.471l-42.456.386c-4.005 0-7.252-3.829-7.252-8.552v-41.417"/><path fill="#58A138" d="M-492.467-505.667l-42.456.386c-4.005 0-7.252-3.829-7.252-8.552v-41.417"/><path fill="#2FB69A" d="M-49.989-505.471l-42.456.386c-4.005 0-7.252-3.829-7.252-8.552v-41.417"/><path fill="#3F7AD9" d="M175-505.666l-42.456.386c-4.005 0-7.252-3.829-7.252-8.552v-41.417"/><path fill="#718BC8" d="M646.989-505.472v142.084c0 4.624-3.75 8.332-8.334 8.332H480.323a8.304 8.304 0 0 1-8.334-8.332v-183.334c0-4.584 3.708-8.334 8.334-8.334h117.124l49.542 49.584z"/><path fill="#FFF" d="M609.489-455.056c0 27.614-22.386 50-50 50s-50-22.386-50-50 22.386-50 50-50 50 22.387 50 50"/><path fill="#718BC8" d="M574.072-455.056c0 8.054-6.53 14.584-14.584 14.584-8.054 0-14.582-6.53-14.582-14.584 0-8.054 6.528-14.584 14.582-14.584 8.054.001 14.584 6.531 14.584 14.584"/><path fill="#6479AB" d="M646.989-505.471l-42.456.386c-4.005 0-7.252-3.829-7.252-8.552v-41.417"/><path fill="#D46B1C" d="M-727.058-238.642l-42.456.386c-4.005 0-7.252-3.829-7.252-8.552v-41.417"/><path fill="#4A5BD7" d="M-727.058 49.869l-42.456.386c-4.005 0-7.252-3.829-7.252-8.552V.286"/><path fill="#58A138" d="M-492.467-238.642l-42.456.386c-4.005 0-7.252-3.829-7.252-8.552v-41.417"/><path fill="#3F7AD9" d="M-259.087-238.635l-42.456.386c-4.005 0-7.252-3.829-7.252-8.552v-41.417"/><path fill="#6479AB" d="M-37.745-238.635l-42.456.386c-4.005 0-7.252-3.829-7.252-8.552v-41.417"/><path fill="#D46B1C" d="M-511.029 49.392l-42.456.386c-4.005 0-7.252-3.829-7.252-8.552V-.191"/><path fill="#8C1DCD" d="M-511.031 307.419l-42.456.386c-4.005 0-7.252-3.829-7.252-8.552v-41.417M-727.143 307.419l-42.456.386c-4.005 0-7.252-3.829-7.252-8.552v-41.417"/><path fill="#624A97" d="M-727.143 565.438l-42.456.386c-4.005 0-7.252-3.829-7.252-8.552v-41.417M-270.302 1372.735l-42.456.386c-4.005 0-7.252-3.829-7.252-8.552v-41.417"/><path fill="#DCAE29" d="M-49.989 1373.221l-42.456.386c-4.005 0-7.252-3.829-7.252-8.552v-41.417"/><path fill="#0F797A" d="M-511.112 565.636l-42.456.386c-4.005 0-7.252-3.829-7.252-8.552v-41.417M-511.028 823.471l-42.456.386c-4.005 0-7.252-3.829-7.252-8.552v-41.417"/><path fill="#475A63" d="M-270.487 823.469l-42.456.386c-4.005 0-7.252-3.829-7.252-8.552v-41.417"/><path fill="#1993D0" d="M-37.745 823.661l-42.456.386c-4.005 0-7.252-3.829-7.252-8.552v-41.417M-49.989 1117.509l-42.456.386c-4.005 0-7.252-3.829-7.252-8.552v-41.417"/><path fill="#5BA23A" d="M-283.089 1117.509l-42.456.386c-4.005 0-7.252-3.829-7.252-8.552v-41.417"/><path fill="#2FB69A" d="M-511.028 1117.509l-42.456.386c-4.005 0-7.252-3.829-7.252-8.552v-41.417M-727.133 1117.509l-42.456.386c-4.005 0-7.252-3.829-7.252-8.552v-41.417"/><path fill="#DC4C29" d="M-727.133 1372.535l-42.456.386c-4.005 0-7.252-3.829-7.252-8.552v-41.417"/><path fill="#DC3F9D" d="M-511.028 1373.024l-42.456.386c-4.005 0-7.252-3.829-7.252-8.552v-41.417"/><path fill="#1993D0" d="M190.035 1372.343l-42.456.386c-4.005 0-7.252-3.829-7.252-8.552v-41.417"/><path fill="#969594" d="M424.059 1372.221l-42.456.386c-4.005 0-7.252-3.829-7.252-8.552v-41.417"/><path fill="#D46B1C" d="M-259.09 49.593l-42.456.386c-4.005 0-7.252-3.829-7.252-8.552V.01"/><path fill="#9E176D" d="M-37.745 49.869l-42.456.386c-4.005 0-7.252-3.829-7.252-8.552V.286"/><path fill="#AD282B" d="M175.079 49.869l-42.456.386c-4.005 0-7.252-3.829-7.252-8.552V.286"/><path fill="#9E176D" d="M175.079 307.419l-42.456.386c-4.005 0-7.252-3.829-7.252-8.552v-41.417"/><path fill="#AD282B" d="M-37.745 307.419l-42.456.386c-4.005 0-7.252-3.829-7.252-8.552v-41.417M-259.09 307.419l-42.456.386c-4.005 0-7.252-3.829-7.252-8.552v-41.417M-727.133 823.661l-42.456.386c-4.005 0-7.252-3.829-7.252-8.552v-41.417"/><g><path fill="#718BC8" d="M399.989-505.397v142.084c0 4.624-3.75 8.332-8.334 8.332H233.323a8.304 8.304 0 0 1-8.334-8.332v-183.334c0-4.584 3.708-8.334 8.334-8.334h117.124l49.542 49.584z"/><path fill="#FFF" d="M362.489-468.981c0 27.614-22.386 50-50 50s-50-22.386-50-50 22.386-50 50-50 50 22.387 50 50"/><path fill="#718BC8" d="M327.072-468.981c0 8.054-6.53 14.584-14.584 14.584-8.054 0-14.582-6.53-14.582-14.584 0-8.054 6.528-14.584 14.582-14.584 8.054 0 14.584 6.53 14.584 14.584"/><path opacity=".2" fill="#231815" d="M350.447-513.731v-41.25l49.542 49.583H358.78c-4.583 0-8.333-3.75-8.333-8.333z"/><g fill="#FFF"><path d="M278.251-387.801c.172 5.043 4.127 7.221 8.597 7.221 3.266 0 5.617-.459 7.738-1.26l1.031 4.871c-2.407.973-5.731 1.719-9.743 1.719-9.055 0-14.385-5.559-14.385-14.098 0-7.738 4.7-15.016 13.64-15.016 9.055 0 12.036 7.451 12.036 13.582 0 1.32-.115 2.35-.229 2.982h-18.685zm12.265-4.931c.057-2.578-1.089-6.82-5.789-6.82-4.356 0-6.19 3.955-6.476 6.82h12.265zM307.073-403.736l3.324 5.275a119.98 119.98 0 0 1 2.522 4.297h.172c.802-1.547 1.605-2.98 2.408-4.412l3.094-5.16h7.68l-9.342 13.412 9.514 14.5h-7.967l-3.439-5.559c-.917-1.49-1.719-2.98-2.522-4.527h-.115c-.802 1.605-1.604 2.98-2.522 4.527l-3.21 5.559h-7.794l9.685-14.213-9.342-13.699h7.854zM334.575-387.801c.172 5.043 4.127 7.221 8.597 7.221 3.266 0 5.617-.459 7.738-1.26l1.031 4.871c-2.407.973-5.731 1.719-9.743 1.719-9.055 0-14.385-5.559-14.385-14.098 0-7.738 4.7-15.016 13.64-15.016 9.055 0 12.036 7.451 12.036 13.582 0 1.32-.115 2.35-.23 2.982h-18.684zm12.265-4.931c.057-2.578-1.089-6.82-5.789-6.82-4.356 0-6.19 3.955-6.476 6.82h12.265z"/></g></g></svg>