<?xml version="1.0" standalone="no"?><!DOCTYPE svg PUBLIC "-//W3C//DTD SVG 1.1//EN" "http://www.w3.org/Graphics/SVG/1.1/DTD/svg11.dtd"><svg t="1647878023515" class="icon" viewBox="0 0 1024 1024" version="1.1" xmlns="http://www.w3.org/2000/svg" p-id="2739" xmlns:xlink="http://www.w3.org/1999/xlink" width="25" height="25"><defs><style type="text/css">@font-face { font-family: feedback-iconfont; src: url("//at.alicdn.com/t/font_1031158_u69w8yhxdu.woff2?t=1630033759944") format("woff2"), url("//at.alicdn.com/t/font_1031158_u69w8yhxdu.woff?t=1630033759944") format("woff"), url("//at.alicdn.com/t/font_1031158_u69w8yhxdu.ttf?t=1630033759944") format("truetype"); }
</style></defs><path d="M1023.795 853.64v6.348a163.807 163.807 0 0 1-163.807 163.807h-696.18A163.807 163.807 0 0 1 0 859.988v-696.18A163.807 163.807 0 0 1 163.807 0h696.181a163.807 163.807 0 0 1 163.807 163.807V853.64z" fill="#009FE9" p-id="2740"></path><path d="M844.836 648.267c-40.952-14.333-95.623-34.809-156.846-57.128a949.058 949.058 0 0 0 90.094-222.573H573.325V307.14h245.711v-43.41l-245.71 2.458V143.33H472.173c-18.223 0-21.704 20.476-21.704 20.476v102.38H204.759v40.952h245.71v61.427H245.712v40.952h409.518a805.522 805.522 0 0 1-64.909 148.246c-128.384-42.795-266.186-77.604-354.233-55.08a213.564 213.564 0 0 0-112.003 63.27c-95.418 116.917-26.21 294.034 175.274 294.034 119.989 0 236.087-67.366 325.771-177.73 134.322 65.932 398.666 176.297 398.666 176.297V701.3s-32.352-4.095-178.96-53.033z m-563.702 144.97c-158.893 0-204.759-124.699-126.336-194.112a191.86 191.86 0 0 1 90.913-46.276c93.575-10.238 189.811 35.629 293.624 86.614-74.941 94.598-166.674 153.774-258.2 153.774z" fill="#FFFFFF" p-id="2741"></path></svg>