<?xml version="1.0" standalone="no"?><!DOCTYPE svg PUBLIC "-//W3C//DTD SVG 1.1//EN" "http://www.w3.org/Graphics/SVG/1.1/DTD/svg11.dtd"><svg t="1647878427593" class="icon" viewBox="0 0 1024 1024" version="1.1" xmlns="http://www.w3.org/2000/svg" p-id="7978" xmlns:xlink="http://www.w3.org/1999/xlink" width="25" height="25"><defs><style type="text/css">@font-face { font-family: feedback-iconfont; src: url("//at.alicdn.com/t/font_1031158_u69w8yhxdu.woff2?t=1630033759944") format("woff2"), url("//at.alicdn.com/t/font_1031158_u69w8yhxdu.woff?t=1630033759944") format("woff"), url("//at.alicdn.com/t/font_1031158_u69w8yhxdu.ttf?t=1630033759944") format("truetype"); }
</style></defs><path d="M449.28 241.002667H738.133333c155.093333 0 213.461333 78.506667 204.458667 194.005333-14.869333 190.442667-130.005333 295.744-282.730667 295.744h-77.098666c-20.906667 0-35.008 13.824-40.704 51.413333l-33.066667 218.325334c-2.154667 14.165333-9.6 22.506667-20.821333 23.509333h-181.12c-17.045333 0-23.104-13.034667-18.645334-41.28l110.613334-700.288c4.416-28.074667 19.776-41.429333 50.282666-41.429333z" fill="#009DE2" p-id="7979"></path><path d="M268.714667 0H557.866667c81.450667 0 178.026667 2.645333 242.645333 59.626667 43.157333 38.058667 65.792 98.709333 60.586667 163.84C843.306667 444.202667 711.253333 567.893333 534.186667 567.893333h-142.613334c-24.277333 0-40.362667 16.064-47.210666 59.626667l-39.786667 253.141333c-2.56 16.426667-9.706667 26.112-22.698667 27.264H103.765333c-19.754667 0-26.773333-15.104-21.610666-47.850666L210.410667 48.042667C215.530667 15.488 233.344 0 268.714667 0z" fill="#113984" p-id="7980"></path><path d="M348.522667 602.005333l50.496-319.573333c4.416-28.074667 19.776-41.429333 50.282666-41.429333H738.133333c47.808 0 86.442667 7.466667 116.714667 21.226666-29.013333 196.48-156.096 305.664-322.538667 305.664H389.76c-18.773333 0-32.789333 9.6-41.216 34.112z" fill="#172C70" p-id="7981"></path></svg>