<?xml version="1.0" standalone="no"?><!DOCTYPE svg PUBLIC "-//W3C//DTD SVG 1.1//EN" "http://www.w3.org/Graphics/SVG/1.1/DTD/svg11.dtd"><svg t="1647878111136" class="icon" viewBox="0 0 1024 1024" version="1.1" xmlns="http://www.w3.org/2000/svg" p-id="6974" xmlns:xlink="http://www.w3.org/1999/xlink" width="25" height="25"><defs><style type="text/css">@font-face { font-family: feedback-iconfont; src: url("//at.alicdn.com/t/font_1031158_u69w8yhxdu.woff2?t=1630033759944") format("woff2"), url("//at.alicdn.com/t/font_1031158_u69w8yhxdu.woff?t=1630033759944") format("woff"), url("//at.alicdn.com/t/font_1031158_u69w8yhxdu.ttf?t=1630033759944") format("truetype"); }
</style></defs><path d="M266.4448 795.5456c-20.0704-36.608-40.0896-73.1648-60.416-110.2848-13.568 16.384-26.1632 33.536-40.8064 48.7424-20.0704 20.8384-33.0752 16.5376-41.1648-11.5712-14.1824-49.4592-3.072-95.8464 20.1728-139.1616 15.7696-29.3888 35.1744-57.1392 55.5008-83.6096 9.9328-12.9536 14.7968-24.3712 14.08-40.8064-1.3824-32.2048 0.2048-64.0512 27.0336-88.7296 5.2736-4.864 4.7104-16.9472 5.376-25.8048C251.904 269.0048 271.872 198.7584 329.9328 146.944c76.8512-68.5568 166.912-89.5488 266.3424-60.2624 97.024 28.5696 156.3648 94.1056 180.5312 191.8976 2.3552 9.6256 3.6352 19.5072 5.4272 29.2352 5.2736 29.0304 4.4032 57.9584 24.7808 85.0432 12.7488 16.9472 8.0896 46.6944 12.5952 70.4512 2.0992 11.0592 4.8128 23.6544 11.6224 31.9488 36.7616 44.8 69.12 92.3648 78.7456 150.3232 4.352 26.1632 1.0752 54.4256-3.328 80.9984-3.9424 23.9104-19.6608 27.2384-37.2224 9.216-15.2576-15.6672-28.3648-33.3824-42.5472-50.2784-20.2752 36.9664-40.3456 73.472-60.5696 110.336 12.2368 8.8064 26.112 16.9984 37.8368 27.5456 41.6256 37.5808 32.256 95.6416-20.8384 112.5376-86.1696 27.392-169.4208 22.2208-246.3232-32.6144-9.5232-6.8096-32.5632-5.632-42.8032 1.3824-79.9232 54.6304-165.2736 59.8528-252.9792 27.8016-44.3904-16.1792-50.8416-71.5776-15.9744-105.8816 11.8784-11.6736 26.6752-20.2752 41.216-31.0784z" fill="#2595E8" p-id="6975"></path><path d="M831.2832 495.1552c-6.8096-8.2944-9.5232-20.8896-11.6224-31.9488-4.5056-23.7568 0.2048-53.4528-12.5952-70.4512-20.3776-27.0848-19.5072-56.0128-24.7808-84.992-1.792-9.7792-3.072-19.6608-5.4272-29.2352-24.1664-97.792-83.5072-163.2768-180.5312-191.8976-99.4304-29.2864-189.4912-8.2944-266.3424 60.2624C271.9232 198.7072 251.9552 268.9536 246.272 344.2688c-0.6656 8.8576-0.1024 20.9408-5.376 25.8048-26.8288 24.6784-28.416 56.5248-27.0336 88.7296 0.7168 16.4864-4.1472 27.8528-14.08 40.8064-20.3264 26.5216-39.7312 54.2208-55.5008 83.6096-23.2448 43.3152-34.3552 89.7024-20.1728 139.1616 8.0384 28.16 21.0944 32.4096 41.1648 11.5712 14.6432-15.2064 27.1872-32.3584 40.8064-48.7424 20.3264 37.12 40.3456 73.6768 60.416 110.2848-14.5408 10.8032-29.2864 19.4048-41.0624 30.976-17.6128 17.3056-24.6784 39.9872-21.6576 60.3136 26.2656 3.4816 52.992 5.2736 80.2304 5.2736 254.2592 0 472.0128-156.416 562.2784-378.2144-4.9152-6.2464-9.9328-12.4928-15.0016-18.688z" fill="#3A9CED" p-id="6976"></path><path d="M717.9264 161.2288c-30.464-34.5088-70.8096-59.648-121.6-74.5984-99.4304-29.2864-189.4912-8.2944-266.3424 60.2624C271.9232 198.7072 251.9552 268.9536 246.272 344.2688c-0.6656 8.8576-0.1024 20.9408-5.376 25.8048-26.8288 24.6784-28.416 56.5248-27.0336 88.7296 0.7168 16.4864-4.1472 27.8528-14.08 40.8064-20.3264 26.5216-39.7312 54.2208-55.5008 83.6096-15.9232 29.696-26.112 60.8256-26.4704 93.3376h0.1024c304.0768 0.0512 555.8784-223.5904 600.0128-515.328z" fill="#59ADF8" p-id="6977"></path><path d="M531.1488 74.5984c-73.8304-5.376-141.4656 19.0464-201.1136 72.2432C271.9232 198.7072 251.9552 268.9536 246.272 344.2688c-0.6656 8.8576-0.1024 20.9408-5.376 25.8048-11.9808 11.008-18.8928 23.4496-22.784 36.7104 142.7968-65.536 255.7952-184.9344 313.0368-332.1856z" fill="#6BC2FC" p-id="6978"></path></svg>