<?xml version="1.0" standalone="no"?><!DOCTYPE svg PUBLIC "-//W3C//DTD SVG 1.1//EN" "http://www.w3.org/Graphics/SVG/1.1/DTD/svg11.dtd"><svg t="1650742552721" class="icon" viewBox="0 0 1024 1024" version="1.1" xmlns="http://www.w3.org/2000/svg" p-id="1534" xmlns:xlink="http://www.w3.org/1999/xlink" width="25" height="25"><defs><style type="text/css">@font-face { font-family: feedback-iconfont; src: url("//at.alicdn.com/t/font_1031158_u69w8yhxdu.woff2?t=1630033759944") format("woff2"), url("//at.alicdn.com/t/font_1031158_u69w8yhxdu.woff?t=1630033759944") format("woff"), url("//at.alicdn.com/t/font_1031158_u69w8yhxdu.ttf?t=1630033759944") format("truetype"); }
</style></defs><path d="M510.85 511.04m-447.5 0a447.5 447.5 0 1 0 895 0 447.5 447.5 0 1 0-895 0Z" fill="#26A17B" p-id="1535"></path><path d="M783.54 486.55c0-42.01-102.97-66.63-218.61-72.47v-51.42h161.54V254.48H295.21v108.18h161.55v51.42c-115.63 5.84-218.61 30.47-218.61 72.47 0 41.99 102.97 66.61 218.61 72.45v208.6h108.18V559.01c115.63-5.84 218.6-30.47 218.6-72.46z m-218.61 54.46v-0.22c-17.67 1.08-36.06 1.44-54.09 1.44s-36.42-0.36-54.09-1.44v0.22c-125.5-6.34-200.58-33.94-200.58-54.46 0-20.51 75.07-48.13 200.58-54.47v90.68c17.31 1.08 35.34 1.44 54.09 1.44 19.11 0 37.14-0.36 54.09-1.44v-90.68c125.5 6.34 200.58 33.96 200.58 54.47 0 20.52-75.07 48.12-200.58 54.46z" fill="#FFFFFF" p-id="1536"></path></svg>