<svg width="37" height="32" viewBox="0 0 37 32" fill="none" xmlns="http://www.w3.org/2000/svg">
  <path d="M17.5802 3.08155C17.5802 2.35036 16.987 1.75702 16.2589 1.75702C15.5309 1.75702 14.9377 2.35171 14.9377 3.08155V25.0348C14.9377 26.7337 13.5586 28.1164 11.8639 28.1164C10.1693 28.1164 8.79008 26.7337 8.79008 25.0348V10.9503C8.79008 10.2191 8.19688 9.62575 7.46886 9.62575C6.74085 9.62575 6.14765 10.2204 6.14765 10.9503V16.9201C6.14765 18.619 4.76846 20.0016 3.07381 20.0016C1.37915 20.0016 0 18.619 0 16.9201V14.7563C0 14.2711 0.392318 13.8778 0.876312 13.8778C1.36031 13.8778 1.75262 14.2711 1.75262 14.7563V16.9201C1.75262 17.6513 2.34579 18.2446 3.07381 18.2446C3.80182 18.2446 4.39502 17.6499 4.39502 16.9201V10.9503C4.39502 9.25138 5.77421 7.86874 7.46886 7.86874C9.16352 7.86874 10.5427 9.25138 10.5427 10.9503V25.0348C10.5427 25.766 11.1359 26.3593 11.8639 26.3593C12.5919 26.3593 13.1851 25.7646 13.1851 25.0348V16.4227V3.08155C13.1851 1.38265 14.5643 0 16.2589 0C17.9536 0 19.3328 1.38265 19.3328 3.08155V21.2599C19.3328 21.7451 18.9405 22.1384 18.4565 22.1384C17.9725 22.1384 17.5802 21.7451 17.5802 21.2599V3.08155ZM33.8405 7.86874C32.1458 7.86874 30.7666 9.25138 30.7666 10.9503V22.7155C30.7666 23.4467 30.1734 24.0401 29.4454 24.0401C28.7174 24.0401 28.1242 23.4454 28.1242 22.7155V3.08155C28.1242 1.38265 26.745 0 25.0504 0C23.3557 0 21.9766 1.38265 21.9766 3.08155V28.0042C21.9766 28.7354 21.3834 29.3287 20.6553 29.3287C19.9273 29.3287 19.3341 28.734 19.3341 28.0042V24.9186C19.3341 24.4334 18.9418 24.0401 18.4578 24.0401C17.9738 24.0401 17.5815 24.4334 17.5815 24.9186V28.0042C17.5815 29.7031 18.9607 31.0857 20.6553 31.0857C22.35 31.0857 23.7292 29.7031 23.7292 28.0042V3.08155C23.7292 2.35036 24.3224 1.75702 25.0504 1.75702C25.7784 1.75702 26.3716 2.35171 26.3716 3.08155V22.7155C26.3716 24.4144 27.7508 25.7971 29.4454 25.7971C31.1401 25.7971 32.5193 24.4144 32.5193 22.7155V10.9503C32.5193 10.2191 33.1125 9.62575 33.8405 9.62575C34.5685 9.62575 35.1617 10.2204 35.1617 10.9503V21.2599C35.1617 21.7451 35.554 22.1384 36.038 22.1384C36.522 22.1384 36.9143 21.7451 36.9143 21.2599V10.9503C36.9143 9.25138 35.5351 7.86874 33.8405 7.86874Z" fill="url(#minimax-gradient)"/>
  <defs>
    <linearGradient id="minimax-gradient" x1="0" y1="15.5" x2="36.9143" y2="15.5" gradientUnits="userSpaceOnUse">
      <stop stop-color="#E21680"/>
      <stop offset="1" stop-color="#FF633A"/>
    </linearGradient>
  </defs>
</svg>
