<?xml version="1.0" standalone="no"?><!DOCTYPE svg PUBLIC "-//W3C//DTD SVG 1.1//EN" "http://www.w3.org/Graphics/SVG/1.1/DTD/svg11.dtd"><svg t="1595306911635" class="icon" viewBox="0 0 1024 1024" version="1.1" xmlns="http://www.w3.org/2000/svg" p-id="1352" width="48" height="48" xmlns:xlink="http://www.w3.org/1999/xlink"><defs><style type="text/css"></style></defs><path d="M924.8 337.6c-22.6-53.4-54.9-101.3-96-142.4s-89-73.4-142.4-96C631.1 75.9 572.5 64 512 64S392.9 75.9 337.6 99.2c-53.4 22.6-101.3 54.9-142.4 96-22.4 22.4-42.2 46.8-59.2 73.1V228c0-19.8-16.2-36-36-36s-36 16.2-36 36v288c0 19.8 16.2 36 36 36s36-16.2 36-36v-50.2c4.2-34.8 13.2-68.7 27-101.2 19.1-45.1 46.4-85.6 81.2-120.4C279 209.4 319.5 182 364.6 163c46.7-19.7 96.3-29.8 147.4-29.8 51.2 0 100.8 10 147.4 29.8 45.1 19.1 85.6 46.4 120.4 81.2C814.6 279 842 319.5 861 364.6c19.7 46.7 29.8 96.3 29.8 147.4 0 51.2-10 100.8-29.8 147.4-19.1 45.1-46.4 85.6-81.2 120.4C745 814.6 704.5 842 659.4 861c-46.7 19.7-96.3 29.8-147.4 29.8-64.6 0-128.4-16.5-184.4-47.8-54.4-30.4-100.9-74.1-134.6-126.6-10.3-16.1-31.7-20.8-47.8-10.4-16.1 10.3-20.8 31.7-10.4 47.8 39.8 62 94.8 113.7 159.1 149.6 66.2 37 141.7 56.6 218.1 56.6 60.5 0 119.1-11.9 174.4-35.2 53.4-22.6 101.3-54.9 142.4-96 41.1-41.1 73.4-89 96-142.4C948.1 631.1 960 572.5 960 512s-11.9-119.1-35.2-174.4z" p-id="1353" fill="#ffffff"></path><path d="M275.4 575.5c9.5-2.5 19.1 2.9 22.3 12.2 3.5 10.2 9.9 17.7 19.1 22.6 7.1 3.9 15.1 5.8 24 5.8 16.6 0 30.8-6.9 42.5-20.8 11.7-13.8 20-32.7 24.9-75.1-7.7 12.2-17.3 20.8-28.7 25.8-11.4 5-23.7 7.4-36.8 7.4-26.7 0-47.7-8.3-63.3-24.9-15.5-16.6-23.3-37.9-23.3-64.1 0-25.1 7.7-47.1 23-66.2 15.3-19 37.9-28.6 67.8-28.6 40.3 0 68.1 18.1 83.4 54.4 8.5 19.9 12.7 44.9 12.7 74.9 0 33.8-5.1 63.8-15.3 89.9-16.9 43.5-45.5 65.2-85.8 65.2-27 0-47.6-7.1-61.6-21.2-10-10.1-16.4-22-19.3-35.8-2-9.6 4-19.1 13.5-21.6l0.9 0.1z m103-74.4c9.4-7.5 14.1-20.6 14.1-39.3 0-16.8-4.2-29.3-12.7-37.5S360.6 412 347.5 412c-14 0-25.2 4.7-33.4 14.1-8.2 9.4-12.4 22-12.4 37.7 0 14.9 3.6 26.7 10.9 35.5 7.2 8.8 18.8 13.1 34.6 13.1 11.4 0 21.8-3.8 31.2-11.3zM646.6 414.4c12.4 22.8 18.5 54 18.5 93.7 0 37.6-5.6 68.7-16.8 93.3-16.2 35.3-42.8 52.9-79.6 52.9-33.2 0-57.9-14.4-74.2-43.3-13.5-24.1-20.3-56.4-20.3-97 0-31.4 4.1-58.4 12.2-80.9 15.2-42 42.7-63 82.5-63 35.9 0 61.8 14.8 77.7 44.3z m-40.2 173.3c9.4-13.9 14-39.9 14-78 0-27.4-3.4-50-10.1-67.7-6.8-17.7-19.9-26.6-39.4-26.6-17.9 0-31 8.4-39.3 25.2-8.3 16.8-12.4 41.6-12.4 74.3 0 24.6 2.6 44.4 7.9 59.4 8.1 22.8 22 34.3 41.6 34.3 15.7 0 28.3-7 37.7-20.9zM803.3 387.2c11.2 11.3 16.8 25 16.8 41.2 0 16.7-5.8 30.7-17.5 41.8C791 481.4 777.4 487 762 487c-17.1 0-31.2-5.8-42.1-17.4-10.9-11.6-16.4-25.1-16.4-40.6 0-16.5 5.8-30.4 17.3-41.7 11.5-11.3 25.3-17 41.2-17 16.3 0 30.1 5.7 41.3 16.9zM739.5 451c6.2 6.2 13.7 9.3 22.5 9.3 8.4 0 15.8-3.1 22.1-9.3 6.3-6.2 9.4-13.7 9.4-22.6 0-8.5-3.1-15.9-9.3-22.1-6.2-6.2-13.6-9.3-22.2-9.3s-16.1 3.1-22.4 9.3c-6.3 6.2-9.4 13.7-9.4 22.6-0.1 8.4 3 15.8 9.3 22.1z" p-id="1354" fill="#ffffff"></path></svg>
