<svg xmlns="http://www.w3.org/2000/svg" viewBox="0 0 356.99 419.8"><defs><style>.cls-1{fill:#ffa546;}.cls-2{fill:#ff6059;opacity:0.4;}.cls-3{fill:#426572;}.cls-4{fill:#ffd947;}</style></defs><title>Asset 91</title><g id="Layer_2" data-name="Layer 2"><g id="Layer_1-2" data-name="Layer 1"><path class="cls-1" d="M351,380.73v17.59a15.52,15.52,0,0,1-15.47,15.48H21.46A15.52,15.52,0,0,1,6,398.32V380.73a15.51,15.51,0,0,1,15.47-15.47H335.52A15.51,15.51,0,0,1,351,380.73Z"/><path class="cls-2" d="M351,406.85c0,3.95-7,7.19-15.47,7.19H21.46C13,414,6,410.8,6,406.85V380.73a15.51,15.51,0,0,1,15.47-15.47H37.66l3.44,25.27c0,4,7,7.2,15.47,7.2l283.72,12.44,7.38-2.28Z"/><path class="cls-3" d="M335.52,419.8H21.46A21.5,21.5,0,0,1,0,398.32V380.73a21.49,21.49,0,0,1,21.46-21.47H335.52A21.49,21.49,0,0,1,357,380.73v17.59a21.52,21.52,0,0,1-21.46,21.48ZM21.46,371.26A9.48,9.48,0,0,0,12,380.73v17.59a9.48,9.48,0,0,0,9.46,9.48H335.52a9.52,9.52,0,0,0,9.46-9.48V380.73a9.48,9.48,0,0,0-9.46-9.47Z"/><path class="cls-1" d="M247.93,138H233.23V41.7A35.7,35.7,0,0,0,197.53,6H159.45a35.7,35.7,0,0,0-35.7,35.7V138H109.06C80,138,61.84,169.48,76.37,194.64l34.72,60.13,30,52c16.6,28.76,58.12,28.76,74.72,0l30-52,34.72-60.13C295.14,169.48,277,138,247.93,138Z"/><path class="cls-2" d="M280.62,188l-34.73,60.13-30,52c-11.24,19.46-66.68,32.78-52.52,18.88,60.22-59.12,104.3-182.16,104.3-182.16A37.74,37.74,0,0,1,280.62,188Z"/><path class="cls-4" d="M192.3,6c-.22.23-.42.47-.63.72-38.92,45-18.36,116.49-42.85,170.71-10.14,22.45-29.18,41.51-52.15,49.48L78,194.64C63.52,169.48,81.67,138,110.72,138h14.7V41.7A35.7,35.7,0,0,1,161.12,6Z"/><path class="cls-3" d="M178.49,334.39h0a48.64,48.64,0,0,1-42.56-24.57L71.17,197.64A43.75,43.75,0,0,1,109.06,132h8.69V41.7A41.74,41.74,0,0,1,159.45,0h38.09a41.75,41.75,0,0,1,41.7,41.7V132h8.69a43.75,43.75,0,0,1,37.89,65.62L221,309.82A48.64,48.64,0,0,1,178.49,334.39ZM109.06,144a31.75,31.75,0,0,0-27.49,47.62l64.76,112.17a37.14,37.14,0,0,0,64.33,0l64.76-112.17A31.75,31.75,0,0,0,247.92,144H227.23V41.7A29.73,29.73,0,0,0,197.53,12H159.45a29.73,29.73,0,0,0-29.7,29.7V144Z"/></g></g></svg>