<svg xmlns="http://www.w3.org/2000/svg" viewBox="0 0 586.2 682.51"><defs><style>.cls-1{fill:#dfe7ea;}.cls-2{fill:#b0d7e9;}.cls-3{fill:#54b9d3;}.cls-4{fill:#f2c7a5;}.cls-20,.cls-5{opacity:0.5;}.cls-6{fill:#ffac89;}.cls-14,.cls-7{fill:none;stroke-miterlimit:10;stroke-width:10px;}.cls-7{stroke:#274b5b;}.cls-20,.cls-8{fill:#ef997b;}.cls-9{fill:#fcdac3;}.cls-10{fill:#fff;}.cls-11{fill:#274b5b;}.cls-12{fill:#3b535c;}.cls-13{fill:#d9edf4;}.cls-14{stroke:#42565e;stroke-linecap:round;}.cls-15{fill:#ebcbac;}.cls-16{fill:#d7ad8c;}.cls-17{fill:#3f565e;}.cls-18{fill:#f2dcca;}.cls-19{fill:#ce956e;}</style></defs><title>Asset 100</title><g id="Layer_2" data-name="Layer 2"><g id="Layer_1-2" data-name="Layer 1"><ellipse class="cls-1" cx="289.02" cy="618.52" rx="184.33" ry="54.22"/><path class="cls-2" d="M518.48,204.9l16.76,4.24,42.08,10.65a7.19,7.19,0,0,1,2.5,12.76L516.64,279a7.19,7.19,0,0,0-.88,10.82l54.39,55.65a7.19,7.19,0,0,1-1.52,11.23l-60.92,35.54a7.19,7.19,0,0,0-3,9l23.9,56.16a7.19,7.19,0,0,1-7.12,10L448.38,459l-305.16,3.1L67.8,467.44a7.19,7.19,0,0,1-7.12-10l23.9-56.16a7.19,7.19,0,0,0-3-9L20.67,356.73a7.19,7.19,0,0,1-1.52-11.23l54.39-55.65A7.19,7.19,0,0,0,72.65,279L9.48,232.55A7.19,7.19,0,0,1,12,219.79l44.73-11.32,23.55-6L125.78,191,90.1,107.72A7.19,7.19,0,0,1,98.83,98l119.89,37.21L233.83,14.4a7.19,7.19,0,0,1,13.82-1.75l45.43,114.84"/><path class="cls-2" d="M492,198.21,463.51,191l35.69-83.27a7.19,7.19,0,0,0-8.74-9.7L370.57,135.23l-6.09-48.76-3.73-29.86L355.46,14.4a7.19,7.19,0,0,0-13.82-1.75L296.22,127.48l-7.39,3.1"/><path class="cls-3" d="M233,368q0,46-1.73,92l-86.5.88-75.42,5.37a7.2,7.2,0,0,1-7.13-10l23.9-56.17a7.17,7.17,0,0,0-3-9L22.21,355.52a7.2,7.2,0,0,1-1.52-11.25l54.39-55.64a7.18,7.18,0,0,0-.88-10.81L11,231.34a7.19,7.19,0,0,1,2.49-12.76l44.74-11.32,23.56-5.95,45.51-11.52L91.64,106.5a7.19,7.19,0,0,1,8.75-9.7L142,109.72c-2,20.85-.12,41.93,7.5,61.34,3.36,8.54,7.81,16.73,10,25.65,4.38,18.17-1.25,37.39-10,53.89s-20.63,31.17-30.05,47.31c-5.36,9.22-10,19.27-10.24,29.93s5,22,14.75,26.29c14.89,6.55,31.1-5.22,42.57-16.76S192,312.6,207.88,316c10.25,2.17,18,11.15,21.52,21S233,357.54,233,368Z"/><circle class="cls-4" cx="145.54" cy="410.18" r="47.25"/><g class="cls-5"><path class="cls-6" d="M162,452.3a47.25,47.25,0,1,1-18-90.91,48.21,48.21,0,0,1,6.74.48A47.25,47.25,0,0,0,162,452.3Z"/></g><circle class="cls-7" cx="144" cy="410.18" r="47.25"/><circle class="cls-4" cx="439.86" cy="410.18" r="47.25"/><g class="cls-5"><path class="cls-6" d="M423.36,452.3a47.25,47.25,0,1,0,18-90.91,48.21,48.21,0,0,0-6.74.48,47.25,47.25,0,0,1-11.31,90.43Z"/></g><circle class="cls-7" cx="441.41" cy="410.18" r="47.25"/><path class="cls-4" d="M174.94,538q-4.07-6.33-7.72-13.08c-16.85-31.19-26.7-68.82-26.7-109.33,0-107.79,69.7-195.18,155.68-195.18S451.87,307.81,451.87,415.6,382.17,610.78,296.2,610.78c-39.91,0-76.31-18.83-103.86-49.78"/><g class="cls-5"><path class="cls-8" d="M312.5,609.72a126,126,0,0,1-16.3,1.05c-39.92,0-76.32-18.82-103.86-49.79l-17.4-23q-4.09-6.34-7.73-13.09c-16.85-31.2-26.69-68.82-26.69-109.33,0-107.8,69.69-195.18,155.68-195.18a125.57,125.57,0,0,1,16.26,1.05c-78.33,10.19-139.41,93.2-139.41,194.12,0,40.51,9.84,78.13,26.69,109.33q3.65,6.74,7.73,13.09l17.4,23C248.63,587.7,279,605.37,312.5,609.72Z"/></g><g class="cls-5"><path class="cls-9" d="M278.39,608.72a126,126,0,0,0,16.3,1.05C334.6,609.78,371,591,398.55,560l17.4-23q4.09-6.34,7.73-13.09c16.85-31.2,26.69-68.82,26.69-109.33,0-107.8-69.69-195.18-155.68-195.18a125.57,125.57,0,0,0-16.26,1.05c78.33,10.19,139.41,93.2,139.41,194.12,0,40.51-9.84,78.13-26.69,109.33q-3.65,6.74-7.73,13.09L366,560C342.25,586.7,311.91,604.37,278.39,608.72Z"/></g><path class="cls-7" d="M416.2,294.56c20.42,33,32.58,74.47,32.58,119.49,0,107.79-69.7,195.18-155.68,195.18-39.91,0-76.31-18.83-103.86-49.78"/><path class="cls-7" d="M386.26,257.67a174,174,0,0,1,17.85,19.56"/><path class="cls-7" d="M171.84,536.47q-4.07-6.33-7.72-13.08c-16.85-31.19-26.7-68.82-26.7-109.33,0-107.79,69.7-195.18,155.68-195.18,25.65,0,49.85,7.78,71.19,21.55"/><path class="cls-10" d="M281.08,387.72a43.37,43.37,0,0,1-86.75,0"/><path class="cls-1" d="M279.21,387.62a43.37,43.37,0,1,1-86.75,0h1.36a43.39,43.39,0,0,0,84,0Z"/><path class="cls-7" d="M278,387.72a43.37,43.37,0,0,1-86.75,0"/><circle class="cls-11" cx="233.06" cy="401.66" r="10.84"/><circle class="cls-10" cx="245.46" cy="398.56" r="7.75"/><path class="cls-10" d="M403.46,387.72a43.37,43.37,0,0,1-86.75,0"/><path class="cls-1" d="M400,387.62a43.37,43.37,0,0,1-86.75,0h1.36a43.39,43.39,0,0,0,84,0Z"/><path class="cls-7" d="M400.36,387.72a43.37,43.37,0,1,1-86.75,0"/><circle class="cls-11" cx="355.44" cy="401.66" r="10.84"/><circle class="cls-10" cx="367.83" cy="398.56" r="7.75"/><path class="cls-12" d="M108.89,340.21a50,50,0,0,1-1.71-8.58,50.56,50.56,0,0,1-.16-8.11,45.27,45.27,0,0,1,2.89-13.28,31.43,31.43,0,0,1,4.37-8c1.36-1.67,2.38-2.4,2.82-2.14,1,.57-.72,4.78-2,11.6a62,62,0,0,0-1,12,59.64,59.64,0,0,0,.55,7,55.64,55.64,0,0,0,1.6,7.31c.4,1.21.76,2.43,1.21,3.58a27,27,0,0,0,1.43,3.15,13.38,13.38,0,0,0,1.74,2.56l.47.58.53.52a9.35,9.35,0,0,0,1.1,1,27.49,27.49,0,0,0,10.2,4.72c3.33.91,6.22,1.44,8.21,2s3.12,1,3.11,1.58-1.15,1-3.23,1.39a36.81,36.81,0,0,1-9,.37,31.7,31.7,0,0,1-6.37-1.1,24,24,0,0,1-7.12-3.28,14.79,14.79,0,0,1-1.73-1.33l-.85-.74-.78-.82a19.33,19.33,0,0,1-2.78-3.69,30.37,30.37,0,0,1-2-4.07C109.8,343.06,109.36,341.65,108.89,340.21Z"/><path class="cls-12" d="M137.29,260.49C144,249.27,149.5,240,151.5,240.83c1,.4.82,3.3-.45,7.63a78.09,78.09,0,0,1-17.71,29.88c-3.19,3.19-5.66,4.71-6.48,4.06C125.2,281,130.66,271.75,137.29,260.49Z"/><path class="cls-12" d="M150.36,180c-3.32-14-7.15-25.25-5.2-26.23.93-.45,3.15,1.86,5.66,6.22a75.14,75.14,0,0,1,9.05,37.63c-.25,5-1.17,8.09-2.21,8.11C155.48,205.77,153.78,194,150.36,180Z"/><path class="cls-2" d="M444.61,469.61c26,26,14.79,78.17,15.55,115l-11.74-13a126.89,126.89,0,0,1-30.82,61.49,45.3,45.3,0,0,0-14.28-15.73,95.16,95.16,0,0,1-29.43,50.17,38.29,38.29,0,0,0-1.09-31.66,60.36,60.36,0,0,1-33,36.69,24.83,24.83,0,0,0,2.7-23.94c-12,20.29-46.33,20.91-59,1.06-.88,4-.23,9.28,3.86,9.62-17.23,2.65-33-4.61-44.86-17.39a29,29,0,0,0,9.61,18.79,52.63,52.63,0,0,1-43.78-29.08c-22.23,1.38-44.43-13.85-51.15-35.09a10.63,10.63,0,0,1-2.77,10.18C116,587.24,118.1,499.8,143.26,471c0,0,43.88,33.13,85.07,32.88,25.75-.15,55.88-19.8,85.76-19.93,25-.11,35.94,34.12,52,19.06C408.52,463.13,444.07,469.07,444.61,469.61Z"/><path class="cls-3" d="M461,579.41l-11.74-13a127,127,0,0,1-30.82,61.5,45.32,45.32,0,0,0-14.28-15.73,95.26,95.26,0,0,1-29.43,50.18,38.33,38.33,0,0,0-1.08-31.66,60.34,60.34,0,0,1-33,36.69,24.83,24.83,0,0,0,2.69-23.94c-12,20.3-46.33,20.91-59,1.07-.88,4,.12,18.77,4.22,19.12-17.23,2.65-33.36-14.1-45.22-26.89.68,7.17,2.47,20.1,7.87,24.85-18.36-.94-34.06-18.58-42.05-35.14-22.23,1.39-44.43-13.85-51.15-35.09a10.63,10.63,0,0,1-2.76,10.18c-13.27-6.74-22-21.38-26.76-38.85,17,12.38,37,20.88,56.73,28.49,13.42,5.16,27,10.08,41.15,12.66,13.72,2.49,27.74,2.75,41.69,3,38.71.67,79,1,114-15.61,10-4.76,20.61-12.93,20.26-24-.4-12.69-14.29-19.93-26.14-24.48,25.24-3.74,45.92-23.31,57.43-46.07a140.7,140.7,0,0,0,10.14-27.06l3.39,2.64C453.92,508.44,460.27,542.6,461,579.41Z"/><path class="cls-13" d="M279.44,484.79l-51.11,19.06-84.11-38.17a63.86,63.86,0,0,0-12.41,22,243.36,243.36,0,0,1,51,18,250.66,250.66,0,0,1,23.32,12.64c4.12,2.52,12.77,10.78,17.87,10.15a10.52,10.52,0,0,0,4.23-1.9c46.77-30.08,81.11-31.4,135.95-21.6l-25.77-15Z"/><path class="cls-14" d="M443.74,469.61C461,504.23,464.64,541.56,461,581.14l-11.74-13a126.89,126.89,0,0,1-30.82,61.49,45.3,45.3,0,0,0-14.28-15.73,95.16,95.16,0,0,1-29.43,50.17,38.29,38.29,0,0,0-1.09-31.66,60.36,60.36,0,0,1-33,36.69,24.83,24.83,0,0,0,2.7-23.94c-12,20.29-46.33,20.91-59,1.06-.88,4,6,20,2.13,21.75-17-7.82-31.27-16.74-43.13-29.52.69,7.17,2.46,21,7.87,25.72-18.36-.94-34.06-19.45-42.05-36-22.23,1.38-44.43-13.85-51.15-35.09a10.63,10.63,0,0,1-2.77,10.18c-38.41-19.5-36.36-105.21-11.2-134"/><path class="cls-15" d="M261.78,573.43a10.43,10.43,0,0,1-10.4-10.4V523.29a10.43,10.43,0,0,1,10.4-10.4h72.77a10.43,10.43,0,0,1,10.4,10.4V563a10.43,10.43,0,0,1-10.4,10.4"/><path class="cls-16" d="M346.68,527.62v12.33a10.43,10.43,0,0,0-9.53-6.26H264.38a10.43,10.43,0,0,0-10.4,10.4V571.5a10.29,10.29,0,0,1-.87-4.13V527.62a10.43,10.43,0,0,1,10.4-10.4h72.77A10.43,10.43,0,0,1,346.68,527.62Z"/><path class="cls-17" d="M297.73,509.18c7.51,0,14.84.05,21.92.16l10.42.19,2.54.06,1.26,0h.36l.53,0,1.06.08a17.57,17.57,0,0,1,7.76,2.86,17.26,17.26,0,0,1,7.6,13.23l0,1v.76l0,1.14-.09,2.26-.2,4.41c-.28,5.79-.59,11.18-.94,16.1s-.73,9.37-1.13,13.28l-.15,1.44-.19,1.61a13.71,13.71,0,0,1-.95,3.46,13,13,0,0,1-3.6,4.84,10.45,10.45,0,0,1-7.27,2.58c-1.75-.16-2.53-.78-2.52-1.27s.76-1,1.87-1.75a11.19,11.19,0,0,0,3.55-3.62,8,8,0,0,0,1-3,7.12,7.12,0,0,0,0-1.68l-.29-2.61c-.41-3.91-.79-8.36-1.13-13.28s-.66-10.31-.94-16.1l-.2-4.41-.09-2.26,0-1.14v-.29l0-.11a2,2,0,0,1,0-.2,3.62,3.62,0,0,0-1.85-2.5,3.46,3.46,0,0,0-1.47-.38l-4.35.1-10.42.19c-7.08.1-14.41.16-21.92.16s-14.84-.05-21.92-.16l-10.42-.19-4.35-.1a3.46,3.46,0,0,0-1.47.38,3.62,3.62,0,0,0-1.86,2.5,2,2,0,0,1,0,.2l0,.11v.29l0,1.14-.09,2.26-.2,4.41c-.28,5.79-.59,11.18-.94,16.1s-.73,9.37-1.13,13.28l-.29,2.61a7.13,7.13,0,0,0,0,1.68,8,8,0,0,0,1,3,11.2,11.2,0,0,0,3.55,3.62c1.1.73,1.87,1.19,1.87,1.75s-.78,1.11-2.52,1.27a10.45,10.45,0,0,1-7.27-2.58,13,13,0,0,1-3.6-4.84,13.71,13.71,0,0,1-.95-3.46l-.19-1.61-.15-1.44c-.41-3.91-.79-8.36-1.13-13.28s-.66-10.31-.94-16.1l-.2-4.41-.09-2.26,0-1.14v-.76l0-1a17.26,17.26,0,0,1,7.6-13.23,17.57,17.57,0,0,1,7.76-2.86l1.06-.08.53,0h.36l1.26,0,2.54-.06,10.42-.19C282.89,509.23,290.22,509.18,297.73,509.18Z"/><path class="cls-17" d="M302.86,552.58a54.43,54.43,0,0,0,5.71-1.73,48,48,0,0,0,5-2.23,39.67,39.67,0,0,0,7.71-5.1c2-1.73,3.52-3.4,4.81-4.61s2.25-2,3.11-1.78,1.44,1.34,1.56,3.45a17.79,17.79,0,0,1-2.29,8.39,29.29,29.29,0,0,1-8.6,9.58,38.08,38.08,0,0,1-6.48,3.82,42.55,42.55,0,0,1-7.57,2.62c-1.33.33-2.67.56-4,.77s-2.65.32-3.9.37a47.38,47.38,0,0,1-7.23-.2A41.23,41.23,0,0,1,279,563a23.64,23.64,0,0,1-7-4.26c-1.44-1.37-2-2.56-1.64-3.35.75-1.65,4.79-1.39,10.66-1.18,2.94.11,6.36.18,10.08,0,1.86-.1,3.8-.26,5.79-.51,1-.11,2-.3,2.95-.45S301.87,552.83,302.86,552.58Z"/><path class="cls-17" d="M155.46,490.33A39.37,39.37,0,0,0,156,500a41,41,0,0,0,3.15,9.52,42.44,42.44,0,0,1-5.84-8.6,43.67,43.67,0,0,1-3.52-10.15,47.59,47.59,0,0,1-1-11c0-.93.08-1.86.14-2.79s.15-1.87.31-2.81a36.46,36.46,0,0,1,1.21-5.8l10.41,4.56a25.27,25.27,0,0,0-2,3.8c-.33.69-.58,1.41-.87,2.12l-.76,2.2A40.47,40.47,0,0,0,155.46,490.33Z"/><path class="cls-17" d="M171.41,499.11c.85,7.6,4.25,15.18,9.15,21.74a48.54,48.54,0,0,1-14.67-20.41,39.56,39.56,0,0,1-2.34-13.25,35.77,35.77,0,0,1,2.72-13.91l10,5.38C172.32,484,170.54,491.58,171.41,499.11Z"/><path class="cls-17" d="M200.42,504.82a52.28,52.28,0,0,0,7.09,20.82,55.13,55.13,0,0,1-12.6-19.43,57.85,57.85,0,0,1-3.79-24l11.2,1.92A49.27,49.27,0,0,0,200.42,504.82Z"/><path class="cls-17" d="M389.49,500.65a28,28,0,0,1-.29,9c-.5,2.28-1.27,3.62-2,3.56-1.43-.14-2-5.52-2.82-12S383,489.45,384.35,489c.66-.22,1.72.9,2.74,3A28,28,0,0,1,389.49,500.65Z"/><path class="cls-17" d="M413.62,499.69a36.83,36.83,0,0,1-2.43,12.46c-1.23,3-2.53,4.66-3.17,4.43-1.37-.52.31-7.91.5-17s-1-16.59.39-17c.65-.19,1.87,1.5,2.94,4.59A36.83,36.83,0,0,1,413.62,499.69Z"/><path class="cls-17" d="M436.93,497a55.34,55.34,0,0,1,.52,9.45,45.63,45.63,0,0,1-.89,7.66c-.91,4.3-2.14,6.77-2.8,6.63-1.47-.31,0-10.64-1.89-23s-5.89-22-4.54-22.67c.6-.31,2.44,1.74,4.48,5.63a47.93,47.93,0,0,1,3,7.1A57.59,57.59,0,0,1,436.93,497Z"/><path class="cls-17" d="M164.59,595.73a42.25,42.25,0,0,1-.27-8.85,35.84,35.84,0,0,1,.53-3.82,26.8,26.8,0,0,1,.8-3.26c1.21-3.93,2.72-6,3.34-5.81s.45,2.69.21,6.47c-.06.95-.13,2-.14,3.08s0,2.28,0,3.51a62.81,62.81,0,0,0,2.26,15.79c.35,1.18.65,2.32,1,3.36s.68,2,1,2.92c1.29,3.56,2.22,5.84,1.61,6.27s-2.57-1.21-4.84-4.65a26.73,26.73,0,0,1-1.68-2.91,35.79,35.79,0,0,1-1.58-3.52A42.25,42.25,0,0,1,164.59,595.73Z"/><path class="cls-17" d="M197.49,609.93a54.89,54.89,0,0,1-.09-14.27c.47-3.6,1.18-5.78,1.87-5.77s1.28,2.24,1.74,5.77.81,8.37,1.53,13.54c.38,2.58.84,5,1.34,7.18.3,1.07.52,2.12.83,3.06l.4,1.38.43,1.26c1.09,3.22,2,5.28,1.36,5.73s-2.5-1-4.6-4.13l-.79-1.26c-.25-.45-.49-.93-.74-1.43a32.2,32.2,0,0,1-1.4-3.26A42.34,42.34,0,0,1,197.49,609.93Z"/><path class="cls-17" d="M236.71,616.79c-4.33-15.35-4.94-28.35-3.58-28.52s4.28,12.17,8.5,27.14,8.17,27,6.83,27.61S241,632.15,236.71,616.79Z"/><path class="cls-17" d="M346.34,623.13c1.94-6.48,3.3-12.56,4.5-17s2.2-7.12,2.9-7,.94,3,.66,7.6a81.29,81.29,0,0,1-3.17,17.86,60.46,60.46,0,0,1-3.75,9.43c-.76,1.38-1.45,2.7-2.24,3.86-.39.58-.75,1.15-1.13,1.68l-1.15,1.47c-3,3.7-5.58,5.28-6,4.83s1-2.91,3-6.82l.8-1.53.8-1.69c.58-1.15,1.08-2.45,1.67-3.76C344.27,629.38,345.35,626.36,346.34,623.13Z"/><path class="cls-17" d="M376.89,610.42c1.38-7.88,2.09-15.29,3-20.62s1.84-8.6,2.54-8.54,1.06,3.43,1.06,8.84a126.52,126.52,0,0,1-1.62,21.21,61.86,61.86,0,0,1-3.15,11.54,43.31,43.31,0,0,1-4.52,8.74c-3.21,4.66-6.17,6.64-6.63,6.19s1.33-3.26,3.49-8a69.42,69.42,0,0,0,3.21-8.5A91.9,91.9,0,0,0,376.89,610.42Z"/><path class="cls-17" d="M414,597.91c1.53-6.39,2.57-12.34,3.55-16.65s1.85-7,2.56-6.92,1.08,2.86,1,7.33a81.07,81.07,0,0,1-2.17,17.44,61.49,61.49,0,0,1-3.08,9.33c-.64,1.38-1.22,2.7-1.91,3.87-.33.59-.64,1.16-1,1.7l-1,1.51c-2.65,3.79-5,5.54-5.48,5.13s.65-2.93,2.32-6.87l.65-1.55.65-1.7c.48-1.16.88-2.44,1.36-3.77C412.32,604.08,413.18,601.1,414,597.91Z"/><path class="cls-17" d="M424.42,588.28c1.66-4,3-8,4.13-11.62.51-1.83,1.05-3.56,1.44-5.21s.79-3.18,1.12-4.59c1.28-5.65,2-9.25,2.7-9.22s1.27,3.73.87,9.75c-.11,1.5-.26,3.15-.54,4.9s-.63,3.62-1,5.57a78.08,78.08,0,0,1-9.93,23.93c-1.09,1.67-2.12,3.27-3.21,4.67s-2.1,2.71-3.09,3.84c-4,4.54-7,6.72-7.52,6.27s1.53-3.53,4.62-8.43c.77-1.23,1.62-2.56,2.46-4s1.74-3,2.67-4.7C420.89,596.06,422.73,592.32,424.42,588.28Z"/><path class="cls-18" d="M137,509.24c.76-3.74,2.77-6.36,4.11-5.94s1.6,3.5.9,7-2.17,6.21-3.58,6.05S136.26,513,137,509.24Z"/><path class="cls-18" d="M138.33,549.64a54.36,54.36,0,0,1-1.95-15.24c.12-3.95.78-6.35,1.46-6.36,1.47,0,2.42,9.33,5.42,20.26s6.83,19.45,5.58,20.21c-.59.34-2.39-1.39-4.5-4.73A53.49,53.49,0,0,1,138.33,549.64Z"/><path class="cls-14" d="M442.82,467.33A165.7,165.7,0,0,0,371,498.45c-3.11,2.36-6.43,4.93-10.32,5.07-4.14.15-7.78-2.48-11.25-4.75a88.22,88.22,0,0,0-21-10.34c-7.89-2.54-16.26-3.27-24.5-3.47s-16.56-.42-24.68.2a82.67,82.67,0,0,0-20.63,4.06,87.16,87.16,0,0,0-19.26,9.55c-3.47,2.26-7.11,4.89-11.25,4.75-3.9-.14-7.22-2.72-10.32-5.07a165.7,165.7,0,0,0-71.82-31.12"/><line class="cls-19" x1="228.33" y1="503.85" x2="263.97" y2="487.62"/><path class="cls-3" d="M219.34,122.68a55.94,55.94,0,0,1,29.93,12.77c.6-22.61-11.09-43.51-22.43-63.08A20.72,20.72,0,0,1,250,76.94a162.61,162.61,0,0,0-14.86-54.86c-4.94,2.27-6.38,8.48-7.16,13.85a673.21,673.21,0,0,0-6.9,86.47"/><path class="cls-12" d="M248.91,75a148.5,148.5,0,0,1,16.63,15.51,144.21,144.21,0,0,0-20.85-8.11,139.78,139.78,0,0,0-21.24-4.65l6.15-15.9A152.75,152.75,0,0,1,248.91,75Z"/><path class="cls-12" d="M246.73,129.61c7.6,7.08,14.49,15.09,19.26,24-7.16-7.34-15.61-12.79-24.45-17.26s-18.17-8-27.69-11.66l8.85-14.58C230.8,116.24,239.12,122.51,246.73,129.61Z"/><path class="cls-12" d="M41.67,334.64c5.88-2.52,11.18-5.31,15.27-7.08s6.9-2.54,7.48-1.65-1.16,3.21-4.57,6.22a58.45,58.45,0,0,1-15.18,9.57c-6.61,2.85-13.35,3.82-18.13,3.34s-7.5-2-7.33-3,2.94-1.5,7-2.42A86.51,86.51,0,0,0,41.67,334.64Z"/><path class="cls-3" d="M292,123.06A73,73,0,0,1,312.67,143a111.15,111.15,0,0,0,10.74-54.92l7.34,11.35A218.87,218.87,0,0,0,342,35.73c.18-6.89-.08-14.2-3.84-20a574.49,574.49,0,0,0-39.41,98"/><path class="cls-12" d="M329.81,92.79a148.49,148.49,0,0,1,8.38,21.15,144.21,144.21,0,0,0-15.36-16.27,139.76,139.76,0,0,0-17.2-13.31L318,72.64A152.73,152.73,0,0,1,329.81,92.79Z"/><path class="cls-12" d="M314.81,132.79a148.49,148.49,0,0,1,8.38,21.15,144.21,144.21,0,0,0-15.36-16.27,139.76,139.76,0,0,0-17.2-13.31L303,112.64A152.73,152.73,0,0,1,314.81,132.79Z"/><path class="cls-3" d="M400,125.72l3.05,20.6a98.07,98.07,0,0,0,40.39-35,165.29,165.29,0,0,1,1.82,34.87c18.29-2.58,31.49-18.24,42.86-32.79,3.7-4.74,7.52-9.73,8.59-15.65"/><path class="cls-12" d="M405.83,140.91a148.49,148.49,0,0,1-4.13,22.37,144.24,144.24,0,0,0-4.38-21.94,139.8,139.8,0,0,0-7.51-20.41l16.71-3.37A152.75,152.75,0,0,1,405.83,140.91Z"/><path class="cls-12" d="M448.83,134.91a148.49,148.49,0,0,1-4.13,22.37,144.24,144.24,0,0,0-4.38-21.94,139.8,139.8,0,0,0-7.51-20.41l16.71-3.37A152.75,152.75,0,0,1,448.83,134.91Z"/><path class="cls-3" d="M464.55,183.7a38,38,0,0,1-28.72,20.79c5,2.49,10.14,5,15.66,6,10.25,1.84,20.63-1.73,30.28-5.63,2.76-1.11,5.91-2.76,6.27-5.71.26-2.14-1.18-4.2-3-5.33a17.78,17.78,0,0,0-6.15-1.91c-5.36-1-11-2.31-14.88-6.17"/><path class="cls-3" d="M549.55,205.7a38,38,0,0,1-28.72,20.79c5,2.49,10.14,5,15.66,6,10.25,1.84,20.63-1.73,30.28-5.63,2.76-1.11,5.91-2.76,6.27-5.71.26-2.14-1.18-4.2-3-5.33a17.78,17.78,0,0,0-6.15-1.91c-5.36-1-11-2.31-14.88-6.17"/><path class="cls-12" d="M448.64,203.38a148.49,148.49,0,0,1-22,5.87,144.21,144.21,0,0,0,17.94-13.38,139.79,139.79,0,0,0,15.21-15.54L470,194A152.72,152.72,0,0,1,448.64,203.38Z"/><path class="cls-7" d="M78.71,199.41l45.52-11.52L88.55,104.62a7.19,7.19,0,0,1,8.74-9.7l119.89,37.21L232.28,11.3A7.19,7.19,0,0,1,246.1,9.55l46.43,116.84"/><path class="cls-7" d="M38.24,364.79,19.12,353.64A7.19,7.19,0,0,1,17.6,342.4L72,286.75a7.19,7.19,0,0,0-.88-10.82L7.93,229.45a7.19,7.19,0,0,1,2.5-12.76l44.73-11.32"/><path class="cls-7" d="M141.67,459l-75.42,5.37a7.19,7.19,0,0,1-7.12-10L83,398.2a7.19,7.19,0,0,0-3-9L53.83,373.89"/><path class="cls-7" d="M359.19,53.51,353.92,11.3A7.19,7.19,0,0,0,340.1,9.55L292.67,126.39"/><path class="cls-7" d="M490.47,195.11,462,187.9l35.69-83.27a7.19,7.19,0,0,0-8.74-9.7L369,132.13l-6.09-48.76"/><path class="cls-7" d="M511.25,417.2l-8.09-19a7.19,7.19,0,0,1,3-9l60.92-35.54a7.19,7.19,0,0,0,1.52-11.23l-54.39-55.65a7.19,7.19,0,0,1,.88-10.82l63.17-46.49a7.19,7.19,0,0,0-2.5-12.76L533.69,206l-16.76-4.24"/><path class="cls-7" d="M446.83,455.88l73.12,8.47a7.19,7.19,0,0,0,7.12-10l-7.48-17.57"/><path class="cls-12" d="M530.64,225.38a148.49,148.49,0,0,1-22,5.87,144.21,144.21,0,0,0,17.94-13.38,139.79,139.79,0,0,0,15.21-15.54L552,216A152.72,152.72,0,0,1,530.64,225.38Z"/><path class="cls-10" d="M350.55,248.54a42,42,0,0,1,7.24,3.77,31.91,31.91,0,0,1,5.16,4.21c2.66,2.74,3.69,5,3,5.76s-2.95.06-6.13-1.33l-5.47-2.47c-2-.9-4.28-1.87-6.65-2.83s-4.67-1.77-6.77-2.52l-5.67-2c-3.27-1.17-5.41-2.17-5.36-3.25s2.34-2,6.15-2.11a31.91,31.91,0,0,1,6.64.5A41.94,41.94,0,0,1,350.55,248.54Z"/><path class="cls-10" d="M387.87,278.37a26.41,26.41,0,0,1,4.24,10.33c.43,2.88,0,4.8-1,5.11s-2.39-1-4-3-3.49-5-5.6-8.13-4.06-6-5.38-8.27-2-4-1.3-4.85,2.6-.49,5.11,1A26.41,26.41,0,0,1,387.87,278.37Z"/><path class="cls-10" d="M513.06,362.54c7.17-4.16,14-5.44,14.87-3.54s-4.19,6.2-11,10.17-13.09,6.23-14.32,4.49S505.88,366.68,513.06,362.54Z"/><ellipse class="cls-10" cx="543.85" cy="350.52" rx="5.22" ry="3.83" transform="translate(-99.25 279.43) rotate(-26.49)"/><ellipse class="cls-10" cx="513.36" cy="253.47" rx="11.08" ry="3.83" transform="translate(-32.22 427.05) rotate(-43.93)"/><path class="cls-10" d="M222.9,474a12.54,12.54,0,0,1,6.13,4.21c1.17,1.61,1.35,3.07.67,3.86s-2.05.89-3.66.66a45.65,45.65,0,0,1-10.88-3.6c-1.43-.77-2.48-1.64-2.55-2.71s.94-2.1,2.84-2.7A12.54,12.54,0,0,1,222.9,474Z"/><path class="cls-10" d="M262.35,467.89a49.09,49.09,0,0,1,8.52-.84,37.07,37.07,0,0,1,7,.59c3.93.75,6.21,2,6.1,3s-2.51,1.75-6.16,2.39c-1.83.31-4,.66-6.35,1s-4.94.82-7.64,1.33-5.25,1.08-7.59,1.58-4.46,1-6.28,1.38c-3.63.75-6.11,1-6.61.05s1.17-2.92,4.55-5.06a37.07,37.07,0,0,1,6.26-3.12A49.09,49.09,0,0,1,262.35,467.89Z"/><rect class="cls-20" x="312.3" y="359.24" width="89" height="10"/><line class="cls-7" x1="312.3" y1="359.24" x2="401.3" y2="359.24"/><rect class="cls-20" x="187.3" y="359.24" width="89" height="10"/><line class="cls-7" x1="187.3" y1="359.24" x2="276.3" y2="359.24"/><path class="cls-7" d="M113.3,415.55a22.64,22.64,0,0,1,23-12.58"/><path class="cls-7" d="M473.26,415.55a22.64,22.64,0,0,0-23-12.58"/></g></g></svg>