<svg xmlns="http://www.w3.org/2000/svg" viewBox="0 0 485.29 648.83"><defs><style>.cls-1{fill:#485d63;}.cls-2{fill:#dfe7ea;}.cls-3{fill:#f0d7c2;}.cls-4{fill:#e8bc70;}.cls-5{fill:#9e8863;}.cls-6{fill:#eace9b;}.cls-7{fill:#ebcbac;}.cls-8{fill:#d7ad8c;}.cls-9{fill:#fff;}.cls-10{fill:#ebdce8;}.cls-11,.cls-12,.cls-13,.cls-15,.cls-16{fill:none;stroke:#42565e;stroke-miterlimit:10;}.cls-11{stroke-linecap:square;}.cls-11,.cls-15,.cls-16{stroke-width:10px;}.cls-12,.cls-13{stroke-width:8px;}.cls-13,.cls-15{stroke-linecap:round;}.cls-14{fill:#dcb79b;}.cls-17{fill:#325560;}.cls-18{fill:#f9d7a5;}.cls-19{fill:#aa9777;}</style></defs><title>Asset 110</title><g id="Layer_2" data-name="Layer 2"><g id="Layer_1-2" data-name="Layer 1"><path class="cls-1" d="M443.55,323.66c2.62-14.83,4.62-26.94,6.06-26.84s1.64,12.6-1,27.72-7.13,26.8-8.45,26.42S441,338.5,443.55,323.66Z"/><ellipse class="cls-2" cx="268.35" cy="594.61" rx="184.33" ry="54.22"/><path class="cls-3" d="M428.34,469.65c0-8.3,16.78-.48,23.63-5.16s12-11.49,16-18.79c17.05-31.58,10.19-74.24-15.9-98.88H412.62V469.59S428.34,471.71,428.34,469.65Z"/><path class="cls-4" d="M434.11,381c-9.53,46,36-85,40.14-131.84A277.35,277.35,0,0,0,475.52,220a190.51,190.51,0,0,0-21.46-84.42c-9.77-18.73-24.42-37-45-41.73H276.62V389.38S434.59,378.69,434.11,381Z"/><path class="cls-5" d="M472.25,252.2C468.11,299,422.58,430,432.11,384c.12-.56-8.91-.38-22.68.23,8.3-26.32,15.11-53,19.16-80.32,7-47.44,5.38-96.92-11.08-142a79.81,79.81,0,0,1-9.11,39,99.38,99.38,0,0,0-66.89-53.24,146.34,146.34,0,0,1-3.3,57.77,113.39,113.39,0,0,0-63.59-35.83V96.83H407.05c20.59,4.74,35.24,23,45,41.73A190.51,190.51,0,0,1,473.52,223,276.87,276.87,0,0,1,472.25,252.2Z"/><path class="cls-4" d="M358.56,191.68c18.18-3.38,30.29-20.74,37.35-37.83A161.36,161.36,0,0,0,407.4,107,85.23,85.23,0,0,0,382.46,38.8h0A82.69,82.69,0,0,0,364,24.87C291.64-14.73,216.06,17,145.47,66.21,71.2,118,29.88,211,34.33,301.46c1.21,24.66,5.52,49.05,8,73.62,3,30.75,3.14,61.7,3.24,92.6.09,28.69.18,57.42-2,86s-9.05,60.95-33.71,75.78C25,638.32,41.63,645.8,59.15,645.74c32.19-.11,59.91-26.75,69.67-57.43s4.74-64.17-4.61-95"/><path class="cls-6" d="M127.21,490.34c9.35,30.8,14.36,64.3,4.61,95s-37.48,57.33-69.67,57.43c-17.52.06-34.2-7.41-49.34-16.24.81-.49,1.59-1,2.36-1.51,40.57-1.44,79.75-27.29,96.16-64.58a37.9,37.9,0,0,1-38,.64A52.25,52.25,0,0,0,111.77,525a51.18,51.18,0,0,1-32.54,2.87c10.53-2.58,18.3-12,22.13-22.1s4.42-21.18,5.43-32c1.93-20.56,5.55-41.07,12.68-60.45,15.06-40.93,44.72-74.4,74.56-106.4q7.86,36.69,19.35,72.48Z"/><path class="cls-7" d="M115.17,463.89C130.26,540.2,184.36,587,245.46,628.51c8.84,6,18.31,12.23,29,12.65,10.49.41,20.28-4.85,29.28-10.26,49.1-29.54,94.28-70.57,113.42-124.58,13-36.78,13.08-76.71,13-115.73-.09-35-1-72.74-21.94-100.84-13.87-18.64-36-32.23-42.17-54.64-4.65-16.91,0-38.12-16.91-48a29.44,29.44,0,0,0-9.22-3.32c-27.55-5.42-55,14.79-81.91,8.28-11.58-2.8-21.58-10.31-33.12-13.26-15-3.84-31.36.63-44.2,9.35s-22.58,21.33-30.6,34.61c-28.1,46.52-37,101.94-42.33,156l0,.43a214,214,0,0,0,3.08,62.46Z"/><path class="cls-3" d="M418.83,302s34.47,218.5-141.37,339.17c-8.65,5.93,20.28-4.85,29.27-10.26,49.1-29.54,94.28-70.57,113.43-124.58,13-36.78,13.08-76.71,13-115.73-.08-30.16-.78-62.3-14.31-88.6"/><path class="cls-8" d="M367.25,203.16c-.15.26-.31.51-.47.77-17,27.27-46.39,49.11-78.51,48-11.52-.41-23-3.7-34.44-2.2-17.75,2.32-32,15.69-42.92,29.89C168,335.51,159.1,412.77,176.93,481c7.78,29.76,20.24,58.34,25.29,88.69a75.28,75.28,0,0,1,.81,21.66c-39.62-33.48-70.95-73.23-81.86-128.43l-4.39-22.2a213.9,213.9,0,0,1-3.08-62.46c0-.14,0-.28,0-.43,5.35-54.09,14.23-109.5,42.33-156,8-13.29,17.76-25.89,30.6-34.62s29.16-13.18,44.2-9.34c11.55,3,21.54,10.46,33.12,13.25,26.94,6.51,54.36-13.7,81.92-8.28a29.37,29.37,0,0,1,9.22,3.32C362.15,190.21,365.45,196.27,367.25,203.16Z"/><path class="cls-9" d="M384.43,338.52c-13.54,10.91-12.77,39.26-34.85,41-14.66,1.18-44.11-16.07-34.5-26.74,5-5.5,25-11.47,25-11.47Z"/><path class="cls-10" d="M384.43,338.52c-13.53,10.91-12.77,39.26-34.85,41-14.66,1.19-44.11-16.07-34.5-26.74a15.69,15.69,0,0,1,3.11-2.48c4.63,9.4,24.27,19.12,35.39,18.22,16.34-1.32,20.17-17.18,26.54-29.76Z"/><path class="cls-8" d="M356,316.88c-12.09,1.06-22.72,5.35-30.26,9.22s-12.51,7-14.47,5.49c-.92-.74-.92-2.6.15-5.33a32.62,32.62,0,0,1,6.86-10,51.64,51.64,0,0,1,6.32-5.55,58.26,58.26,0,0,1,8.29-5.08,59.48,59.48,0,0,1,43.94-3.83,58.26,58.26,0,0,1,9,3.57,51.62,51.62,0,0,1,7.18,4.38,32.64,32.64,0,0,1,8.47,8.62c1.53,2.5,1.85,4.33,1.07,5.22-1.66,1.87-7.07-.45-15.21-2.9S368.11,315.84,356,316.88Z"/><path class="cls-11" d="M411.69,319.94a77.07,77.07,0,0,0-110.53,9.63"/><path class="cls-12" d="M300.9,360.34c13.2-7.76,26.61-15.47,41.26-19.92s30.84-5.43,45.06.23"/><path class="cls-13" d="M313.72,357c5.68,13.18,20.84,23.93,35.5,22.74,22.08-1.78,20.31-29.13,33.85-40"/><path class="cls-14" d="M365.83,389.68a35.49,35.49,0,0,1-7.48,2.76,30.48,30.48,0,0,1-3.43.6,22.93,22.93,0,0,1-3,.2c-3.71,0-5.91-.66-5.87-1s2.27-.36,5.74-.84c.87-.12,1.81-.26,2.81-.49s2.06-.49,3.17-.78a39.27,39.27,0,0,0,13.18-6.78c.88-.73,1.75-1.4,2.48-2.12s1.43-1.37,2-2c2.4-2.54,3.67-4.38,4-4.18s-.46,2.33-2.63,5.33a22.9,22.9,0,0,1-1.92,2.33,30.56,30.56,0,0,1-2.48,2.44A35.49,35.49,0,0,1,365.83,389.68Z"/><path class="cls-14" d="M324.31,390.28a20.85,20.85,0,0,1-5.91-3.69c-1.32-1.22-1.92-2.18-1.69-2.44.49-.55,3.92,1.86,8.59,3.78s8.77,2.73,8.72,3.47c0,.34-1.13.6-2.93.51A20.86,20.86,0,0,1,324.31,390.28Z"/><path class="cls-9" d="M163.16,338.52c13.54,10.91,12.77,39.26,34.85,41,14.66,1.18,44.11-16.07,34.5-26.74-5-5.5-25-11.47-25-11.47Z"/><path class="cls-10" d="M163.16,338.52c13.53,10.91,12.77,39.26,34.85,41,14.66,1.19,44.11-16.07,34.5-26.74a15.69,15.69,0,0,0-3.11-2.48c-4.63,9.4-24.27,19.12-35.39,18.22-16.34-1.32-20.17-17.18-26.54-29.76Z"/><path class="cls-8" d="M191.58,316.88c12.09,1.06,22.72,5.35,30.26,9.22s12.51,7,14.47,5.49c.92-.74.92-2.6-.15-5.33a32.62,32.62,0,0,0-6.86-10,51.64,51.64,0,0,0-6.32-5.55,58.26,58.26,0,0,0-8.29-5.08,59.48,59.48,0,0,0-43.94-3.83,58.26,58.26,0,0,0-9,3.57,51.62,51.62,0,0,0-7.18,4.38,32.64,32.64,0,0,0-8.47,8.62c-1.53,2.5-1.85,4.33-1.07,5.22,1.66,1.87,7.07-.45,15.21-2.9S179.48,315.84,191.58,316.88Z"/><path class="cls-11" d="M135.9,319.94a77.07,77.07,0,0,1,110.53,9.63"/><path class="cls-12" d="M246.69,360.34c-13.2-7.76-26.61-15.47-41.26-19.92s-30.84-5.43-45.06.23"/><path class="cls-13" d="M233.87,357c-5.68,13.18-20.84,23.93-35.5,22.74-22.08-1.78-20.31-29.13-33.85-40"/><path class="cls-14" d="M182.94,387.41a43.84,43.84,0,0,0,6.92,2.76c1.11.29,2.16.61,3.17.78s1.94.37,2.81.49c3.47.47,5.69.44,5.74.84s-2.16,1-5.87,1a22.93,22.93,0,0,1-3-.2,30.47,30.47,0,0,1-3.43-.6,33.07,33.07,0,0,1-14.08-7.24,30.55,30.55,0,0,1-2.48-2.44,22.9,22.9,0,0,1-1.92-2.33c-2.18-3-2.9-5.2-2.63-5.33s1.62,1.63,4,4.18c.61.63,1.26,1.32,2,2s1.6,1.39,2.48,2.12A43.84,43.84,0,0,0,182.94,387.41Z"/><path class="cls-14" d="M222.31,387.93c4.67-1.92,8.1-4.33,8.59-3.78.22.26-.37,1.23-1.69,2.44a21.64,21.64,0,0,1-12.7,5.31c-1.79.09-2.9-.17-2.93-.51C213.54,390.66,217.66,389.9,222.31,387.93Z"/><path class="cls-15" d="M118.17,465.89C133.26,542.2,187.36,589,248.46,630.51c8.84,6,18.31,12.23,29,12.65,10.49.41,20.28-4.85,29.28-10.26,49.1-29.54,94.28-70.57,113.42-124.58,13-36.78,13.08-76.71,13-115.73-.09-35-1-72.74-21.94-100.84-13.87-18.64-36-32.23-42.17-54.64-4.65-16.91,0-38.12-16.91-48a29.44,29.44,0,0,0-9.22-3.32c-27.55-5.42-55,14.79-81.91,8.28-11.58-2.8-21.58-10.31-33.12-13.26-15-3.84-31.36.63-44.2,9.35s-22.58,21.33-30.6,34.61c-28.1,46.52-37,101.94-42.33,156l0,.43a214,214,0,0,0,3.08,62.46Z"/><path class="cls-15" d="M408.06,91.27c20.59,4.74,35.24,23,45,41.73a190.51,190.51,0,0,1,21.46,84.42,277.35,277.35,0,0,1-1.27,29.22c-4.14,46.8-11.45,94.63-40.14,131.84"/><path class="cls-15" d="M431.34,466.89c8.08,1.87,16.78-.48,23.63-5.16s12-11.49,16-18.79c17.05-31.58,10.19-74.24-15.9-98.88"/><polygon class="cls-3" points="274.12 398.32 274.12 484.32 304.12 484.32 274.12 398.32"/><polyline class="cls-11" points="274.28 402.83 273.05 474.82 272.96 479.82"/><path class="cls-9" d="M363.87,259.63c2.39,2.34,5,4.47,7.37,6.54a66.27,66.27,0,0,1,6.23,6,21.72,21.72,0,0,1,3.45,5c.59,1.36.69,2.25.28,2.58s-1.28.1-2.47-.56-2.79-1.64-4.78-2.86-4.34-2.7-7-4.47a59.84,59.84,0,0,1-8.45-6.68,30.66,30.66,0,0,1-6.65-9.31,26.37,26.37,0,0,1-2.3-9,17.4,17.4,0,0,1,.59-6.16c.45-1.41,1-2.13,1.55-2.09,1.1.08,1.66,3,3.17,7.19a39.37,39.37,0,0,0,3.26,6.83A35.88,35.88,0,0,0,363.87,259.63Z"/><ellipse class="cls-9" cx="351.31" cy="225.49" rx="3.83" ry="5.04" transform="translate(-15.6 26.39) rotate(-4.21)"/><path class="cls-1" d="M65.56,459.91c-.07-30.74-1.78-55.72.4-56,1-.13,2.79,6,4.36,16.12.79,5.06,1.49,11.11,2,17.86s.84,14.18.88,22-.25,15.25-.71,22-1.13,12.81-1.88,17.87c-1.49,10.13-3.21,16.28-4.23,16.16C64.22,515.65,65.74,490.65,65.56,459.91Z"/><path class="cls-1" d="M111.93,261.4a45.42,45.42,0,0,1,5.4-11.7c1.89-2.77,3.61-4.19,4.56-3.75,1.93.92.15,8.64-2.65,17.73s-5.74,16.44-7.86,16.11c-1-.18-1.65-2.32-1.64-5.67A45.45,45.45,0,0,1,111.93,261.4Z"/><path class="cls-1" d="M77.62,398.25c-4-26.89-6.89-48.82-4.79-49.26s8.3,21,12.36,48.12,4.42,49.44,2.35,49.63S81.69,425.13,77.62,398.25Z"/><path class="cls-1" d="M427.32,123.89a91.18,91.18,0,0,1,3.08,13c.28,2,.56,4,.67,5.81s.21,3.53.22,5.08c0,6.23-.81,10-1.47,10-1.53,0-1.71-15.08-7.36-32.38C417,108.09,408.4,95.73,409.62,94.82c.52-.4,3.4,2.2,7,7.28.9,1.27,1.85,2.68,2.77,4.26s1.88,3.29,2.83,5.11A91.15,91.15,0,0,1,427.32,123.89Z"/><path class="cls-1" d="M435.53,122.29a80.51,80.51,0,0,1,5,12.58c.55,2,1.09,3.91,1.43,5.73.18.91.38,1.78.5,2.62l.33,2.44c.74,6.25.25,10.13-.4,10.17s-1.55-3.67-3.14-9.47l-.63-2.27c-.22-.79-.51-1.59-.76-2.44-.49-1.69-1.15-3.45-1.79-5.32a107.91,107.91,0,0,0-11.54-22.83c-1.12-1.62-2.14-3.2-3.22-4.6-.53-.71-1-1.41-1.51-2.06L418.35,105c-3.72-4.72-6.25-7.57-5.76-8.15s3.83,1.41,8.42,5.71l1.77,1.72c.61.6,1.19,1.28,1.81,2,1.27,1.35,2.48,2.91,3.77,4.55A80.56,80.56,0,0,1,435.53,122.29Z"/><path class="cls-1" d="M437.62,333.7c-.34-15.36-3.9-27.55-2.48-28.05.63-.22,2.37,2.59,4.09,7.59a64,64,0,0,1,2.31,9,74.61,74.61,0,0,1,.62,22.7,63.92,63.92,0,0,1-1.82,9.1c-1.44,5.09-3,8-3.67,7.8C435.24,361.42,438.12,349.06,437.62,333.7Z"/><path class="cls-16" d="M433.65,395.23a27.4,27.4,0,0,1,25.66,32.54"/><path class="cls-17" d="M184.12,352.09a15.92,15.92,0,1,0,31.84,0c0-8.79-7.13-13.92-15.92-13.92S184.12,343.29,184.12,352.09Z"/><circle class="cls-9" cx="206.12" cy="357.33" r="2.5"/><path class="cls-17" d="M364,352.09a15.92,15.92,0,1,1-31.84,0c0-8.79,7.13-13.92,15.92-13.92S364,343.29,364,352.09Z"/><circle class="cls-9" cx="341.95" cy="357.33" r="2.5"/><circle class="cls-3" cx="314.12" cy="599.33" r="11.5"/><path class="cls-8" d="M332.64,526.83c-1.48,3.18-4.8,5.06-8.08,6.31-13,5-25.52,2.38-36.86-5-4.46,3.84-9.18,5.62-14.07,5.29l.4-5.84c3.77.25,7.57-1.5,11.3-5.23l1.72-1.72,2,1.37c7.57,5.19,36.55-.44,42.56-1.18"/><path class="cls-8" d="M209.56,521.86c-3.46-2.9-5.74-5-5.94-5l3-3c6,.75,45.11,13.37,52.68,8.18l2-1.37,1.72,1.72c3.73,3.73,7.53,5.48,11.3,5.23l.4,5.84c-4.88.33-9.61-1.44-14.07-5.29-1.94,1.26-5.62,2.48-10,3.53A46.93,46.93,0,0,1,209.56,521.86Z"/><path class="cls-16" d="M271.67,524.41c3.93.27,8.6-1.11,13.57-6.08,0,0,1.62,1.11,4.16,2.68A33,33,0,0,0,330,516.25h0"/><path class="cls-16" d="M272.36,524.41c-3.93.27-8.6-1.11-13.57-6.08l-.1.07a37.13,37.13,0,0,1-47.07-4.52l-3.53-3.53"/><path class="cls-18" d="M390.67,49.67a524.8,524.8,0,0,0-73-15.76c-22.42-3.1-45.46-4.46-67.51.61-21.72,5-42.56,16.9-54.62,35.6a34.67,34.67,0,0,0,4.79-12.35c.11-.6.21-1.2.28-1.8a71.27,71.27,0,0,0-45.38,38.41,54.12,54.12,0,0,0,4-14.52,52.4,52.4,0,0,0,.43-8.21,96.11,96.11,0,0,0-45.21,47.18c-.65,1.46-1.26,3-1.82,4.45a1.23,1.23,0,0,0-.32-.17c-1.85-.64-3.67.94-4.91,2.45a58.38,58.38,0,0,0-12.54,27.11l-.06-9.87-.51.44a66.28,66.28,0,0,0-22.54,56.07q-.63-3-1.27-6c-.38.65-.75,1.3-1.12,2a87.78,87.78,0,0,0-9.45,57.92A37.49,37.49,0,0,0,54,243.29c-.67-.81-1.38-1.6-2.12-2.35a73.15,73.15,0,0,0-.2,50.58,11.34,11.34,0,0,0-3.33-3q-.41-.24-.84-.45c-.5,15.72-.26,31.47.71,47.16q-2.35-2.53-4.63-5.15c-2.08-8.34-4.19-16.69-6.18-25.05.35,6.55.92,13.09,1.61,19.61-.4-.47-.78-1-1.15-1.43-.68-6.57-1.22-13.15-1.55-19.75q-.3-6.09-.32-12.19a276.58,276.58,0,0,1,2.33-35,282.81,282.81,0,0,1,8.88-42.43,275.52,275.52,0,0,1,52.85-100.1,243.92,243.92,0,0,1,47.39-43.55c9.57-6.67,19.23-13,29-18.91,1.1-1.38,2.25-2.74,3.43-4.06,21-12.49,42.38-22.77,63.85-29.51q-3.33,2-6.52,4.15C280.13,7,323.61,5.69,366,28.88a79.64,79.64,0,0,1,9.72,6.31,87,87,0,0,1,15,14.48Z"/><path class="cls-15" d="M358.56,189.68c18.18-3.38,30.29-20.74,37.35-37.83A161.36,161.36,0,0,0,407.4,105,85.23,85.23,0,0,0,382.46,36.8h0A82.69,82.69,0,0,0,364,22.87C291.64-16.73,216.06,15,145.47,64.21,71.2,116,29.88,209,34.33,299.46c1.21,24.66,5.52,49.05,8,73.62,3,30.75,3.14,61.7,3.24,92.6.09,28.69.18,57.42-2,86s-9.05,60.95-33.71,75.78C25,636.32,41.63,643.8,59.15,643.74c32.19-.11,59.91-26.75,69.67-57.43s4.74-64.17-4.61-95"/><path class="cls-1" d="M46.16,273.53c3.26,8.9,6.48,17,8.51,23s2.9,10,1.93,10.42-3.52-2.66-6.84-8.14A133.92,133.92,0,0,1,39,276.15,109.19,109.19,0,0,1,35,262.74c-.42-2.12-.83-4.12-1.06-6-.12-1-.26-1.87-.34-2.76l-.18-2.56c-.35-6.55.52-10.59,1.53-10.63s2.16,3.78,3.82,9.76l.65,2.35.75,2.53c.48,1.75,1.09,3.6,1.67,5.55C43.12,264.82,44.55,269.08,46.16,273.53Z"/><path class="cls-1" d="M54.21,234.57c1.33,3.41,2.73,6.6,4.06,9.5.7,1.43,1.32,2.82,2,4.08s1.23,2.47,1.78,3.57c2.2,4.38,3.55,7.28,2.72,8s-3.63-1-7.18-4.91a39.82,39.82,0,0,1-2.72-3.31c-1-1.22-1.84-2.6-2.78-4.06a61.19,61.19,0,0,1-8.07-21c-.28-1.71-.55-3.34-.66-4.88a39.84,39.84,0,0,1-.19-4.28c0-5.25,1-8.44,2-8.45s2,3,3.34,7.76c.33,1.18.66,2.47,1.07,3.84s.83,2.83,1.27,4.36C51.81,227.84,52.91,231.15,54.21,234.57Z"/><path class="cls-1" d="M69.46,183.31A92.69,92.69,0,0,0,72,193.87c.54,1.58,1,3.13,1.55,4.52.27.7.49,1.4.75,2l.76,1.87c2,4.78,3.38,7.85,2.51,8.56-.41.33-1.31,0-2.6-1q-.49-.36-1-.84c-.36-.32-.72-.7-1.11-1.11A26.41,26.41,0,0,1,70.36,205l-1.3-1.82c-.44-.64-.83-1.35-1.26-2.07a45.69,45.69,0,0,1-2.42-4.77,51.11,51.11,0,0,1-4.07-24A45.6,45.6,0,0,1,62,167c.17-.82.3-1.61.5-2.36l.63-2.14A26.44,26.44,0,0,1,64.53,159c.23-.51.45-1,.68-1.41s.48-.8.71-1.14c.9-1.34,1.63-2,2.13-1.79,1.05.38.72,3.75.45,8.91l-.1,2c0,.7,0,1.43,0,2.18-.07,1.5,0,3.1,0,4.77A92.67,92.67,0,0,0,69.46,183.31Z"/><path class="cls-1" d="M89,131.24a74.29,74.29,0,0,1,2.76-13.29c.66-2,1.28-3.86,2-5.56.37-.85.69-1.68,1.07-2.45l1.12-2.2c3-5.56,5.78-8.38,6.65-7.89s-.08,4.2-1.62,9.9l-.61,2.23c-.21.77-.38,1.59-.6,2.43-.45,1.66-.8,3.47-1.23,5.34-.76,3.78-1.48,7.93-2,12.33s-.65,8.62-.72,12.47c0,1.92,0,3.76.06,5.48,0,.86,0,1.7.06,2.5l.11,2.31c.29,5.9.53,9.7-.54,10s-3.08-3.06-4.81-9.13l-.63-2.39c-.21-.84-.35-1.72-.52-2.63-.37-1.82-.58-3.79-.8-5.87A74.3,74.3,0,0,1,89,131.24Z"/><path class="cls-1" d="M113.68,100.1a74.8,74.8,0,0,1,7.45-12.67,63.61,63.61,0,0,1,4.07-4.95c.68-.74,1.31-1.47,2-2.11l2-1.83a37.12,37.12,0,0,1,3.55-2.91c.54-.4,1-.77,1.54-1.09s1-.57,1.39-.8c1.7-.91,2.78-1.21,3.12-.8.72.86-1.83,4.07-5.57,9.22l-1.46,2c-.51.7-1,1.47-1.51,2.23-1.08,1.51-2.09,3.22-3.21,5a126.11,126.11,0,0,0-6.32,11.89,126.2,126.2,0,0,0-4.81,12.58c-.58,2-1.2,3.88-1.63,5.68-.23.9-.5,1.76-.69,2.6l-.56,2.43c-1.43,6.2-2.17,10.24-3.29,10.26-.53,0-1-1-1.45-2.88q-.16-.7-.31-1.57c-.09-.57-.13-1.2-.19-1.87a37.14,37.14,0,0,1-.14-4.59l.1-2.67c0-.93.18-1.89.29-2.88A63.54,63.54,0,0,1,109,114,74.81,74.81,0,0,1,113.68,100.1Z"/><path class="cls-1" d="M154,73.71A101.68,101.68,0,0,1,161.36,60c1.33-2,2.6-3.88,3.92-5.55.65-.84,1.26-1.66,1.9-2.42L169,49.87c4.85-5.38,8.61-7.92,9.35-7.24,1.66,1.52-9.16,15-17.39,34.15-8.45,19.07-11,36.15-13.21,36-1-.08-1.69-4.56-1.05-11.78l.3-2.82c.12-1,.31-2,.48-3,.32-2.11.85-4.32,1.4-6.65A101.72,101.72,0,0,1,154,73.71Z"/><path class="cls-1" d="M202.65,42a130.36,130.36,0,0,1,14.27-14.29c2.4-2,4.67-3.85,6.94-5.42,1.13-.8,2.19-1.6,3.26-2.29l3.11-2c2-1.27,3.86-2.23,5.51-3.09.83-.42,1.59-.82,2.32-1.15s1.41-.59,2-.83c2.46-.94,3.93-1.23,4.19-.77.56,1-4,4.45-10.88,10.24l-2.7,2.28c-.94.79-1.87,1.67-2.86,2.54-2,1.71-4,3.69-6.18,5.7-4.23,4.13-8.73,8.82-13.15,14s-8.25,10.43-11.62,15.29c-1.62,2.47-3.24,4.78-4.59,7-.69,1.12-1.41,2.18-2,3.24l-1.79,3c-4.56,7.77-7.22,12.82-8.28,12.43-.5-.18-.45-1.68.07-4.26q.19-1,.48-2.14c.2-.77.47-1.59.75-2.48.58-1.76,1.21-3.8,2.13-5.94L185,69.82c.51-1.18,1.12-2.36,1.72-3.6,1.17-2.5,2.65-5.05,4.19-7.75A130.38,130.38,0,0,1,202.65,42Z"/><path class="cls-1" d="M404.92,184.19A38,38,0,0,1,412,199.47c.83,4.26.44,7-.22,7s-1.62-2.32-3.23-6a65.1,65.1,0,0,0-7.68-13.26A56.35,56.35,0,0,0,395.3,181a40.81,40.81,0,0,0-5.17-4.37c-3.08-2.17-5.53-2.54-5.57-3.28,0-.34.64-.73,1.93-.86a11.71,11.71,0,0,1,5.3.94,26.48,26.48,0,0,1,6.61,4A38.63,38.63,0,0,1,404.92,184.19Z"/><path class="cls-1" d="M426.85,221.88c-3.16-30-9.14-53.8-7.67-54.21.64-.18,3,5.57,5.63,15.23,1.33,4.82,2.68,10.63,3.94,17.13s2.34,13.7,3.18,21.3,1.25,14.87,1.45,21.49.08,12.58-.19,17.58c-.52,10-1.57,16.12-2.24,16.08C429.42,276.39,430.17,251.84,426.85,221.88Z"/><path class="cls-19" d="M380.87,146.32A106.55,106.55,0,0,0,391,112.41a124.37,124.37,0,0,0,.3-29.22c-1.82-16.69-6.12-26.48-5-27,.44-.21,2.1,2,4.21,6.39a72.26,72.26,0,0,1,3.24,8.3,88.36,88.36,0,0,1,2.92,11.47A110,110,0,0,1,398,113.2a103.85,103.85,0,0,1-10.25,36.55,85.57,85.57,0,0,1-18,24.27l-4.9,4.58-1.2-6.53c-1.62-8.83-4.94-17-7.77-24.34l-2.08-5.41c-.66-1.78-1.27-3.33-1.94-4.88a69.07,69.07,0,0,0-4.23-8.2,59.88,59.88,0,0,0-8-10.43c-2.15-2.25-3.42-3.45-3.18-3.84s1.94.18,4.73,2a41.67,41.67,0,0,1,10.23,9.73,61.38,61.38,0,0,1,5.38,8.41c.83,1.57,1.68,3.34,2.43,5l2.41,5.24c1.65,3.62,3.4,7.5,5,11.7a85.72,85.72,0,0,1,4.18,13.7l-6.1-2A84.44,84.44,0,0,0,380.87,146.32Z"/><path class="cls-5" d="M355.62,172.83c.9,6.31-1.07,6.63-1,13-1.26-1.84-16.19-21.71-17.49-23.52-9.26-12.88-20.25-25.65-35.12-31.05l-.86-.31c-8.47-2.9-17.55-3.15-26.53-2.35l-2,.19c-1.94.21-3.88.46-5.8.74a206.66,206.66,0,0,0-62.9,19.75c-7.52,3.76-15,8.21-20.48,14.49a112.31,112.31,0,0,1,27.42-27.11c17.7-12.23,39.63-21,61.76-23.36l2-.2a100.49,100.49,0,0,1,29.26,1.53c22,4.57,34.59,18.37,42.26,35.86C344,149.82,357.85,173.33,355.62,172.83Z"/><path class="cls-16" d="M164.14,208.58c8-29.33,23.69-55.63,48.72-72.92,26.11-18,61.42-28.59,93-22,36.59,7.59,47.1,40.71,52.4,73.85"/><path class="cls-1" d="M215.74,147.22a100.7,100.7,0,0,1,26.07-3.78c6.69-.08,10.83.5,10.94,1.54s-3.87,2.39-10.3,3.84-15.26,3.05-24.56,5.75a101.18,101.18,0,0,0-22.64,9.55c-5.48,3.16-8.72,5.67-9.56,4.92-.38-.35-.08-1.46,1-3.12a30.21,30.21,0,0,1,5.4-6.17,51.65,51.65,0,0,1,10-6.95A70.64,70.64,0,0,1,215.74,147.22Z"/><path class="cls-1" d="M309.26,130.58a66.63,66.63,0,0,1,7.25,11.53,56.48,56.48,0,0,1,2.3,5.48c.31.88.63,1.71.87,2.54l.65,2.39a32.74,32.74,0,0,1,.81,4.18c.08.62.17,1.19.2,1.73s0,1,0,1.48c0,1.79-.29,2.81-.81,2.92-1.09.23-2.67-3.22-5.32-8.44l-1-2c-.36-.71-.79-1.42-1.19-2.17-.78-1.52-1.75-3.06-2.7-4.71A99.37,99.37,0,0,0,295,126.14c-1.39-1.31-2.66-2.61-4-3.71-.64-.56-1.23-1.15-1.84-1.66l-1.75-1.48c-4.47-3.77-7.47-6.1-7-7.11.23-.48,1.28-.5,3-.11q.66.15,1.44.37c.51.16,1.05.37,1.64.6a32.82,32.82,0,0,1,3.88,1.75l2.18,1.18c.75.42,1.49.93,2.27,1.43a56.59,56.59,0,0,1,4.8,3.5A66.67,66.67,0,0,1,309.26,130.58Z"/><path class="cls-1" d="M61.4,607.71a117.32,117.32,0,0,0,16.11-10.4C79.9,595.56,82,593.67,84,592l2.81-2.59c.45-.42.91-.81,1.33-1.22L89.4,587c6.42-6.34,10-10.83,11-10.22.82.48-1.2,6.11-6.94,13.78L92.38,592c-.39.49-.81,1-1.23,1.47l-2.67,3.08c-2,2-4.05,4.2-6.49,6.23a91.29,91.29,0,0,1-17,11.7A88.58,88.58,0,0,1,45.76,622l-2.27.6c-.75.17-1.51.31-2.24.46-1.48.27-2.9.6-4.3.78a74.11,74.11,0,0,1-7.8.73c-1.2,0-2.32.09-3.41.1a8.86,8.86,0,0,1-3.91-.72,5.16,5.16,0,0,1-1.69-1.33,7,7,0,0,1-.87-1.36c-.39-.8-.62-1.42-.83-1.84a2.56,2.56,0,0,0-.66-.9,2.74,2.74,0,0,0-.69-.47c-.39-.21-.81-.1-1-.27s-.14-.24-.06-.49a1.5,1.5,0,0,1,.83-.77,3.81,3.81,0,0,1,3.89,1c.63.58,1.11,1.22,1.58,1.73a3.45,3.45,0,0,0,.65.58,1,1,0,0,0,.5.16,7.4,7.4,0,0,0,1.91-.18l3.16-.63c2.22-.36,4.61-1,7.18-1.58,1.28-.3,2.58-.73,3.93-1.09l2-.58,2.07-.7A112.21,112.21,0,0,0,61.4,607.71Z"/><path class="cls-1" d="M93.87,544.17a90.31,90.31,0,0,0,6.1-6.67c.85-1.1,1.72-2.12,2.44-3.14.37-.51.76-1,1.1-1.46l1-1.38c2.5-3.52,4.14-5.89,5.2-5.56s1.14,3.36-.35,8l-.63,1.79c-.23.62-.53,1.23-.83,1.88a37.89,37.89,0,0,1-2.15,4,42.83,42.83,0,0,1-14.82,14.37,37.88,37.88,0,0,1-4.06,2c-.66.27-1.28.56-1.9.77l-1.8.58c-4.65,1.34-7.72,1.07-8,.1s2.12-2.63,5.72-5l1.41-.93c.49-.32,1-.7,1.49-1.05,1-.69,2.09-1.53,3.22-2.34A90.35,90.35,0,0,0,93.87,544.17Z"/><path class="cls-1" d="M95.45,496.29c2.6-8.77,4-17.18,5.28-23.3s2.5-10,3.56-9.87,1.74,4,1.83,10.4a86.21,86.21,0,0,1-3.33,25,60.1,60.1,0,0,1-5.63,13.06A44.34,44.34,0,0,1,90,520.81a26.34,26.34,0,0,1-6.29,4.73c-1.68.84-2.78,1-3.09.6-.67-.9,2-3.78,5.2-8.78A80.56,80.56,0,0,0,95.45,496.29Z"/><path class="cls-9" d="M306.51,19.4a82.38,82.38,0,0,1,10.9,3.14,62.75,62.75,0,0,1,8.43,3.81c4.63,2.56,7.07,4.86,6.63,5.79-1,2-12.76-2.18-27.55-5.25s-27.21-4.21-27.31-6.4c0-1,3.14-2.13,8.41-2.59a62.76,62.76,0,0,1,9.26-.06A82.38,82.38,0,0,1,306.51,19.4Z"/><path class="cls-9" d="M357.75,44.44a32.45,32.45,0,0,1,6.12,10.68c1,3.06.87,5.19-.07,5.63s-2.59-.79-4.62-2.92-4.52-5.16-7.29-8.45-5.32-6.26-7.09-8.62-2.71-4.17-2.09-5,2.71-.57,5.56.89A32.45,32.45,0,0,1,357.75,44.44Z"/><path class="cls-9" d="M367.32,553.4c2.58-2.66,5-5.26,7.12-7.65l5.7-6.46c3.28-3.7,5.55-6,6.51-5.45s.28,3.75-2,8.45a57.59,57.59,0,0,1-4.68,7.85,71.75,71.75,0,0,1-15.58,16,57.59,57.59,0,0,1-7.72,4.89c-4.64,2.4-7.87,3.11-8.39,2.22s1.66-3.27,5.27-6.65l6.31-5.87C362.19,558.5,364.72,556,367.32,553.4Z"/><path class="cls-9" d="M399.53,493.29c2-9.66,4.13-17.57,6.27-17.45,1,.08,1.87,2.22,2.19,5.66a52.17,52.17,0,0,1-5.22,25.92c-1.63,3.06-3.22,4.71-4.21,4.38C396.53,511.09,397.61,503,399.53,493.29Z"/></g></g></svg>