<svg xmlns="http://www.w3.org/2000/svg" viewBox="0 0 391.79 532.35"><defs><style>.cls-1{fill:#f9cdb7;}.cls-2{fill:#e2a78d;}.cls-3{fill:#213346;}.cls-4{fill:#bfe1ee;}.cls-5{fill:#dfe7ea;}.cls-6{fill:#e99a4f;}.cls-7{fill:#ce7149;}.cls-8,.cls-9{fill:#fff;}.cls-9{opacity:0.5;}</style></defs><title>Asset 17</title><g id="Layer_2" data-name="Layer 2"><g id="Layer_1-2" data-name="Layer 1"><circle class="cls-1" cx="345.9" cy="275.59" r="41.4"/><path class="cls-2" d="M333.5,312.37a41.4,41.4,0,1,0,0-79.56,41.41,41.41,0,0,1,0,79.56Z"/><circle class="cls-1" cx="45.9" cy="275.59" r="41.4"/><path class="cls-2" d="M55.4,314.37a41.4,41.4,0,1,1,0-79.56,41.41,41.41,0,0,0,0,79.56Z"/><path class="cls-3" d="M45.9,320.06a45.9,45.9,0,1,1,45.89-45.9A46,46,0,0,1,45.9,320.06Zm0-82.79a36.9,36.9,0,1,0,36.89,36.89A36.94,36.94,0,0,0,45.9,237.27Z"/><path class="cls-3" d="M21.27,281a3.1,3.1,0,0,1-.43,0,3.51,3.51,0,0,1-3.05-3.9c1.77-14.41,7.92-21.55,12.76-25a21.46,21.46,0,0,1,10.88-4.14,3.5,3.5,0,0,1,.28,7c-.65,0-14.28,1.11-17,23A3.5,3.5,0,0,1,21.27,281Z"/><path class="cls-3" d="M33.65,288.21a3.88,3.88,0,0,1-.82-.09,3.5,3.5,0,0,1-2.59-4.22,32.88,32.88,0,0,0,1-11.59,14.61,14.61,0,0,0-4.4-9.21,3.5,3.5,0,1,1,4.65-5.23,21.52,21.52,0,0,1,6.69,13.58,39.36,39.36,0,0,1-1.16,14.07A3.5,3.5,0,0,1,33.65,288.21Z"/><path class="cls-3" d="M345.9,320.06a45.9,45.9,0,1,1,45.89-45.9A46,46,0,0,1,345.9,320.06Zm0-82.79a36.9,36.9,0,1,0,36.89,36.89A36.94,36.94,0,0,0,345.9,237.27Z"/><path class="cls-3" d="M370.52,281a3.5,3.5,0,0,1-3.47-3.07c-2.69-21.94-16.39-23-17-23a3.52,3.52,0,0,1-3.32-3.66,3.47,3.47,0,0,1,3.6-3.34,21.46,21.46,0,0,1,10.88,4.14c4.85,3.45,11,10.59,12.76,25A3.5,3.5,0,0,1,371,281,3,3,0,0,1,370.52,281Z"/><path class="cls-3" d="M358.15,288.21a3.49,3.49,0,0,1-3.4-2.69,39.2,39.2,0,0,1-1.17-14.08,21.56,21.56,0,0,1,6.69-13.57,3.5,3.5,0,1,1,4.66,5.23,14.56,14.56,0,0,0-4.4,9.21,32.42,32.42,0,0,0,1,11.59,3.52,3.52,0,0,1-2.6,4.22A3.72,3.72,0,0,1,358.15,288.21Z"/><path class="cls-1" d="M196.57,61h2.79a146.1,146.1,0,0,1,146.1,146.1v95A147.5,147.5,0,0,1,198,449.67h0a147.5,147.5,0,0,1-147.5-147.5v-95A146.1,146.1,0,0,1,196.57,61Z"/><path class="cls-2" d="M216.7,446.7a147.74,147.74,0,0,1-20.29,1.41c-81.14,0-147.5-66.37-147.5-147.5v-97c0-79.3,64.87-144.18,144.17-144.18h6.65a142.14,142.14,0,0,1,17,1C152.26,68.11,96.42,126.84,86.17,192.3a509.6,509.6,0,0,1-13.33,61.87L59.49,300.61C59.49,374.86,145.07,436.74,216.7,446.7Z"/><path class="cls-3" d="M196.41,454.17a152.43,152.43,0,0,1-152-152V207.12A151,151,0,0,1,195,56.52h2.79a151,151,0,0,1,150.61,150.6v95.05a152.45,152.45,0,0,1-152,152ZM195,65.52a142,142,0,0,0-141.6,141.6v95.05a143.43,143.43,0,0,0,143,143h0a143.43,143.43,0,0,0,143-143V207.12A142,142,0,0,0,197.8,65.52Z"/><path class="cls-4" d="M330.44,277.5v.2C329.89,277.72,330.11,277.59,330.44,277.5Z"/><ellipse class="cls-5" cx="189.64" cy="471.35" rx="179.73" ry="52.86"/><path class="cls-6" d="M340.74,325.56c21.15,38.59,14.42,76.21,15.16,112.11L344.45,425A123.67,123.67,0,0,1,314.4,485a44.13,44.13,0,0,0-13.92-15.33,92.89,92.89,0,0,1-28.69,48.92,37.34,37.34,0,0,0-1.06-30.87,58.87,58.87,0,0,1-32.13,35.77,24.22,24.22,0,0,0,2.63-23.34c-11.66,19.79-45.18,20.39-57.53,1-.86,3.91-.23,9.05,3.76,9.38-16.8,2.59-32.18-4.49-43.74-16.95a28.25,28.25,0,0,0,9.37,18.32,51.33,51.33,0,0,1-42.69-28.35c-21.68,1.35-43.33-13.5-49.87-34.21a10.36,10.36,0,0,1-2.7,9.92C20.38,440.24,22.38,355,46.91,326.87c0,0,51.63,8.28,83,32.07,20,15.18,54.48-19.31,83.62-19.43,24.41-.11,37.46,30.85,53.1,16.16C308,316.82,340.38,324.9,340.74,325.56Z"/><path class="cls-7" d="M357.35,433.22,345.9,420.54a123.83,123.83,0,0,1-30,60,44.26,44.26,0,0,0-13.92-15.34,92.85,92.85,0,0,1-28.69,48.92,37.38,37.38,0,0,0-1.06-30.87A58.84,58.84,0,0,1,240.05,519a24.22,24.22,0,0,0,2.63-23.33c-11.66,19.79-45.18,20.39-57.53,1-.87,3.92.11,18.31,4.11,18.65-16.8,2.58-32.53-13.75-44.09-26.22.67,7,2.41,19.59,7.68,24.23-17.9-.91-33.22-18.12-41-34.26-21.68,1.35-43.33-13.5-49.87-34.21a10.38,10.38,0,0,1-2.7,9.93C46.34,448.23,37.8,434,33.19,416.91,49.75,429,69.24,437.27,88.51,444.7c13.08,5,26.33,9.83,40.12,12.34,13.38,2.43,27.05,2.67,40.65,2.91,37.73.65,77,1,111.14-15.22,9.78-4.65,20.09-12.6,19.75-23.43-.39-12.38-13.93-19.44-25.48-23.87,24.6-3.65,44.78-22.73,56-44.92a136.88,136.88,0,0,0,9.89-26.39l3.31,2.58C354,364.15,356.61,397.32,357.35,433.22Z"/><path class="cls-6" d="M180.3,341l-49.84,18.58-82-37.21a62.33,62.33,0,0,0-12.09,21.43A237,237,0,0,1,86,361.31a244.47,244.47,0,0,1,22.74,12.33c4,2.46,12.45,10.51,17.42,9.89a10.29,10.29,0,0,0,4.12-1.85c45.61-29.33,79.08-30.62,132.55-21.06L237.74,346Z"/><path class="cls-3" d="M261.36,532.35,269.09,514a32.54,32.54,0,0,0,2.3-16.08,63.44,63.44,0,0,1-29.54,26.86l-15.22,6.65L236.41,518A19.55,19.55,0,0,0,240,507.55c-6.64,5.87-15.71,9.29-25.74,9.47a40.79,40.79,0,0,1-22.06-5.69c1.1,5.49,1.16,10.38-3.1,12.33l-1.88.87-1.88-.87c-13.79-6.36-24.61-12.91-33.69-20.51,1.53,6.3,3.28,8.56,4.17,9.34l9.71,8.53-12.91-.66c-19.13-1-35-18.9-43.5-35h-.06c-18.58,0-36.48-10.43-46.17-26.13l-.47.48L60.12,462l-2.88-1.46C43,453.25,32.7,436.8,28.31,414.16,21.88,381,29.19,340.91,45,322.83a4.5,4.5,0,1,1,6.78,5.92c-14.15,16.22-20.57,53-14.61,83.7,3.45,17.74,10.68,31,20.55,37.85a5.39,5.39,0,0,0-.06-2.56l8.64-2.54c5.89,18.64,25.8,32.28,45.3,31.07l3-.19,1.32,2.73C123.72,495,134.47,504.86,144,509a85.81,85.81,0,0,1-3.29-17.82L139.42,478l9.05,9.75c9,9.69,19.89,17.53,34.83,25-.35-1.64-.78-3.38-1.09-4.62-1.3-5.17-2-8.22-1.46-10.69l2.33-10.64,5.86,9.18c4.95,7.76,14.36,12.28,25.15,12.09s20-5,24.71-13l4.51-7.66,3.5,8.17a28.27,28.27,0,0,1,2,14.82,54.35,54.35,0,0,0,19.11-26.83L271.21,473l5,9.89a41.62,41.62,0,0,1,4.38,18.57,88.11,88.11,0,0,0,16.95-35.57l1.43-6.48,5.49,3.73a48.76,48.76,0,0,1,11.95,11.55,120.21,120.21,0,0,0,25.08-53.29l1.69-8.89,10.47,11.59c2.16-37.59-3.37-68.28-17.17-95.91a4.5,4.5,0,1,1,8-4c15.83,31.7,21.33,67,17.31,111.15l-.93,10.24-12.53-13.87a127.51,127.51,0,0,1-29.2,53.55l-4.26,4.65-3-5.54a39.94,39.94,0,0,0-7.38-9.62,97.41,97.41,0,0,1-28.29,44.41Z"/><path class="cls-1" d="M163.08,427.38a10.16,10.16,0,0,1-10.14-10.13V378.49a10.17,10.17,0,0,1,10.14-10.14H234a10.17,10.17,0,0,1,10.13,10.14v38.76A10.16,10.16,0,0,1,234,427.38"/><path class="cls-2" d="M245.85,382.71v12a10.15,10.15,0,0,0-9.29-6.1H165.61a10.16,10.16,0,0,0-10.14,10.13V425.5a10.1,10.1,0,0,1-.84-4V382.71a10.16,10.16,0,0,1,10.13-10.13h71A10.16,10.16,0,0,1,245.85,382.71Z"/><path class="cls-3" d="M198.13,367.18c7.32,0,14.47,0,21.37.1l10.16.12,2.48,0,1.23,0h.34l.45,0,.89.06a14.83,14.83,0,0,1,6.56,2.4,14.65,14.65,0,0,1,6.5,11.19l0,.81v.68l0,1.11L248,386c0,1.45-.08,2.89-.13,4.3-.18,5.64-.38,10.9-.61,15.69s-.48,9.14-.75,12.95c0,.48-.06.95-.1,1.41,0,.23,0,.46,0,.68s-.05.55-.08.81a12.57,12.57,0,0,1-.77,3.1,12,12,0,0,1-3.1,4.42A10.12,10.12,0,0,1,236,432a4.84,4.84,0,0,1-1.78-.27c-.39-.15-.58-.31-.58-.49s.19-.35.52-.54l1.41-.68a10.84,10.84,0,0,0,4.06-3.37,8.74,8.74,0,0,0,1.39-3.21,8.13,8.13,0,0,0,.13-1.92l0-.53c0-.22,0-.45-.05-.68,0-.46-.07-.93-.1-1.41-.27-3.81-.52-8.15-.74-12.95s-.44-10.05-.62-15.69c0-1.41-.09-2.85-.13-4.3l-.06-2.21,0-1.11v-.28l0-.16,0-.32a5.7,5.7,0,0,0-2.72-4.14,5.59,5.59,0,0,0-2.44-.77h-.76l-1.23,0-2.48,0-10.16.12c-6.9.07-14.05.11-21.37.11s-14.47,0-21.37-.11L166.59,377l-2.47,0-1.23,0h-.76a5.59,5.59,0,0,0-2.44.77,5.7,5.7,0,0,0-2.72,4.14l0,.32,0,.16v.28l0,1.11-.06,2.21c0,1.45-.09,2.89-.13,4.3-.18,5.64-.39,10.9-.62,15.69s-.47,9.14-.74,12.95c0,.48-.07.95-.1,1.41,0,.23,0,.46,0,.68l0,.53a8.13,8.13,0,0,0,.13,1.92,8.58,8.58,0,0,0,1.39,3.21,10.69,10.69,0,0,0,4.06,3.37l1.4.68c.34.19.52.37.52.54s-.18.34-.57.49a4.84,4.84,0,0,1-1.78.27,10.14,10.14,0,0,1-6.5-2.68,12,12,0,0,1-3.09-4.42,12.57,12.57,0,0,1-.77-3.1c0-.26-.07-.59-.08-.81l-.06-.68c0-.46-.06-.93-.1-1.41-.26-3.81-.51-8.15-.74-12.95s-.43-10.05-.61-15.69c0-1.41-.09-2.85-.13-4.3,0-.73-.05-1.47-.07-2.21l0-1.11V382l0-.81a14.74,14.74,0,0,1,13.06-13.59l.89-.06.45,0h.34l1.23,0,2.47,0,10.17-.12C183.66,367.21,190.81,367.18,198.13,367.18Z"/><path class="cls-3" d="M59.48,346.35a37.83,37.83,0,0,0,.49,9.41,39.45,39.45,0,0,0,3,9.29,40.75,40.75,0,0,1-5.73-8.37,42.54,42.54,0,0,1-3.46-9.9,46.05,46.05,0,0,1-1-10.71,50.92,50.92,0,0,1,.42-5.48,35.69,35.69,0,0,1,1.17-5.68l10.41,4.56a24.7,24.7,0,0,0-2,3.68,43.89,43.89,0,0,0-1.6,4.2A39.74,39.74,0,0,0,59.48,346.35Z"/><path class="cls-3" d="M75,354.9c.81,7.4,4.1,14.8,8.86,21.21a47.35,47.35,0,0,1-14.38-19.87,38.82,38.82,0,0,1-2.31-12.95,35.09,35.09,0,0,1,2.63-13.62l10,5.38C76,340.17,74.21,347.57,75,354.9Z"/><path class="cls-3" d="M103.32,360.47a51,51,0,0,0,6.84,20.32,54,54,0,0,1-12.35-18.93A56.65,56.65,0,0,1,94,338.38l11.2,1.92A47.79,47.79,0,0,0,103.32,360.47Z"/><path class="cls-3" d="M287.66,356.41a26.93,26.93,0,0,1-.31,8.78c-.5,2.23-1.26,3.53-2,3.48-1.43-.15-2-5.39-2.82-11.65s-1.36-11.51,0-12c.66-.22,1.71.87,2.72,2.91A27,27,0,0,1,287.66,356.41Z"/><path class="cls-3" d="M310.19,350.49a35.36,35.36,0,0,1-2.39,12.16c-1.21,3-2.49,4.54-3.14,4.31-1.37-.52.25-7.73.42-16.61s-.95-16.16.45-16.6c.65-.19,1.85,1.45,2.91,4.47A35.62,35.62,0,0,1,310.19,350.49Z"/><path class="cls-3" d="M333.91,346.82a53,53,0,0,1,.5,9.22,44.45,44.45,0,0,1-.88,7.48c-.89,4.19-2.12,6.59-2.77,6.45-1.47-.31-.09-10.37-1.91-22.42s-5.7-21.42-4.36-22.11c.6-.31,2.41,1.68,4.41,5.46a46.7,46.7,0,0,1,2.91,6.93A56.29,56.29,0,0,1,333.91,346.82Z"/><path class="cls-3" d="M68.25,449.13a41,41,0,0,1-.26-8.64,36.07,36.07,0,0,1,.52-3.73,28.41,28.41,0,0,1,.79-3.18c1.19-3.83,2.68-5.88,3.3-5.66s.47,2.63.25,6.32c0,.92-.12,1.92-.13,3s0,2.22,0,3.41a68.87,68.87,0,0,0,.61,7.76A75.5,75.5,0,0,0,74.89,456c.34,1.15.63,2.26,1,3.27s.66,2,1,2.85c1.24,3.47,2.14,5.7,1.53,6.13s-2.54-1.16-4.76-4.51A26.15,26.15,0,0,1,72,460.94a35.74,35.74,0,0,1-1.55-3.44A41.24,41.24,0,0,1,68.25,449.13Z"/><path class="cls-3" d="M100.32,463a52.94,52.94,0,0,1-.06-13.92c.47-3.51,1.17-5.64,1.87-5.63s1.28,2.19,1.74,5.63.8,8.16,1.51,13.2c.37,2.51.82,4.86,1.3,7,.29,1,.5,2.06.8,3q.19.7.39,1.35l.41,1.23c1,3.14,1.89,5.16,1.29,5.61s-2.46-.92-4.52-4l-.78-1.23c-.25-.43-.48-.9-.73-1.39a31.63,31.63,0,0,1-1.37-3.18A41.46,41.46,0,0,1,100.32,463Z"/><path class="cls-3" d="M138.57,469.67c-4.22-15-4.79-27.65-3.43-27.82s4.23,11.85,8.35,26.45,7.93,26.36,6.6,26.93S142.74,484.66,138.57,469.67Z"/><path class="cls-3" d="M251.46,481.82c1.89-6.31,3.22-12.24,4.4-16.52s2.17-6.94,2.88-6.83.94,2.91.68,7.41a78.07,78.07,0,0,1-3.07,17.43,59.38,59.38,0,0,1-3.67,9.2,42.39,42.39,0,0,1-2.2,3.76c-.37.57-.73,1.13-1.1,1.64l-1.13,1.43c-3,3.61-5.46,5.14-5.93,4.69s.94-2.87,2.92-6.68c.25-.47.5-1,.77-1.49l.78-1.65c.56-1.12,1-2.39,1.62-3.67C249.45,487.91,250.5,485,251.46,481.82Z"/><path class="cls-3" d="M281.25,470.44c1.34-7.68,2-14.9,3-20.1s1.81-8.37,2.51-8.31,1.07,3.35,1.08,8.62a122.32,122.32,0,0,1-1.55,20.69,60.77,60.77,0,0,1-3.08,11.26,42.45,42.45,0,0,1-4.42,8.53c-3.14,4.54-6,6.46-6.51,6s1.27-3.2,3.37-7.8a68.21,68.21,0,0,0,3.11-8.29A89.28,89.28,0,0,0,281.25,470.44Z"/><path class="cls-3" d="M311.39,451.23c1.49-6.22,2.52-12,3.48-16.23s1.83-6.81,2.54-6.73,1.08,2.78,1,7.15a78.88,78.88,0,0,1-2.11,17,58.26,58.26,0,0,1-3,9.11c-.63,1.35-1.19,2.63-1.87,3.78-.33.57-.63,1.13-1,1.65l-1,1.47c-2.59,3.69-4.87,5.39-5.38,5s.61-2.87,2.22-6.72c.2-.48.42-1,.64-1.51s.41-1.08.62-1.66c.47-1.12.85-2.38,1.32-3.67C309.79,457.25,310.63,454.34,311.39,451.23Z"/><path class="cls-3" d="M321.6,441.84c1.61-3.95,2.93-7.79,4-11.33.5-1.78,1-3.46,1.41-5.07s.78-3.1,1.1-4.47c1.26-5.5,1.93-9,2.68-9s1.27,3.64.89,9.52c-.1,1.46-.24,3.07-.52,4.78s-.61,3.53-1,5.44a76,76,0,0,1-9.69,23.34c-1.07,1.63-2.07,3.19-3.13,4.56s-2.05,2.64-3,3.74c-3.89,4.43-6.89,6.55-7.37,6.09s1.47-3.46,4.47-8.24c.75-1.2,1.57-2.5,2.39-3.94s1.69-3,2.6-4.58C318.16,449.42,320,445.77,321.6,441.84Z"/><path class="cls-8" d="M41.38,364.78c.75-3.65,2.73-6.2,4.07-5.78s1.62,3.43.93,6.81-2.14,6-3.55,5.89S40.63,368.42,41.38,364.78Z"/><path class="cls-8" d="M42.64,404.21a53,53,0,0,1-1.88-14.87c.13-3.85.79-6.2,1.47-6.2,1.47,0,2.42,9.08,5.35,19.74s6.63,19,5.37,19.72c-.59.34-2.36-1.34-4.42-4.6A51.58,51.58,0,0,1,42.64,404.21Z"/><path class="cls-3" d="M130.55,363.73h-.49c-5.14-.18-9.18-3.24-12.42-5.71l-.2-.15a157,157,0,0,0-68.07-29.49,4.5,4.5,0,0,1,1.52-8.87,166.07,166.07,0,0,1,72,31.19l.2.15c2.46,1.87,5,3.8,7.3,3.89s4.87-1.61,7.58-3.4l.77-.5c15.36-10,35.29-15.56,56.13-15.56h0c20.83,0,40.77,5.52,56.13,15.56l.77.5c2.71,1.79,5.25,3.48,7.58,3.4s4.84-2,7.3-3.89l.2-.15a166.07,166.07,0,0,1,72-31.19,4.5,4.5,0,0,1,1.52,8.87,157,157,0,0,0-68.07,29.49l-.2.15c-3.24,2.46-7.28,5.53-12.42,5.71s-9.43-2.62-12.85-4.87l-.74-.49c-28.72-18.76-73.71-18.76-102.43,0l-.74.49C139.6,361,135.5,363.73,130.55,363.73Z"/><path class="cls-3" d="M195.39,318.4a3.5,3.5,0,0,1-3.5-3.5V268.31a3.5,3.5,0,0,1,7,0V314.9A3.5,3.5,0,0,1,195.39,318.4Z"/><path class="cls-2" d="M209.25,194.71c-1.68,7.42-1.08,17.32,4.13,23.31,6.07,7,15.65,5.56,23.92,5.22a103.26,103.26,0,0,1,30,3.06c8,2,15.14,6.95,23.27,8.36,8.91,1.55,11-3.19,5.06-9.72-6.94-7.66-17-15.81-26.44-20.25a118.77,118.77,0,0,0-59.61-10.31"/><path class="cls-6" d="M210.19,183.79c-1.68,7.41-1.09,17.31,4.12,23.3,6.07,7,15.65,5.57,23.92,5.22a103.23,103.23,0,0,1,30,3.07c8,2.05,15.15,6.94,23.27,8.36,8.91,1.55,11-3.2,5.07-9.73-6.95-7.65-17-15.81-26.45-20.24a118.64,118.64,0,0,0-59.6-10.32"/><path class="cls-3" d="M294.6,227.53a21.4,21.4,0,0,1-3.68-.35c-4.88-.84-9.33-2.79-13.63-4.67a65.63,65.63,0,0,0-9.91-3.74,99.68,99.68,0,0,0-29-3c-.89,0-1.79.08-2.69.13-7.79.43-17.48,1-24-6.55-6.37-7.32-6.62-18.78-4.9-26.37a3.52,3.52,0,0,1,1.16-1.91,3.48,3.48,0,0,1,2.26-1.14,122,122,0,0,1,61.44,10.63c9.08,4.27,19.64,12.34,27.55,21.06,5.45,6,4.5,10.13,3.44,12.05C301.77,225.25,299.66,227.53,294.6,227.53Zm-51.81-18.82A105.61,105.61,0,0,1,269.13,212a72.87,72.87,0,0,1,11,4.1c4.1,1.8,8,3.49,12,4.2a8.67,8.67,0,0,0,4.3,0c-.08-.54-.6-1.9-2.43-3.91-7.32-8.08-17-15.53-25.34-19.44a115.35,115.35,0,0,0-55.46-10.2c-.91,6.15-.12,13.61,3.76,18.07,4.29,4.93,11.12,4.55,18.35,4.15l2.78-.14C239.66,208.75,241.23,208.71,242.79,208.71Z"/><path class="cls-2" d="M183.07,186.43c1.68,7.42,1.09,17.32-4.12,23.31-6.08,7-15.65,5.56-23.92,5.21A103.64,103.64,0,0,0,125,218c-8,2-15.14,6.95-23.27,8.36-8.9,1.55-11-3.2-5.06-9.72,7-7.66,17-15.82,26.45-20.25,17.56-8.26,39.91-12.29,59.6-10.31"/><path class="cls-6" d="M178.31,175.81c1.68,7.42,1.09,17.32-4.12,23.31-6.08,7-15.66,5.56-23.93,5.21a103.27,103.27,0,0,0-30,3.07c-8,2-15.14,6.95-23.27,8.36-8.91,1.55-11-3.2-5.06-9.72,6.94-7.66,17-15.82,26.45-20.25,17.56-8.26,39.9-12.29,59.6-10.32"/><path class="cls-3" d="M93.9,219.55c-5.06,0-7.17-2.27-8-3.82-1.05-1.92-2-6,3.44-12,7.91-8.72,18.47-16.8,27.56-21.07A122.07,122.07,0,0,1,178.31,172a3.5,3.5,0,0,1,2.25,1.14,3.44,3.44,0,0,1,1.16,1.91c1.72,7.59,1.47,19.05-4.89,26.37-6.54,7.52-16.23,7-24,6.56l-2.69-.14a99.71,99.71,0,0,0-29,3,66,66,0,0,0-9.91,3.74c-4.3,1.88-8.75,3.83-13.63,4.68A21.29,21.29,0,0,1,93.9,219.55Zm-1.83-7.24a8.88,8.88,0,0,0,4.3,0c4-.7,7.93-2.4,12-4.19a72.1,72.1,0,0,1,11-4.11,106.66,106.66,0,0,1,31-3.17c.91,0,1.84.09,2.78.14,7.23.4,14.06.77,18.36-4.16,3.87-4.46,4.66-11.92,3.75-18.07A115.18,115.18,0,0,0,119.85,189c-8.31,3.9-18,11.35-25.35,19.43C92.67,210.41,92.15,211.77,92.07,212.31Z"/><path class="cls-7" d="M340.46,243.84c-6-46.08-35.17-92.93-58.18-123.34l-7-5.27,60-2.06C346.81,155.27,349.82,201.11,340.46,243.84Z"/><path class="cls-8" d="M249.46,120.86a38.06,38.06,0,0,1,6.86,3.6,29.12,29.12,0,0,1,4.87,4c2.51,2.63,3.45,4.8,2.77,5.58s-2.86.14-5.88-1.15c-1.51-.65-3.27-1.42-5.19-2.28s-4-1.75-6.26-2.65-4.4-1.67-6.37-2.4-3.8-1.34-5.34-1.9c-3.08-1.15-5.09-2.14-5-3.22s2.22-2,5.84-2.14a29.39,29.39,0,0,1,6.3.43A38.48,38.48,0,0,1,249.46,120.86Z"/><path class="cls-6" d="M92.19,132.81c29.19-4.84,58.37,3.32,87,9,29,5.73,57,5.91,86-.74,38.4-8.81,88.08-27.83,106.7-71.12A76.9,76.9,0,0,0,375,61.34c-20.42,14.6-47.12,12.59-69.71,3s-42.46-25.77-63.5-39.17S197.13.91,173.16,3.63c-23.29,2.64-47.76,17.86-65.39,35A78.55,78.55,0,0,0,91.53,60.7C88,68.12,87.33,78.9,81.26,84.4c-2.86,2.59-6.59,3.46-10,5.08-15.49,7.47-21.13,29-23.64,48-5.17,39-3.54,79,1.88,118"/><path class="cls-3" d="M344,247a4.31,4.31,0,0,1-1.12-.15,4.5,4.5,0,0,1-3.24-5.48c11.44-44.36,5.43-83.13-7.1-127.69a4.5,4.5,0,1,1,8.66-2.44c12.93,46,19.09,86.07,7.16,132.38A4.51,4.51,0,0,1,344,247Z"/><path class="cls-7" d="M84.69,146.36c0,1.6,0,3.18-.09,4.75L75.34,178.6l-3.12,9.24c-3.13,5.88-6.5,11.7-9.62,17.59S59.57,217,57.35,223a130.31,130.31,0,0,0-6.44,22.57c-2-10.35-6-20.67-7.22-31.15,4.9-4.13,7.94-10.22,9.47-16.49,1.66-6.79,1.69-13.86,1.72-20.85a34.9,34.9,0,0,1,7.45,16.14c.05-.22.1-.46.15-.69q4.08-19.68,6.46-39.66c.72,1.35,1.38,2.72,2,4.13a71.28,71.28,0,0,1,2.81,9.87c0-.33.09-.64.12-1Q76,150.39,76.69,134.7A48.12,48.12,0,0,1,84.69,146.36Z"/><path class="cls-7" d="M338,110.71a155.88,155.88,0,0,1-30.76,16c-2.21.87-4.44,1.72-6.67,2.52-4.79,1.72-9.61,3.25-14.4,4.64-8.59,2.5-17.07,4.5-25.07,6.1-29,5.82-57,5.66-86,.65-15.34-2.66-30.82-5.94-46.39-7.76h0l-37.41.79c0,.4.09.81.12,1.21l-1.06.14-1.67,4.22h0l-1.12,2.81c.18-1.56.3-3.14.34-4.74a56.14,56.14,0,0,0-.35-8.13l35.56-.75a95,95,0,0,1-13.84,2l1.47,0a70.84,70.84,0,0,0,14.31-2h0c10-2.44,23.3-8.24,32.64-12.89-1.21,3.52-4,10.23-7.47,11.6,13.7.77,23.75-2.55,37.16-5.45a30.37,30.37,0,0,1-12.68,10.25l-.52.22c.56,0,1.12,0,1.69,0,.17-.09.33-.19.49-.29a49.15,49.15,0,0,0,6.42-4.7s-3.72,6-3.72,6h0a103,103,0,0,0,44.29-4.43l5.39-1.77,5.76-.8c-1.71,1.75-6.58,3.31-8.61,4.67a34.78,34.78,0,0,1-9.85,4.61c1.37,0,3.49,2.12,4.85,2,10.13-.7,19.39-4.89,29.33-7.14,3.41-.77,7.56-2.33,11-3.14,3-.73,12.1-3.72,15-4.82L275,125.25l3.61-.08-2.11-.59-3,3c.11,0-.86,1.54-.75,1.5,16.8-4.79,47.23-14.23,63.65-20.18h1.07C337.63,109.47,337.82,110.08,338,110.71Z"/><path class="cls-3" d="M49.07,260.3a4.4,4.4,0,0,1-1.42-.23,4.51,4.51,0,0,1-2.85-5.69c3-8.87,40.51-120.88,40.89-122a4.5,4.5,0,0,1,8.54,2.86c-.38,1.13-37.94,113.13-40.89,122A4.5,4.5,0,0,1,49.07,260.3Z"/><path class="cls-8" d="M53.66,144.87a12,12,0,0,1,3.85-5.08c1.42-1,2.76-1.21,3.62-.61s1.14,1.88,1,3.42A20.34,20.34,0,0,1,58,152.52c-1,1.17-2.11,1.87-3.16,1.67s-1.81-1.31-2.09-3A12,12,0,0,1,53.66,144.87Z"/><path class="cls-8" d="M73.29,124.32c2.9-1.35,6-.89,6.87,1s-.73,4.57-3.63,5.93-6,.89-6.87-1S70.39,125.68,73.29,124.32Z"/><path class="cls-8" d="M86.6,109.93c2.1-4.46,5-7.73,7-7.06s2.24,5.38-.07,10.31-6.09,7.77-7.88,6.65S84.52,114.4,86.6,109.93Z"/><path class="cls-3" d="M70.57,69.83a55.25,55.25,0,0,0-9.49-9.16c-2.74-2-4.72-2.87-5.16-2.37-.89,1.07,4.59,7,10.86,14.67l2.69,3.26a17.67,17.67,0,0,0-6.57-.85c-2,.18-3.16.77-3.19,1.43s1,1.34,2.69,2,3.87,1.45,6.3,2.34,4.61,1.76,6.3,2.31l.77.23c1.72,1.88,2.94,2.92,3.46,2.62s.07-2.44-1.41-5.5A56.54,56.54,0,0,0,70.57,69.83Z"/><path class="cls-3" d="M189.84,121.17c-.54.28-1.18.64-1.9,1.06s-1.52.9-2.37,1.43l-1.32.83-1.38.88-2.93,1.88-1.53,1c-.26.16-.51.32-.78.47l-.78.48q-1.57.94-3.18,1.83c-1.07.57-2.15,1.12-3.22,1.63l-.82.36c-.26.13-.53.24-.81.36l-1.6.65c-1.07.4-2.11.8-3.13,1.09-.51.18-1,.29-1.49.44s-1,.24-1.43.37l-1.35.3-1.25.23c-.79.12-1.5.23-2.1.29s-1.08.11-1.41.15l-.52.07.41.31a10.67,10.67,0,0,0,1.24.79,16.92,16.92,0,0,0,2.09,1l1.36.43c.48.12,1,.24,1.54.35s1.12.18,1.71.23,1.22.09,1.85.09a22.9,22.9,0,0,0,4-.34,18.43,18.43,0,0,0,2.06-.44l1-.28,1-.34a27.94,27.94,0,0,0,4-1.77,34.42,34.42,0,0,0,3.63-2.31l.84-.64c.27-.21.53-.44.79-.66.53-.44,1-.89,1.51-1.36a33.1,33.1,0,0,0,2.6-2.77c.39-.46.75-.92,1.1-1.37l.95-1.32c.59-.87,1.1-1.68,1.52-2.42s.77-1.4,1-2,.46-1,.59-1.32l.19-.49-.47.22C190.82,120.66,190.38,120.88,189.84,121.17Z"/><path class="cls-3" d="M232.08,127.34l-2.08.93c-.79.37-1.67.79-2.64,1.22-.47.23-1,.48-1.47.71l-1.57.75L221,132.56c-.58.26-1.16.55-1.75.84-.3.15-.59.29-.9.42l-.9.43c-1.2.59-2.44,1.13-3.65,1.73s-2.46,1.15-3.68,1.68l-.91.41c-.3.15-.6.28-.9.41-.61.26-1.2.52-1.78.81-1.18.49-2.31,1.05-3.4,1.51-.55.24-1.08.47-1.59.72s-1,.44-1.5.66c-1,.46-1.86.86-2.65,1.22l-2.08,1c-.58.28-1,.52-1.35.69l-.48.27.53.12c.35.07.86.16,1.5.25a21.78,21.78,0,0,0,2.34.23,30.35,30.35,0,0,0,3,0c.55,0,1.13-.05,1.73-.1s1.2-.13,1.84-.21c1.26-.15,2.57-.42,3.93-.72.67-.16,1.35-.35,2-.55.34-.09.69-.19,1-.3l1-.36c1.39-.45,2.74-1,4.1-1.63s2.66-1.31,3.9-2.07l.94-.55c.31-.19.6-.39.9-.59.59-.4,1.18-.79,1.74-1.2,1.1-.85,2.16-1.66,3.09-2.53l1.35-1.27c.42-.42.81-.86,1.19-1.26a26,26,0,0,0,1.94-2.33,21.05,21.05,0,0,0,1.34-1.93c.35-.55.6-1,.77-1.31l.26-.49-.52.19C233.14,126.89,232.67,127.08,232.08,127.34Z"/><path class="cls-3" d="M285.59,114.78c-.58.47-1.29,1-2.1,1.64-.4.31-.82.65-1.26,1l-1.41,1.09c-.48.38-1,.79-1.49,1.19L277.72,121c-1.08.88-2.28,1.73-3.45,2.67-.62.44-1.22.91-1.84,1.38-.3.23-.61.47-.93.69l-.95.69c-1.25,1-2.58,1.85-3.86,2.79s-2.62,1.84-3.94,2.7l-1,.65c-.31.23-.64.44-1,.65-.65.42-1.29.83-1.92,1.26-1.28.78-2.49,1.63-3.69,2.34l-1.73,1.1c-.55.36-1.12.66-1.64,1l-1.51,1-1.38.84c-.87.54-1.63,1-2.27,1.42s-1.13.72-1.47,1l-.52.36h.63c.41,0,1,0,1.76-.05a26.4,26.4,0,0,0,2.72-.26l1.67-.25c.58-.11,1.18-.24,1.81-.39s1.3-.29,2-.48,1.36-.41,2.07-.63c1.42-.44,2.87-1,4.37-1.67.74-.33,1.48-.69,2.23-1.06.38-.18.76-.36,1.13-.57l1.11-.62c1.5-.81,2.94-1.78,4.39-2.74s2.79-2.05,4.07-3.18l1-.84c.32-.27.62-.57.92-.86.6-.59,1.2-1.16,1.76-1.74,1.1-1.2,2.15-2.35,3.05-3.54l1.3-1.73c.41-.57.76-1.15,1.12-1.68s.68-1.07,1-1.58l.8-1.48a24.8,24.8,0,0,0,1.17-2.47c.29-.7.5-1.26.64-1.64l.2-.59-.52.36C286.65,114,286.17,114.32,285.59,114.78Z"/><path class="cls-3" d="M75.07,168.26c0-.33,0-.66-.07-1-.07-.66-.14-1.3-.21-1.94s-.22-1.25-.33-1.86a16,16,0,0,0-.4-1.75c-.16-.57-.32-1.11-.47-1.64s-.38-1-.56-1.5-.38-.92-.55-1.35-.42-.8-.61-1.17a13.83,13.83,0,0,0-1.09-1.82c-.34-.49-.61-.86-.79-1.11l-.29-.39.11.47.35,1.3c.17.55.33,1.23.49,2,.09.38.18.79.28,1.22s.14.89.22,1.37.2,1,.24,1.47.12,1,.18,1.59.1,1.1.14,1.67.11,1.15.1,1.75,0,1.2,0,1.81c0,.31,0,.62,0,.93l0,.93q0,.94-.06,1.89c0,.64-.06,1.27-.11,1.91-.11,1.27-.2,2.55-.36,3.8l-.1.94-.12.94c-.08.61-.15,1.22-.23,1.83-.19,1.19-.32,2.37-.51,3.47-.08.56-.16,1.1-.23,1.62s-.16,1-.24,1.52c-.14,1-.27,1.87-.39,2.67s-.2,1.5-.27,2.07-.13,1-.16,1.35,0,.48,0,.48l.23-.42.61-1.21c.26-.53.55-1.17.88-1.92s.67-1.59,1-2.53l.54-1.47q.24-.76.51-1.59c.36-1.09.65-2.27,1-3.49.15-.61.28-1.24.41-1.87l.2-1,.15-1c.23-1.3.37-2.65.48-4,.06-.67.06-1.36.09-2a19.44,19.44,0,0,0,0-2Z"/><path class="cls-3" d="M62.89,191.23l-.23-.94c-.08-.31-.17-.62-.27-.92-.19-.61-.36-1.21-.59-1.78a24.73,24.73,0,0,0-1.44-3.24c-.26-.5-.52-1-.8-1.43s-.56-.88-.84-1.28a22.14,22.14,0,0,0-1.65-2.09c-.53-.59-1-1.07-1.44-1.45s-.77-.66-1-.84l-.37-.27.22.4c.14.26.36.64.62,1.13s.57,1.07.89,1.75.68,1.46,1,2.31c.18.42.35.86.52,1.33s.34.94.5,1.43c.34,1,.64,2,.92,3.14.15.54.26,1.11.39,1.67.07.29.13.57.18.86l.16.87c.21,1.16.37,2.35.5,3.55s.19,2.39.21,3.58v.89a8.42,8.42,0,0,1,0,.87c0,.59,0,1.16,0,1.73s-.05,1.13-.1,1.67-.09,1.09-.16,1.61-.11,1-.18,1.52-.13,1-.22,1.43c-.14.91-.31,1.75-.46,2.5s-.31,1.4-.43,1.94l-.3,1.26c-.07.3-.1.45-.1.45l.27-.37c.18-.24.44-.6.75-1.07s.66-1.07,1-1.77a24.08,24.08,0,0,0,1.12-2.41c.2-.45.35-.93.53-1.43s.33-1,.48-1.56.29-1.1.41-1.68.24-1.17.33-1.78.17-1.23.23-1.86c0-.32.06-.64.08-.95l0-1a32.15,32.15,0,0,0-.12-3.92A35.27,35.27,0,0,0,62.89,191.23Z"/><path class="cls-3" d="M340.52,135.12c-.56-.33-2.35,1.41-4.39,4.82a31.05,31.05,0,0,0-1.53,2.85c-.53,1-1,2.19-1.5,3.41a54.73,54.73,0,0,0-2.4,8.19,53.3,53.3,0,0,0-1,8.48c0,1.31,0,2.55,0,3.72s.16,2.24.29,3.22c.54,3.94,1.5,6.24,2.14,6.16,1.42-.19,1-9.55,3.37-20.59S341.75,135.85,340.52,135.12Z"/><path class="cls-3" d="M332.65,76.3q.6-.6,1.08-1.11c1.28-1.36,1.88-2.21,1.67-2.46s-1.68.43-4.06,1.79q.2-.28.12-.42c-.32-.6-3.28.45-8,1.89-1.18.36-2.47.76-3.87,1.11s-2.89.74-4.46,1.13c-3.16.7-6.64,1.35-10.34,1.81s-7.24.61-10.48.67c-1.61,0-3.15,0-4.59,0s-2.79-.11-4-.17c-4.93-.3-8-.62-8.21,0s2.72,2,7.75,3.17a39.25,39.25,0,0,0,4.15.75c1.5.25,3.12.36,4.83.49a68.2,68.2,0,0,0,11.11-.34,68,68,0,0,0,10.48-2.16A105.26,105.26,0,0,1,303,86.69a105.34,105.34,0,0,1-13.4,2.42c-2.09.18-4.08.41-5.94.45-.94,0-1.84.12-2.71.12l-2.51,0c-6.38,0-10.4-.39-10.54.3-.06.31.87.77,2.65,1.35l1.48.45c.55.14,1.15.26,1.79.4a42.19,42.19,0,0,0,4.43.73l2.6.29c.9.08,1.85.09,2.83.14,2,.12,4.05,0,6.26,0a78.72,78.72,0,0,0,14.2-2.19,78.61,78.61,0,0,0,13.5-4.9c2-1,3.85-1.92,5.51-3,.84-.51,1.66-1,2.42-1.48l2.14-1.5a44.2,44.2,0,0,0,3.53-2.77C331.77,77.08,332.24,76.69,332.65,76.3Z"/><path class="cls-3" d="M258.59,56.35c.84-.51,1.67-1,2.42-1.49l2.14-1.49a42.47,42.47,0,0,0,3.53-2.77c.5-.43,1-.82,1.38-1.21s.77-.77,1.09-1.11c1.27-1.36,1.87-2.22,1.67-2.46s-1.69.43-4.07,1.79c.13-.19.17-.33.12-.43-.32-.59-3.27.46-8,1.9-1.18.35-2.47.75-3.87,1.11s-2.89.74-4.46,1.13c-3.15.7-6.64,1.35-10.34,1.8s-7.24.61-10.47.68c-1.62,0-3.16,0-4.6,0s-2.79-.11-4-.18c-4.92-.29-8-.61-8.21,0s2.72,2,7.75,3.17c1.26.28,2.65.56,4.15.75s3.12.36,4.83.49a67.15,67.15,0,0,0,11.11-.35,66.79,66.79,0,0,0,10.48-2.16,104.66,104.66,0,0,1-12.79,4.27A105.34,105.34,0,0,1,225,62.2c-2.09.18-4.07.41-5.94.45-.94,0-1.84.12-2.71.12l-2.5,0c-6.39,0-10.41-.39-10.55.29-.06.31.87.78,2.65,1.36l1.48.45c.55.14,1.15.26,1.79.4a42.64,42.64,0,0,0,4.43.73l2.6.28c.9.09,1.85.1,2.83.15,2,.12,4,0,6.26,0a79.62,79.62,0,0,0,14.2-2.19,78.61,78.61,0,0,0,13.5-4.9C255.05,58.32,256.93,57.4,258.59,56.35Z"/><path class="cls-3" d="M195.19,30.86c.37-.2.73-.43,1.11-.66.73-.47,1.54-.92,2.32-1.45.41-.24.8-.5,1.2-.76.21-.13.41-.27.62-.39l.61-.4c.81-.54,1.66-1.05,2.48-1.62s1.64-1.1,2.47-1.63l.6-.41c.2-.15.4-.28.6-.41.41-.27.81-.53,1.19-.81.79-.52,1.53-1.08,2.26-1.57l1-.76c.34-.26.67-.49,1-.72l1.76-1.33c.52-.43,1-.8,1.37-1.1s.68-.59.88-.77l.15-.14.21-.06,1.73-.51.62-.2-.62-.19c-.41-.12-1-.29-1.77-.45s-1.69-.35-2.77-.5-2.3-.26-3.64-.33c-.67,0-1.37,0-2.1,0s-1.47,0-2.23.07a47,47,0,0,0-4.82.5c-.83.13-1.67.29-2.52.47l-1.28.28-1.28.32A43.6,43.6,0,0,0,191.24,17a39.83,39.83,0,0,0-4.92,2.38c-.39.22-.78.45-1.16.69l-1.13.73c-.73.51-1.46,1-2.13,1.56a28.65,28.65,0,0,0-3.65,3.44l-.78.89-.7.92a17.84,17.84,0,0,0-1.22,1.8,15.91,15.91,0,0,0-1,1.75c-.14.28-.27.55-.41.82s-.21.55-.31.81a18.1,18.1,0,0,0-.83,2.76,13.93,13.93,0,0,0-.26,1.82c0,.41,0,.63,0,.63l.41-.49c.28-.32.61-.81,1.11-1.37s1.07-1.25,1.8-2l.54-.55.61-.56c.41-.38.83-.78,1.31-1.15s.93-.8,1.47-1.18l.78-.59.83-.58c1.11-.79,2.36-1.53,3.64-2.28l2-1.09,1-.52q.51-.27,1.05-.51c1.42-.69,2.91-1.31,4.4-1.92,1.16-.46,2.32-.9,3.5-1.32l0,0-.63.53c-.21.18-.4.37-.6.56-.39.37-.77.74-1.13,1.12a27.05,27.05,0,0,0-2,2.33c-.28.39-.56.76-.81,1.14s-.48.76-.69,1.13a18.31,18.31,0,0,0-1,2.06,12.12,12.12,0,0,0-.65,1.69c-.16.48-.26.87-.33,1.13l-.09.42.39-.17c.25-.11.61-.28,1.05-.5l1.53-.82,1.9-1.07Z"/><path class="cls-3" d="M107.52,78.93q-.13-.72-.33-1.71l-.46-2.13c-.1-.38-.19-.78-.29-1.19s-.2-.82-.31-1.25c-.23-.84-.42-1.75-.7-2.65-.1-.46-.23-.91-.37-1.38-.07-.23-.13-.46-.19-.7l-.2-.7c-.28-.94-.51-1.9-.81-2.84s-.57-1.9-.83-2.85l-.21-.7c-.09-.23-.15-.46-.22-.69-.14-.46-.27-.92-.43-1.37-.25-.91-.57-1.78-.83-2.62l-.41-1.23c-.15-.4-.27-.79-.4-1.17l-.75-2.06-.65-1.64c-.18-.46-.35-.82-.47-1.07l-.09-.18v-.22c0-.77,0-1.39,0-1.8s0-.65,0-.65l-.36.53c-.24.35-.57.87-1,1.55s-.83,1.52-1.29,2.51-.93,2.12-1.4,3.38c-.21.63-.44,1.29-.66,2s-.4,1.42-.6,2.16c-.37,1.49-.7,3.09-.94,4.75q-.18,1.24-.3,2.55L92,66.84q0,.66-.06,1.32A42.83,42.83,0,0,0,92,73.58a39.33,39.33,0,0,0,.82,5.4c.09.44.19.88.31,1.31l.37,1.3c.27.85.54,1.69.86,2.49a29.54,29.54,0,0,0,2.21,4.51l.62,1,.67.93a19.84,19.84,0,0,0,1.36,1.7,15.78,15.78,0,0,0,1.39,1.43l.67.63.68.54a17.42,17.42,0,0,0,2.39,1.6,12.55,12.55,0,0,0,1.66.79l.59.24-.35-.54c-.22-.36-.59-.82-1-1.47s-.88-1.39-1.34-2.3l-.37-.67-.35-.75c-.24-.5-.5-1-.72-1.59s-.49-1.13-.69-1.75c-.11-.3-.22-.61-.34-.92l-.3-1c-.43-1.3-.76-2.71-1.11-4.15-.14-.74-.29-1.48-.44-2.23L99.44,79a11.19,11.19,0,0,1-.18-1.16c-.24-1.55-.39-3.16-.54-4.76-.1-1.25-.17-2.49-.22-3.74v0l.32.75c.11.25.23.5.35.74.25.48.48,1,.74,1.41a28.05,28.05,0,0,0,1.65,2.55c.29.38.57.76.86,1.11s.58.69.87,1A18.9,18.9,0,0,0,105,78.52a12.68,12.68,0,0,0,1.42,1.12c.41.3.75.51,1,.65l.37.21s0-.15,0-.42S107.6,79.41,107.52,78.93Z"/><path class="cls-3" d="M157.63,30.1c.21-.26.41-.52.63-.76l.62-.77c.82-1,1.69-2.06,2.5-3.13s1.66-2.11,2.5-3.13l.6-.79c.19-.27.4-.52.6-.78.41-.51.81-1,1.18-1.54.8-1,1.52-2,2.25-3,.36-.48.7-1,1-1.41s.66-.92,1-1.35l1.7-2.45c.5-.77.93-1.44,1.3-2s.63-1,.81-1.36l.13-.24.25-.17,2-1.38.71-.52h-.87c-.58,0-1.41.06-2.46.17s-2.34.26-3.79.52-3.07.63-4.82,1.1c-.87.26-1.78.52-2.71.83s-1.88.66-2.85,1c-1.94.76-4,1.64-6,2.67-1,.52-2,1.07-3,1.66l-1.53.9-1.51.95a65.41,65.41,0,0,0-5.9,4.36,52.74,52.74,0,0,0-5.32,5.14c-.42.44-.82.9-1.21,1.37l-1.14,1.41c-.73,1-1.45,1.92-2.09,2.91a39.74,39.74,0,0,0-3.25,6q-.31.75-.63,1.47t-.51,1.47a25.35,25.35,0,0,0-.81,2.83,22.86,22.86,0,0,0-.5,2.66c0,.42-.11.83-.17,1.23s0,.79-.06,1.17a22.82,22.82,0,0,0,.1,3.9,18.82,18.82,0,0,0,.42,2.44l.2.85.32-.81c.23-.53.45-1.3.86-2.23s.85-2.06,1.49-3.28l.46-.94.55-1a23.46,23.46,0,0,1,1.2-2c.44-.69.86-1.42,1.39-2.12l.76-1.1.83-1.09c1.09-1.49,2.39-3,3.72-4.47l2.11-2.23L141.81,32c.36-.38.74-.75,1.13-1.11,1.54-1.47,3.19-2.89,4.85-4.31,1.3-1.08,2.61-2.13,4-3.17l0,0-.59.95c-.19.31-.36.64-.53,1-.34.65-.68,1.28-1,1.93a38.56,38.56,0,0,0-1.52,3.8c-.2.63-.4,1.23-.57,1.82s-.29,1.18-.41,1.74a27.31,27.31,0,0,0-.49,3.1,18.32,18.32,0,0,0-.12,2.44c0,.68,0,1.23,0,1.6l.06.57L147,42c.28-.25.67-.62,1.14-1.09l1.63-1.69,2-2.18c.35-.4.71-.82,1.09-1.24s.75-.87,1.14-1.32c.75-.92,1.6-1.84,2.38-2.84C156.83,31.11,157.23,30.61,157.63,30.1Z"/><path class="cls-3" d="M188.32,415.9a115.94,115.94,0,0,1-19.23-1.61,3.5,3.5,0,1,1,1.26-6.88c.31,0,30.65,5.45,44.82-4.67A15.44,15.44,0,0,0,221.82,392a3.5,3.5,0,1,1,6.92,1,22.47,22.47,0,0,1-9.51,15.42C210.9,414.39,198.63,415.9,188.32,415.9Z"/><circle class="cls-9" cx="260.6" cy="260.93" r="5.28"/><circle class="cls-3" cx="245.8" cy="264.38" r="22.91"/><circle class="cls-1" cx="256.02" cy="247.35" r="12.7"/><path class="cls-8" d="M300.59,168.74c1.29,2.37,1.34,4.85.1,5.52s-3.29-.7-4.58-3.08-1.34-4.85-.1-5.52S299.3,166.36,300.59,168.74Z"/><path class="cls-8" d="M310.25,189.88c1.94,3.62,2.51,7.1,1.27,7.77s-3.83-1.73-5.77-5.36-2.52-7.1-1.27-7.77S308.3,186.25,310.25,189.88Z"/><path class="cls-2" d="M299.47,144.54a262.36,262.36,0,0,1-35.32,10.62c-29,6.65-57,6.47-86,.74-25.17-5-50.77-11.88-76.43-10.17q2.81-6.3,6.16-12.27l18.41-.39c10.64,1.22,21.21,3.34,31.78,5.55.36.16.75.32,1.18.49l1.36.43c.48.12,1,.24,1.54.35s1.12.18,1.71.23,1.22.09,1.85.09h.06c7.43,1.54,14.86,3,22.32,4.12,2.23.33,4.49.63,6.8.88l-.46.26.53.12c.35.07.86.16,1.5.25a21.78,21.78,0,0,0,2.34.23,30.35,30.35,0,0,0,3,0c.53,0,1.1-.05,1.68-.1,27.91,1.92,60.1-1.45,89.18-11.39C295,137.79,297.22,141.11,299.47,144.54Z"/><path class="cls-3" d="M48.53,260.48a4.48,4.48,0,0,1-4.45-3.88c-6.29-45.25-7.1-84.24-2.47-119.22C45.3,109.48,53.85,92.67,67.76,86c1.14-.55,2.28-1,3.38-1.45a18.15,18.15,0,0,0,5.5-2.92c3.46-3.14,5-8.42,6.69-14a62.23,62.23,0,0,1,4-10.82C101,30.15,129.81,8.13,159,2c40.31-8.54,71.8,12.57,102.27,33,14.23,9.53,28.94,19.39,44.16,25.83,24.66,10.44,48.47,9.52,65.33-2.54l10.62-7.6-3.69,12.53a80.3,80.3,0,0,1-3.28,9.09C365.33,93.3,343.91,122,293.34,139c-32.79,11-72.38,14.65-105.89,9.64-9.25-1.38-18.56-3.32-27.56-5.2-23.42-4.88-45.55-9.49-68.56-5.67a4.5,4.5,0,0,1-1.47-8.88c24.66-4.09,48.66.91,71.87,5.74,8.87,1.85,18.05,3.77,27.05,5.11,32.17,4.81,70.18,1.35,101.69-9.27,25.37-8.54,58.45-25.6,74.21-58.63-18,7.64-40.17,6.76-62.78-2.81-16-6.78-31.08-16.88-45.66-26.65C226,22.14,197.43,3,160.84,10.75c-26.25,5.56-53.21,26.18-65.55,50.13A54.71,54.71,0,0,0,92,70.14c-1.85,6.24-3.95,13.3-9.28,18.13a25.88,25.88,0,0,1-8.19,4.6c-1,.4-1.95.79-2.83,1.21-10.95,5.28-17.87,19.83-21.13,44.48C46,172.72,46.82,210.93,53,255.37a4.5,4.5,0,0,1-3.84,5.07A4.4,4.4,0,0,1,48.53,260.48Z"/><path class="cls-3" d="M343.6,255.94a4.49,4.49,0,0,1-4.5-4.47c-.3-40.92-49.59-113.6-50.09-114.33a4.5,4.5,0,1,1,7.44-5.08c2.09,3.07,51.33,75.71,51.65,119.35a4.51,4.51,0,0,1-4.47,4.53Z"/><path class="cls-8" d="M327.53,239.22a114.3,114.3,0,0,1,1,14c0,2.15,0,4.2-.15,6.11s-.26,3.69-.45,5.31c-.76,6.47-2,10.34-2.64,10.25-1.5-.19-.14-15.93-2.82-35-2.51-19.06-8.05-33.86-6.65-34.44.61-.26,2.82,3.14,5.29,9.17.62,1.51,1.26,3.17,1.86,5s1.19,3.78,1.78,5.85A114.05,114.05,0,0,1,327.53,239.22Z"/><circle class="cls-3" cx="145.8" cy="264.38" r="22.91"/><circle class="cls-1" cx="156.02" cy="247.35" r="12.7"/><circle class="cls-8" cx="136.6" cy="272.93" r="5.28"/><circle class="cls-8" cx="239.6" cy="272.93" r="5.28"/></g></g></svg>