<svg xmlns="http://www.w3.org/2000/svg" viewBox="0 0 464.12 605.75"><defs><style>.cls-1{fill:#dfe7ea;}.cls-2{fill:#f0d7c2;}.cls-3{fill:#d7ad8c;}.cls-4{fill:#c4987a;}.cls-5{fill:#8376a5;}.cls-6{fill:#655a8e;}.cls-7{fill:#ebcbac;}.cls-16,.cls-8,.cls-9{fill:none;stroke:#42565e;stroke-miterlimit:10;}.cls-8{stroke-linecap:round;}.cls-8,.cls-9{stroke-width:10px;}.cls-9{stroke-linecap:square;}.cls-10{fill:#dcb79b;}.cls-11{fill:#fff;}.cls-12{fill:#40565a;}.cls-13{fill:#a699d6;}.cls-14{fill:#485d63;}.cls-15{fill:#796f9c;}.cls-16{stroke-width:11px;}.cls-17{fill:#325560;}</style></defs><title>Asset 120</title><g id="Layer_2" data-name="Layer 2"><g id="Layer_1-2" data-name="Layer 1"><ellipse class="cls-1" cx="236.82" cy="551.53" rx="184.33" ry="54.22"/><path class="cls-2" d="M30.24,275.91A69.67,69.67,0,0,0,21.69,369c4.48,6,10.06,11.3,16.89,14.32s15,3.46,21.65,0"/><path class="cls-3" d="M18,366.5c3.62,6.7,8.36,12.95,14.66,17.24,2.69,1.84,7,1.57,11.13,1.27-5.9-4.26-10.4-10.26-13.86-16.68-15.65-29-9.35-68.14,14.59-90.75H68.76v-1.84H32.58C8.64,298.37,2.34,337.52,18,366.5Z"/><path class="cls-3" d="M419,275a69.67,69.67,0,0,1,29.75,88.61c-3,6.84-7.19,13.32-13.14,17.82s-13.82,6.82-21.06,5"/><path class="cls-4" d="M411.42,386.76a29.59,29.59,0,0,0,19.15-4.19c6.72-4,11.79-10.17,15.61-16.77A67.58,67.58,0,0,0,453.47,316c-4.12-16.58-18.64-31.49-33.49-41l-1,13.49c7.89,8.45,16.35,18.74,19.1,29.76a67.58,67.58,0,0,1-7.29,49.78c-3.82,6.6-8.9,12.74-15.61,16.77A30.36,30.36,0,0,1,411.42,386.76Z"/><path class="cls-5" d="M452.36,118.46c-8.78-30.07-32.4-57-62.92-63.67a46.85,46.85,0,0,0-9.71-17.86c-5.41-6.13-12.35-10.72-19.61-14.48-36.17-18.7-79.26-17-119.65-11.85-16.15,2.07-32.27,4.63-48,8.91C128.34,37,73,84.38,45.91,145.09s-22.25,133.54,7.56,193L262.36,185.91V334.35H414.7c-8.85-26.74-4.64-73.12,7.76-98.72,9.21-19,22.61-32.09,28.47-53.07C457,160.94,458.72,140.29,452.36,118.46Z"/><path class="cls-6" d="M454.65,186.37C452,196,447.72,203.88,443,211.49c-.82-48.6-11-97.83-36.11-139.38A92.48,92.48,0,0,0,398.41,60c28,8.43,49.4,34,57.66,62.31C462.44,144.1,460.69,164.75,454.65,186.37Z"/><path class="cls-7" d="M53.69,331.22c15.1-11.09,21.39-30.36,26.05-48.51A691.24,691.24,0,0,0,99.16,167.36l91,27.16c10,3,20.12,6,30.54,6.38,26.17,1,49.73-14.31,74.25-23.5A165.16,165.16,0,0,1,370,167.87s7.5,121.7,48.83,164.47c.81,73-43.54,137.46-92.3,191.78-11.27,12.55-23,25.08-37.55,33.62l-.21.12a72.52,72.52,0,0,1-36.5,10.2l-29.86.15a71.65,71.65,0,0,1-36.73-9.91l-1-.56c-14.55-8.54-26.28-21.06-37.55-33.62C98.47,469.8,52,405.33,52.78,332.34"/><path class="cls-2" d="M146.18,528.31c-48.31-54-94-118-93.24-190.45l.91-1.13c15.09-11.09,21.39-30.36,26-48.51A690.78,690.78,0,0,0,99.31,172.88l28.18,8.41C118.46,222.82,83,409.19,146.18,528.31Z"/><path class="cls-3" d="M323.51,525.35a270.7,270.7,0,0,1-19.2,19.85c22.46-40.14,35.38-85.8,40-131.73,6.33-63.1-2.24-126.93-17.2-188.56-.55-2.26-1.17-4.63-2.75-6.34-2.47-2.67-6.5-3-10.13-3.13-20.76-.84-41.76-1.81-61.63-7.87a105.08,105.08,0,0,1-17.44-7c19.43-4.07,37.77-14.78,56.7-21.88A165.11,165.11,0,0,1,367,169.1s7.49,121.69,48.83,164.46C416.61,406.56,372.26,471,323.51,525.35Z"/><path class="cls-8" d="M390.57,54.45c31.3,6,55.6,33.41,64.53,64,6.37,21.82,4.61,42.47-1.43,64.1-5.86,21-19.26,34.06-28.47,53.07-12.4,25.6-14.78,71.07-5.93,97.81"/><path class="cls-8" d="M27.49,275.91A69.67,69.67,0,0,0,18.93,369c4.48,6,10.06,11.3,16.89,14.32s15,3.46,21.65,0"/><path class="cls-8" d="M422.38,274.38A69.67,69.67,0,0,1,452.13,363c-3,6.84-7.19,13.32-13.14,17.82s-13.82,6.82-21.06,5"/><polygon class="cls-3" points="237.17 353.31 237.17 432.24 264.71 432.24 237.17 353.31"/><polyline class="cls-9" points="237.32 357.44 236.19 423.51 236.11 428.1"/><path class="cls-10" d="M344.27,308.58c.57,5-.41,9-1.09,8.93s-.9-4-1.45-8.65-1.2-8.52-.51-8.75S343.71,303.58,344.27,308.58Z"/><path class="cls-11" d="M160.6,204.75a109.34,109.34,0,0,1,22.25,7.54c5.49,2.71,8.48,5.28,8,6.57s-4.34,1.18-10.15.31-13.7-2.41-22.45-4.49A144,144,0,0,1,136,207.81c-5.57-2.38-8.76-4.67-8.36-6s4.24-1.55,10.15-1A175.83,175.83,0,0,1,160.6,204.75Z"/><path class="cls-12" d="M397.3,128.18a75.72,75.72,0,0,1,1.9,14c0,2.17.07,4.23-.09,6.16-.07,1-.1,1.89-.21,2.78l-.35,2.55c-1,6.48-2.82,10.19-3.8,10s-1.24-4.15-1.61-10.27L393,151c0-.83-.16-1.7-.23-2.59-.11-1.78-.38-3.68-.6-5.67-.54-4-1.27-8.29-2.32-12.78s-2.39-8.66-3.69-12.45c-.71-1.87-1.32-3.68-2-5.33-.34-.83-.63-1.65-1-2.41l-.95-2.21c-2.43-5.63-4.08-9.23-3.19-9.9s4.05,1.91,7.9,7.22l1.46,2.11c.5.74.95,1.55,1.44,2.38,1,1.65,1.9,3.5,2.85,5.46A75.74,75.74,0,0,1,397.3,128.18Z"/><path class="cls-12" d="M435.13,118.25a108.47,108.47,0,0,1-2.34,18.33c-.67,2.76-1.29,5.39-2.1,7.78-.39,1.2-.73,2.37-1.14,3.46L428.33,151a55.23,55.23,0,0,1-2.41,5.25c-.39.76-.74,1.46-1.11,2.09s-.74,1.19-1.08,1.69c-1.34,2-2.3,3-2.79,2.77-1-.47.38-5.47,2.21-13.44l.71-3.13c.25-1.08.43-2.23.67-3.4.51-2.34.86-4.87,1.31-7.51A173.57,173.57,0,0,0,427.48,118a173.79,173.79,0,0,0-.37-17.39c-.26-2.66-.43-5.21-.77-7.58-.16-1.18-.25-2.34-.42-3.44l-.48-3.17c-1.25-8.08-2.3-13.17-1.24-13.56.5-.18,1.38.87,2.58,3q.45.79,1,1.76c.32.66.62,1.38,1,2.17a55.19,55.19,0,0,1,2,5.41l1,3.21c.33,1.12.59,2.31.89,3.54.64,2.45,1.06,5.11,1.53,7.91A108.47,108.47,0,0,1,435.13,118.25Z"/><path class="cls-12" d="M407,237.87a61.19,61.19,0,0,1,3-13.43,51.88,51.88,0,0,1,2.35-5.53c.43-.84.8-1.66,1.25-2.41l1.31-2.14a30.51,30.51,0,0,1,2.52-3.48c.4-.49.77-.95,1.14-1.34s.75-.73,1.09-1c1.35-1.2,2.28-1.69,2.71-1.38.91.66-.62,4.15-2.6,9.64l-.77,2.16c-.27.75-.48,1.55-.74,2.36-.56,1.61-1,3.38-1.49,5.21A83.83,83.83,0,0,0,414.29,251c.13,1.9.18,3.72.4,5.4.1.85.14,1.68.25,2.46l.32,2.27c.83,5.79,1.62,9.51.59,10-.48.21-1.3-.46-2.37-1.9q-.4-.54-.85-1.23c-.29-.46-.55-1-.84-1.54A30.49,30.49,0,0,1,410,262.5l-.85-2.36c-.28-.83-.48-1.71-.73-2.61a51.91,51.91,0,0,1-1.18-5.89A61.23,61.23,0,0,1,407,237.87Z"/><path class="cls-13" d="M338.06,11a505.1,505.1,0,0,0-65.52,7.53c-9.44,1.72-18.9,3.72-27.78,7.32C237.13,29,230,33.22,222.27,36.08l-1,.35c-15.13,5.37-33.2,6.48-43.21,19L179.81,52q1.31-2.53,2.6-5.07a64.64,64.64,0,0,0-39.5,17c-.84.79-1.73,1.54-2.63,2.27-9,7.24-20.27,11.3-28.87,19.81q-.45-4.32-.89-8.65-2,1.23-3.94,2.52c-9.37,6.19-18,13.53-24.81,22.49-7.31,9.7-12.31,21.4-12.89,33.52a2.76,2.76,0,0,0-1.28-1.65c-.22.33-.44.67-.65,1a164.8,164.8,0,0,0-25.72,75.23q-1.39-4.56-2.77-9.1c-.08,1.17-.16,2.37-.21,3.63a304,304,0,0,0,3.3,57.5,58,58,0,0,1-13.19-23.61,221.08,221.08,0,0,1,5.31-59.68A200.24,200.24,0,0,1,46,142.48a217.66,217.66,0,0,1,18.72-33.54A52.26,52.26,0,0,1,66.84,100a231.53,231.53,0,0,1,78.78-67.78,147.77,147.77,0,0,0-11.25,10A223.1,223.1,0,0,1,179,21.07q6.69-2.31,13.52-4.18a312,312,0,0,1,36.29-7.31c3.89-.58,7.79-1.1,11.68-1.61,10.4-1.34,21-2.43,31.56-3C294.53,3.75,317,4.85,338.06,11Z"/><path class="cls-8" d="M50.86,335.92C21,276.49,16.19,203.66,43.3,142.95S125.73,34.84,189.89,17.37c15.71-4.28,31.83-6.84,48-8.91,40.39-5.18,83.48-6.85,119.65,11.85,7.26,3.75,14.2,8.35,19.61,14.48C388.79,48,392,67.82,386,84.4s-20.53,29.56-37.4,34.67"/><path class="cls-12" d="M119.45,55.71a122.27,122.27,0,0,1,11.37-12.29c1.91-1.73,3.71-3.37,5.52-4.79s3.48-2.72,5.07-3.83c6.39-4.44,10.89-6.3,11.46-5.47,1.28,1.85-13.39,13.4-27.43,31.16C111.22,78.11,103.19,95,101.1,94.13c-.93-.38-.12-5.17,2.8-12.39.74-1.8,1.58-3.75,2.62-5.79s2.18-4.19,3.45-6.44A122.24,122.24,0,0,1,119.45,55.71Z"/><path class="cls-12" d="M152.92,44.74a155.46,155.46,0,0,1,12.6-13.37c2.09-1.91,4.07-3.71,6-5.29s3.78-3,5.5-4.29c6.91-5,11.74-7.28,12.34-6.46,1.32,1.81-14.6,14.92-30.58,34.31C142.68,68.9,132.71,87,130.69,86c-.91-.44.42-5.6,4.09-13.32.92-1.92,2-4,3.21-6.2s2.61-4.49,4.1-6.89A155.46,155.46,0,0,1,152.92,44.74Z"/><path class="cls-12" d="M193,32.11a87.62,87.62,0,0,1,14.89-12.4,79.37,79.37,0,0,1,14-7.35c8.37-3.31,14-3.82,14.24-2.87s-4.55,3.39-11.85,7.73a121.7,121.7,0,0,0-25.76,20.23c-8.94,9.23-15.89,18.86-21.16,25.73s-8.78,11.07-9.7,10.51,1-5.67,5.14-13.44A127.77,127.77,0,0,1,193,32.11Z"/><path class="cls-12" d="M246.25,15.32A101.07,101.07,0,0,1,263,7.14a76.92,76.92,0,0,1,14.74-4c8.63-1.37,14-.51,14.08.47s-5,2.2-12.8,4.79a141.76,141.76,0,0,0-28.82,13.45c-10.67,6.49-19.73,13.51-26.43,18.52s-11.06,8-11.8,7.22,2.32-5.1,8.21-11.27A131.37,131.37,0,0,1,246.25,15.32Z"/><path class="cls-12" d="M38.39,192.46a120.8,120.8,0,0,0,3.08,13.79c.66,2.07,1.22,4.08,1.91,5.9.33.91.6,1.82.94,2.67l.95,2.43c2.44,6.21,4.26,10.1,3.34,10.76-.43.31-1.43-.29-2.9-1.67q-.55-.52-1.19-1.18c-.41-.45-.81-1-1.26-1.52a38.32,38.32,0,0,1-2.81-3.91L39,217.34c-.5-.84-.94-1.75-1.43-2.68a65,65,0,0,1-2.76-6.13,71.66,71.66,0,0,1-4.66-30.3,64.9,64.9,0,0,1,.79-6.68c.19-1,.33-2,.56-3l.69-2.72a38.34,38.34,0,0,1,1.5-4.57c.26-.66.49-1.27.74-1.83s.53-1,.78-1.48c1-1.76,1.76-2.63,2.26-2.47,1.07.35.52,4.61.05,11.26l-.17,2.61c-.06.9,0,1.85-.09,2.82-.11,1.94,0,4,0,6.2A120.86,120.86,0,0,0,38.39,192.46Z"/><path class="cls-12" d="M36.06,250.75a94.42,94.42,0,0,0,5.12,8.54c.9,1.25,1.71,2.48,2.56,3.55.42.55.8,1.1,1.2,1.6l1.16,1.45c3,3.71,5,6.11,4.35,7s-3.77,0-8.06-3.08l-1.65-1.24c-.57-.44-1.1-1-1.68-1.47a42.43,42.43,0,0,1-3.46-3.52,47.69,47.69,0,0,1-10.33-19.94,42.32,42.32,0,0,1-.88-4.85c-.09-.77-.19-1.5-.23-2.22s0-1.4-.06-2.06c0-5.26,1.13-8.39,2.13-8.36s1.91,3.05,3.23,7.61l.52,1.78c.18.62.41,1.25.62,1.91.38,1.32.92,2.69,1.42,4.14A94.39,94.39,0,0,0,36.06,250.75Z"/><path class="cls-12" d="M67.93,123.65A94.35,94.35,0,0,0,69.15,133c.31,1.43.54,2.81.87,4.07.16.64.27,1.27.43,1.86l.44,1.71c1.13,4.37,1.93,7.26,1,7.85s-3.35-1.43-6-5.72l-1-1.71c-.33-.6-.61-1.25-.92-1.92a40.14,40.14,0,0,1-1.7-4.39,45.45,45.45,0,0,1-1.49-21.39,40.27,40.27,0,0,1,1.08-4.58c.22-.71.4-1.39.64-2l.73-1.83c2-4.61,4.21-6.91,5.12-6.49s.62,3.42.11,7.91l-.2,1.76c-.07.61-.1,1.25-.17,1.9-.15,1.3-.19,2.7-.3,4.16A94.26,94.26,0,0,0,67.93,123.65Z"/><path class="cls-6" d="M355.66,174.31a165.11,165.11,0,0,0-59.78,10.43c-10.63,4-21.07,9.1-31.63,13.56v-4.12L252.17,203a106,106,0,0,1-14.22,3.9c-1.55.3-3.11.56-4.69.78a69.08,69.08,0,0,1-11.64.58c-10.43-.39-20.55-3.4-30.53-6.38l-56.29-16.8-14.54-4.34-20.14-6q-2.75,33.38-8.73,66.39Q87.06,265.14,81,288.82c-.1.41-.21.82-.31,1.23-4.66,18.14-10.95,37.42-26,48.5l-.92,1.13c0,1.12,0,2.25,0,3.36Q50.69,336.71,48,330.2c11.22-9.15,18.92-22.41,22.74-36.44,4.32-15.88,4-32.73,1.4-49a1.49,1.49,0,0,0,1.43.57c1.44-.21,3-2.36,3.4-4.18a188.87,188.87,0,0,0,4.36-49.24c0-.66-.06-1.31-.09-2l3.23,3.4c6-11.47,4.25-31.47,6.3-44.25,13.89,12.88,48.77,13.2,66.08,5.51-4.33,3.77-5,12.86-10.1,15.6,1.53,0-8.28,5-6.75,4.94a129.75,129.75,0,0,0,65.78-21.6c-5.24,11-14.41,26.68-26,30.42,1.69.36,2.65-6.32,4.34-6q12.47,2.51,25.09,4.17c12.06,1.61,24.59,2.62,36.17-1.11,14.49-4.66,25.64-16.08,36.16-27.09q0,2.9-.35,5.8a65.84,65.84,0,0,1-5,19.31l32.61-13.88c.05.5.09,1,.12,1.51a27,27,0,0,1-3.55,14.74q25.15-11.8,49.59-25A27.75,27.75,0,0,1,355.66,174.31Z"/><path class="cls-6" d="M411.74,319.21c-8.3-10.85-15.05-25-20.53-40.32-.08-.22-.16-.44-.23-.65-11.25-33.09-16.84-70.92-19.39-93.54,10.71,26.93,25,59.59,39.5,85.45h0C408.88,287.05,408.92,304.81,411.74,319.21Z"/><path class="cls-14" d="M269.63,176.7c24.26-13.66,43.82-25.11,45.05-23.33s-16.68,16.14-41.28,30-46.18,21.74-47,19.86S245.4,190.42,269.63,176.7Z"/><path class="cls-14" d="M257.18,173.65c4.41-4.6,8.39-9.18,11.9-13.46,1.71-2.18,3.38-4.21,4.84-6.2.74-1,1.49-1.92,2.16-2.85l1.94-2.68c4.93-6.84,8-11.24,9-10.75s-.41,5.73-4.33,13.56l-1.59,3c-.56,1.05-1.22,2.11-1.87,3.22-1.28,2.24-2.84,4.51-4.47,6.91a121.8,121.8,0,0,1-26.14,27c-2.34,1.71-4.56,3.34-6.75,4.7-1.09.69-2.12,1.38-3.15,2l-3,1.69c-7.7,4.18-13,5.67-13.41,4.78s3.78-4.16,10.45-9.32l2.61-2c.91-.7,1.81-1.48,2.78-2.25,1.94-1.52,3.92-3.26,6-5C248.28,182.34,252.73,178.22,257.18,173.65Z"/><path class="cls-12" d="M167.43,170.51a127.73,127.73,0,0,0,20.86-7.38c3-1.53,6-2.88,8.6-4.48,1.31-.77,2.63-1.44,3.82-2.21l3.41-2.23c2.24-1.34,4.06-2.84,5.78-4,.84-.61,1.67-1.15,2.38-1.68s1.35-1.06,1.94-1.5c2.38-1.77,3.91-2.61,4.3-2.26s-.39,1.87-2.19,4.37q-.68.93-1.54,2c-.6.72-1.3,1.44-2,2.23a55.67,55.67,0,0,1-5.34,5.13l-3.32,2.77c-1.17.95-2.49,1.79-3.81,2.73a89.12,89.12,0,0,1-8.83,5.42,103.88,103.88,0,0,1-22.17,8.5,103.87,103.87,0,0,1-23.57,2.85,89.14,89.14,0,0,1-10.34-.66c-1.61-.22-3.17-.34-4.64-.63l-4.23-.9a55.7,55.7,0,0,1-7.12-2c-1-.36-2-.66-2.85-1s-1.63-.75-2.32-1.09c-2.76-1.36-4.16-2.34-4-2.84s1.92-.47,4.86,0c.73.11,1.54.26,2.42.42s1.86.23,2.89.37c2.07.25,4.38.72,7,.86l4.06.38c1.41.13,2.89.1,4.41.17,3,.2,6.29,0,9.69-.06A127.74,127.74,0,0,0,167.43,170.51Z"/><path class="cls-12" d="M132.77,165a101.23,101.23,0,0,0,11.59-5.33c1.7-1,3.36-1.87,4.83-2.84.74-.47,1.49-.89,2.17-1.36l2-1.33c5-3.41,8.07-5.83,8.93-5.11.4.34.13,1.39-.74,3q-.33.61-.76,1.34c-.3.47-.67.95-1.06,1.47a32.16,32.16,0,0,1-2.84,3.38L155,160c-.64.63-1.36,1.21-2.09,1.85a54.7,54.7,0,0,1-4.91,3.75,60.59,60.59,0,0,1-26.34,9.87,54.62,54.62,0,0,1-6.16.4c-1,0-1.9,0-2.79,0l-2.57-.2a32.13,32.13,0,0,1-4.36-.68c-.64-.14-1.23-.26-1.76-.41s-1-.34-1.45-.5c-1.73-.66-2.62-1.27-2.54-1.8.17-1.11,4.09-1.32,10.09-2l2.35-.29c.81-.1,1.65-.27,2.52-.4,1.74-.23,3.58-.66,5.51-1A101.21,101.21,0,0,0,132.77,165Z"/><path class="cls-12" d="M72.26,253c-3.94-18.19-10.05-32.28-8.1-33.34.9-.48,3.66,2.5,6.83,8.12.79,1.41,1.62,3,2.4,4.69S75,236,75.75,238a99.8,99.8,0,0,1,4,13.3,99.82,99.82,0,0,1,2,13.73c.12,2.13.24,4.15.2,6.05s-.07,3.66-.19,5.27c-.5,6.44-1.74,10.3-2.76,10.25C76.78,286.49,76.37,271.13,72.26,253Z"/><path class="cls-12" d="M82.64,210.52c-.93-5.11-1.91-9.93-2.87-14.31-.52-2.17-1-4.26-1.47-6.19l-.69-2.81-.68-2.58c-1.72-6.58-2.86-10.76-1.87-11.26s3.8,3,6.94,9.37l1.19,2.53c.4.89.76,1.83,1.15,2.8.8,1.94,1.5,4.06,2.24,6.29a126.38,126.38,0,0,1,3.6,14.79,156.62,156.62,0,0,1,2.4,27.28c0,7-.65,11.34-1.7,11.43s-2.36-4.11-3.69-10.92S84.46,220.74,82.64,210.52Z"/><path class="cls-12" d="M344.09,154.54c1.54-2,2.91-4,4.14-5.82.58-.94,1.18-1.81,1.68-2.67s1-1.65,1.46-2.38c1.79-2.95,3.1-4.91,4.17-4.69s1.56,2.67.92,6.54a22.28,22.28,0,0,1-.74,3.1,30,30,0,0,1-1.27,3.44A34.57,34.57,0,0,1,344.2,165.2a30,30,0,0,1-3,2.07,22.28,22.28,0,0,1-2.83,1.48c-3.59,1.57-6.13,1.62-6.56.71s1.11-2.74,3.53-5.19c.6-.62,1.27-1.27,2-2s1.41-1.49,2.18-2.28C340.94,158.34,342.52,156.53,344.09,154.54Z"/><path class="cls-8" d="M53.84,333.37C68.95,322.28,75.23,303,79.9,284.86A691.24,691.24,0,0,0,99.31,169.51l91,27.16c10,3,20.12,6,30.54,6.38,26.17,1,49.73-14.31,74.25-23.5A165.16,165.16,0,0,1,370.19,170s7.5,121.7,48.83,164.47c.81,73-43.54,137.46-92.3,191.78-11.27,12.55-23,25.08-37.55,33.62L289,560a72.52,72.52,0,0,1-36.5,10.2l-29.86.15a71.65,71.65,0,0,1-36.73-9.91l-1-.56c-14.55-8.54-26.28-21.06-37.55-33.62C98.62,472,52.12,407.48,52.93,334.49"/><path class="cls-15" d="M366.79,83c3.56-9.19,4.7-18.51,5.61-25.39s1.67-11.38,3.11-11.5,3.15,4.16,4.11,11.49a63.11,63.11,0,0,1,.29,13.08,57.22,57.22,0,0,1-3.61,16A46.21,46.21,0,0,1,367.44,101a36.74,36.74,0,0,1-11,8.3,22.84,22.84,0,0,1-8.9,2.45c-2.21.06-3.45-.39-3.59-1.06-.32-1.48,3.72-3.27,8.61-7.49A48.83,48.83,0,0,0,360.21,95,53.81,53.81,0,0,0,366.79,83Z"/><path class="cls-15" d="M393.72,82.48c.87-4.87,1.17-9.75,1.81-13.49s1.62-6.21,3-6.35,2.93,2,4.17,5.79a32.63,32.63,0,0,1,1.39,6.9,33.45,33.45,0,0,1-.35,9,27.19,27.19,0,0,1-3.21,8.81,20.26,20.26,0,0,1-5.08,5.9,11.07,11.07,0,0,1-4.8,2.28c-1.31.2-2.17-.08-2.53-.67-.73-1.26.54-3.35,1.86-6.32A49.1,49.1,0,0,0,393.72,82.48Z"/><path class="cls-15" d="M363.5,116.33c3.72-2.45,7.13-4.62,9.92-6.06s5-2.06,6-1.12.74,3.29-1,6.3a32.08,32.08,0,0,1-21.71,14.25c-3.46.41-5.77-.25-6.18-1.58s1-3.12,3.44-5.1S359.77,118.77,363.5,116.33Z"/><path class="cls-15" d="M405.25,202a22.88,22.88,0,0,1,7.56-8.1c2.52-1.51,4.63-1.74,5.6-.75s.76,3-.12,5.45a57,57,0,0,1-4.2,8.5,57,57,0,0,1-5.26,7.89c-1.67,2-3.28,3.19-4.65,2.83s-2.2-2.28-2.16-5.22A22.88,22.88,0,0,1,405.25,202Z"/><path class="cls-11" d="M46.05,163.48a38.77,38.77,0,0,1,3.68-7.13,28.5,28.5,0,0,1,4.21-5c2.78-2.58,5.19-3.49,6.27-2.63s.8,3.3-.21,6.55-2.66,7.39-4.44,12-3.35,8.72-4.8,11.81-2.84,5.08-4.27,5-2.54-2.4-2.85-6.18a28.52,28.52,0,0,1,.3-6.56A38.81,38.81,0,0,1,46.05,163.48Z"/><path class="cls-11" d="M77.47,109.21a11.49,11.49,0,0,1,6.45-3c2-.16,3.51.49,4.17,1.73a4.9,4.9,0,0,1-.29,4.37,16,16,0,0,1-8.4,7.53,4.9,4.9,0,0,1-4.37-.18c-1.16-.79-1.64-2.38-1.27-4.33A11.49,11.49,0,0,1,77.47,109.21Z"/><ellipse class="cls-11" cx="210.56" cy="221.64" rx="5.11" ry="8.76" transform="translate(-22.94 418.97) rotate(-86.67)"/><path class="cls-9" d="M224.78,442.79h22.94"/><path class="cls-9" d="M20.87,340A35.55,35.55,0,0,1,42,316.79"/><path class="cls-9" d="M442.19,340A35.55,35.55,0,0,0,421,316.79"/><path class="cls-11" d="M36.71,359.23a58.7,58.7,0,0,1,4.48,7.36c1.06,2.29,1.34,4.25.37,5.29s-2.92,1-5.37-.08a19.33,19.33,0,0,1-8-6.91c-2.49-3.68-3.38-8-2.81-11.09a7,7,0,0,1,1.47-3.46,2.37,2.37,0,0,1,2.07-.95c1.42.21,2.44,1.71,3.61,3.43S35.05,356.75,36.71,359.23Z"/><path class="cls-3" d="M306.74,281.15a53.41,53.41,0,0,0-19.38,5.9c-4.86,2.45-8,4.52-9.27,3.52-.59-.47-.59-1.67.1-3.41a20.9,20.9,0,0,1,4.39-6.38,33.08,33.08,0,0,1,4-3.56,37.32,37.32,0,0,1,5.31-3.26,38.1,38.1,0,0,1,28.15-2.45,37.32,37.32,0,0,1,5.79,2.29,33.07,33.07,0,0,1,4.6,2.8,20.9,20.9,0,0,1,5.43,5.52c1,1.6,1.18,2.78.69,3.34-1.07,1.2-4.53-.29-9.74-1.86A53.41,53.41,0,0,0,306.74,281.15Z"/><path class="cls-9" d="M342.4,280.36a49.37,49.37,0,0,0-70.8,6.17"/><path class="cls-16" d="M264.12,323.48c12.85-5.69,25.89-11.31,39.71-13.84s28.68-1.72,41.06,4.94"/><path class="cls-17" d="M326.2,321.18a17.9,17.9,0,0,1-35.79,0c0-9.88,8-13.77,17.9-13.77S326.2,311.3,326.2,321.18Z"/><path class="cls-3" d="M167.36,281.15a53.41,53.41,0,0,1,19.38,5.9c4.86,2.45,8,4.52,9.27,3.52.59-.47.59-1.67-.1-3.41a20.9,20.9,0,0,0-4.39-6.38,33.08,33.08,0,0,0-4-3.56,37.32,37.32,0,0,0-5.31-3.26A38.1,38.1,0,0,0,154,271.51a37.32,37.32,0,0,0-5.79,2.29,33.07,33.07,0,0,0-4.6,2.8,20.9,20.9,0,0,0-5.43,5.52c-1,1.6-1.18,2.78-.69,3.34,1.07,1.2,4.53-.29,9.74-1.86A53.41,53.41,0,0,1,167.36,281.15Z"/><path class="cls-9" d="M131.69,280.36a49.37,49.37,0,0,1,70.8,6.17"/><path class="cls-16" d="M210,323.48c-12.85-5.69-25.89-11.31-39.71-13.84s-28.68-1.72-41.06,4.94"/><path class="cls-17" d="M147.9,321.18a17.9,17.9,0,0,0,35.79,0c0-9.88-8-13.77-17.9-13.77S147.9,311.3,147.9,321.18Z"/><path class="cls-9" d="M206,498.28A59.24,59.24,0,0,0,236,503c14.26-1.51,29.15-10,32.35-24"/><circle class="cls-2" cx="237.17" cy="528.6" r="10.55" transform="translate(-329.15 406.34) rotate(-53.65)"/></g></g></svg>