<?xml version="1.0" standalone="no"?><!DOCTYPE svg PUBLIC "-//W3C//DTD SVG 1.1//EN" "http://www.w3.org/Graphics/SVG/1.1/DTD/svg11.dtd"><svg t="1671872759315" class="icon" viewBox="0 0 1024 1024" version="1.1" xmlns="http://www.w3.org/2000/svg" p-id="29438" xmlns:xlink="http://www.w3.org/1999/xlink" width="128" height="128"><path d="M136.005284 399.993557h751.9874c35.198978 0 63.999619 28.79861 63.99962 63.999619v495.992986c0 35.198978-28.79861 63.999619-63.99962 63.999619H136.005284c-35.198978 0-63.999619-28.79861-63.999619-63.999619V463.993176c0-35.198978 28.800641-63.999619 63.999619-63.999619z" fill="#ECC45C" p-id="29439"></path><path d="M136.005284 367.993748h751.9874c35.198978 0 63.999619 28.79861 63.99962 63.999619v31.999809c0 35.198978-28.79861 63.999619-63.99962 63.99962H136.005284c-35.198978 0-63.999619-28.79861-63.999619-63.99962v-31.999809c0-35.198978 28.800641-63.999619 63.999619-63.999619z" fill="#F8D578" p-id="29440"></path><path d="M232.002682 415.993462c-39.998746 0-71.998556 14.399305-71.998556 31.99981s31.99981 31.99981 71.998556 31.999809 71.998556-14.399305 71.998556-31.999809c0.002031-17.600505-31.997778-31.99981-71.998556-31.99981z m559.992605 0c-39.998746 0-71.998556 14.399305-71.998556 31.99981s31.99981 31.99981 71.998556 31.999809 71.998556-14.399305 71.998556-31.999809S831.994033 415.993462 791.995287 415.993462zM512 655.990003c66.398488 0 119.99827 53.599783 119.99827 119.99827s-53.599783 119.99827-119.99827 119.99827-119.99827-53.599783-119.99827-119.99827 53.597751-119.99827 119.99827-119.99827z" fill="#D4B053" p-id="29441"></path><path d="M512 687.989812c48.800014 0 87.998461 39.198446 87.998461 87.998461s-39.198446 87.998461-87.998461 87.998461-87.998461-39.198446-87.998461-87.998461a87.742527 87.742527 0 0 1 87.998461-87.998461z" fill="#E4E7E7" p-id="29442"></path><path d="M512 735.987495c8.799237 0 15.999905 7.200668 15.999905 15.999905v47.999714c0 8.799237-7.200668 15.999905-15.999905 15.999905s-15.999905-7.200668-15.999905-15.999905v-47.999714c0-8.799237 7.198637-15.999905 15.999905-15.999905z" fill="#324D5B" p-id="29443"></path><path d="M512 0C326.401511 0 176.004031 150.39748 176.004031 335.993938v95.999429c0 17.600505 24.799141 31.99981 55.998651 31.999809s55.998651-14.399305 55.998651-31.999809v-95.999429c0-123.997739 99.998897-223.996636 223.996636-223.996636s223.996636 99.998897 223.996636 223.996636v95.999429c0 17.600505 24.799141 31.99981 55.998651 31.999809s55.998651-14.399305 55.998651-31.999809v-95.999429C847.993938 150.39748 697.596458 0 512 0z" fill="#E4E7E7" p-id="29444"></path><path d="M512 63.999619c-150.39748 0-271.99635 121.59887-271.99635 271.99635v127.997207c27.200041-2.4009 47.999714-15.199605 47.999714-31.999809v-95.999429c0-123.997739 99.998897-223.996636 223.996636-223.996636s223.996636 99.998897 223.996636 223.996636v95.999429c0 15.999905 20.799673 29.59891 47.999714 31.999809v-127.997207c-0.002031-150.399511-121.59887-271.99635-271.99635-271.99635z" fill="#CDCFCF" p-id="29445"></path></svg>