<?xml version="1.0" standalone="no"?><!DOCTYPE svg PUBLIC "-//W3C//DTD SVG 1.1//EN" "http://www.w3.org/Graphics/SVG/1.1/DTD/svg11.dtd"><svg t="1713356465646" class="icon" viewBox="0 0 1024 1024" version="1.1" xmlns="http://www.w3.org/2000/svg" p-id="5683" xmlns:xlink="http://www.w3.org/1999/xlink" width="32" height="32"><path d="M320.067666 286.437731c53.150524-53.15564 126.532835-86.077447 207.455889-86.077447 89.598644 0 172.483376 40.805358 227.39501 108.063181l-101.596909 101.603049 251.597225 0L904.918881 158.424172l-90.333378 90.361007C743.985562 166.207439 639.765919 116.493178 527.524578 116.493178c-104.055914 0-198.409862 42.322921-266.757506 110.670565-49.444109 49.455365-84.98865 112.251573-100.999298 182.862771l86.263689 0C260.052804 362.352725 285.750069 320.744072 320.067666 286.437731L320.067666 286.437731z" fill="#272636" p-id="5684"></path><path d="M734.974327 701.344393c-53.151547 53.15564-126.533858 86.083587-207.450772 86.083587-89.599667 0-172.488493-40.810474-227.402173-108.069321l101.603049-101.596909L150.122089 577.76175 150.122089 829.358975l90.333378-90.333378c70.601988 82.555228 174.820608 132.270513 287.067065 132.270513 104.055914 0 198.402699-42.306548 266.750343-110.650099 49.360198-49.397037 84.866876-112.477724 100.920504-182.883237L808.689213 577.762773C794.560424 624.99654 768.983909 667.338904 734.974327 701.344393L734.974327 701.344393z" fill="#272636" p-id="5685"></path></svg>