<?xml version="1.0" encoding="iso-8859-1"?>
<svg version="1.1" id="Capa_1" xmlns="http://www.w3.org/2000/svg" xmlns:xlink="http://www.w3.org/1999/xlink" x="0px" y="0px"
	 viewBox="0 0 60 60" style="enable-background: new 0 0 60 60;" xml:space="preserve">
<g>
	<path style="fill: #F0C419;" d="M30,0c-0.552,0-1,0.448-1,1v6c0,0.552,0.448,1,1,1s1-0.448,1-1V1C31,0.448,30.552,0,30,0z"/>
	<path style="fill: #F0C419;" d="M30,52c-0.552,0-1,0.448-1,1v6c0,0.552,0.448,1,1,1s1-0.448,1-1v-6C31,52.448,30.552,52,30,52z"/>
	<path style="fill: #F0C419;" d="M59,29h-6c-0.552,0-1,0.448-1,1s0.448,1,1,1h6c0.552,0,1-0.448,1-1S59.552,29,59,29z"/>
	<path style="fill: #F0C419;" d="M8,30c0-0.552-0.448-1-1-1H1c-0.552,0-1,0.448-1,1s0.448,1,1,1h6C7.552,31,8,30.552,8,30z"/>
	<path style="fill: #F0C419;" d="M46.264,14.736c0.256,0,0.512-0.098,0.707-0.293l5.736-5.736c0.391-0.391,0.391-1.023,0-1.414
		s-1.023-0.391-1.414,0l-5.736,5.736c-0.391,0.391-0.391,1.023,0,1.414C45.752,14.639,46.008,14.736,46.264,14.736z"/>
	<path style="fill: #F0C419;" d="M13.029,45.557l-5.736,5.736c-0.391,0.391-0.391,1.023,0,1.414C7.488,52.902,7.744,53,8,53
		s0.512-0.098,0.707-0.293l5.736-5.736c0.391-0.391,0.391-1.023,0-1.414S13.42,45.166,13.029,45.557z"/>
	<path style="fill: #F0C419;" d="M46.971,45.557c-0.391-0.391-1.023-0.391-1.414,0s-0.391,1.023,0,1.414l5.736,5.736
		C51.488,52.902,51.744,53,52,53s0.512-0.098,0.707-0.293c0.391-0.391,0.391-1.023,0-1.414L46.971,45.557z"/>
	<path style="fill: #F0C419;" d="M8.707,7.293c-0.391-0.391-1.023-0.391-1.414,0s-0.391,1.023,0,1.414l5.736,5.736
		c0.195,0.195,0.451,0.293,0.707,0.293s0.512-0.098,0.707-0.293c0.391-0.391,0.391-1.023,0-1.414L8.707,7.293z"/>
	<path style="fill: #F0C419;" d="M50.251,21.404c0.162,0.381,0.532,0.61,0.921,0.61c0.13,0,0.263-0.026,0.39-0.08l2.762-1.172
		c0.508-0.216,0.746-0.803,0.53-1.311s-0.804-0.746-1.311-0.53l-2.762,1.172C50.272,20.309,50.035,20.896,50.251,21.404z"/>
	<path style="fill: #F0C419;" d="M9.749,38.596c-0.216-0.508-0.803-0.746-1.311-0.53l-2.762,1.172
		c-0.508,0.216-0.746,0.803-0.53,1.311c0.162,0.381,0.532,0.61,0.921,0.61c0.13,0,0.263-0.026,0.39-0.08l2.762-1.172
		C9.728,39.691,9.965,39.104,9.749,38.596z"/>
	<path style="fill: #F0C419;" d="M54.481,38.813L51.7,37.688c-0.511-0.207-1.095,0.041-1.302,0.553
		c-0.207,0.512,0.041,1.095,0.553,1.302l2.782,1.124c0.123,0.049,0.25,0.073,0.374,0.073c0.396,0,0.771-0.236,0.928-0.626
		C55.241,39.603,54.994,39.02,54.481,38.813z"/>
	<path style="fill: #F0C419;" d="M5.519,21.188L8.3,22.312c0.123,0.049,0.25,0.073,0.374,0.073c0.396,0,0.771-0.236,0.928-0.626
		c0.207-0.512-0.041-1.095-0.553-1.302l-2.782-1.124c-0.513-0.207-1.095,0.04-1.302,0.553C4.759,20.397,5.006,20.98,5.519,21.188z"
		/>
	<path style="fill: #F0C419;" d="M39.907,50.781c-0.216-0.508-0.803-0.745-1.311-0.53c-0.508,0.216-0.746,0.803-0.53,1.311
		l1.172,2.762c0.162,0.381,0.532,0.61,0.921,0.61c0.13,0,0.263-0.026,0.39-0.08c0.508-0.216,0.746-0.803,0.53-1.311L39.907,50.781z"
		/>
	<path style="fill: #F0C419;" d="M21.014,9.829c0.13,0,0.263-0.026,0.39-0.08c0.508-0.216,0.746-0.803,0.53-1.311l-1.172-2.762
		c-0.215-0.509-0.802-0.747-1.311-0.53c-0.508,0.216-0.746,0.803-0.53,1.311l1.172,2.762C20.254,9.6,20.625,9.829,21.014,9.829z"/>
	<path style="fill: #F0C419;" d="M21.759,50.398c-0.511-0.205-1.095,0.04-1.302,0.553l-1.124,2.782
		c-0.207,0.512,0.041,1.095,0.553,1.302c0.123,0.049,0.25,0.073,0.374,0.073c0.396,0,0.771-0.236,0.928-0.626l1.124-2.782
		C22.519,51.188,22.271,50.605,21.759,50.398z"/>
	<path style="fill: #F0C419;" d="M38.615,9.675c0.396,0,0.771-0.236,0.928-0.626l1.124-2.782c0.207-0.512-0.041-1.095-0.553-1.302
		c-0.511-0.207-1.095,0.041-1.302,0.553L37.688,8.3c-0.207,0.512,0.041,1.095,0.553,1.302C38.364,9.651,38.491,9.675,38.615,9.675z"
		/>
</g>
<circle style="fill: #F0C419;" cx="30" cy="30" r="20"/>
<circle style="fill: #EDE21B;" cx="30" cy="30" r="15"/>
</svg>
