<svg xmlns="http://www.w3.org/2000/svg" viewBox="0 0 392.49 390.69"><defs><style>.cls-1{fill:#fff;}.cls-2{fill:#f3aa9f;}.cls-3{fill:#e1978f;}.cls-4,.cls-6{fill:#426572;}.cls-5{fill:#e1d2d5;}.cls-6{font-size:100.43px;font-family:Dosis-ExtraBold, Dosis;font-weight:700;}</style></defs><title>Asset 480</title><g id="Layer_2" data-name="Layer 2"><g id="Layer_1-2" data-name="Layer 1"><path class="cls-1" d="M383.9,162H199.69V2.19q4-.19,8.16-.19A176.87,176.87,0,0,1,383.9,162Z"/><path class="cls-2" d="M355.38,210a176.83,176.83,0,0,1-95.72,157.18l-.15.07A176.88,176.88,0,1,1,101.72,50.67l.15-.07a175.93,175.93,0,0,1,72.82-17.4V191H354.37A177.9,177.9,0,0,1,355.38,210Z"/><path class="cls-3" d="M357.53,212.16a176,176,0,0,1-17.44,76.66,1,1,0,0,1-.07.15A176.89,176.89,0,0,1,73.47,352.79l1.23.38q6,1.86,12.26,3.29A177,177,0,0,0,303.49,191h52.78A178.15,178.15,0,0,1,357.53,212.16Z"/><path class="cls-4" d="M182.85,390.69a182.87,182.87,0,0,1-84-345.31l.41-.2a180.59,180.59,0,0,1,75.13-20l6.27-.28V185H364.36l.51,5.44c.54,5.77.82,11.62.82,17.4a180.72,180.72,0,0,1-20.18,83.56c-.06.12-.12.26-.2.41a184.39,184.39,0,0,1-83,80.77l-.18.08,0,0A181.06,181.06,0,0,1,182.85,390.69ZM104.33,56.08A170.88,170.88,0,0,0,256.9,361.85l.17-.08,0,0a172.34,172.34,0,0,0,77.5-75.38l.15-.29a168.84,168.84,0,0,0,18.93-78.23c0-3.6-.11-7.23-.34-10.84H168.69V37.58a168.41,168.41,0,0,0-64.07,18.35Z"/><path class="cls-5" d="M382.9,158H309.11c-2.89-46.4-18.43-98.49-36.89-144.29l1.33.51a177.49,177.49,0,0,1,92.51,83.56A175.63,175.63,0,0,1,382.9,158Z"/><path class="cls-4" d="M392.49,172H195.69V.47L201.4.2C204.11.07,207,0,209.85,0a182.87,182.87,0,0,1,182,165.44Zm-184.8-12H379.18A170.89,170.89,0,0,0,209.85,12h-2.16Z"/><text class="cls-6" transform="translate(232.67 133.93)">%</text><path class="cls-1" d="M101.22,81.14a166.34,166.34,0,0,1,34.83-18c3.58-1.34,2-7.14-1.6-5.79A172.89,172.89,0,0,0,98.19,76c-3.18,2.15-.18,7.35,3,5.18Z"/><path class="cls-1" d="M36.28,166.34c2.62-8.63,6.74-16.94,11.05-24.83A180.58,180.58,0,0,1,87.86,91.34c2.93-2.52-1.33-6.75-4.24-4.24-23.3,20.06-44.07,47.84-53.12,77.65-1.12,3.7,4.67,5.29,5.79,1.6Z"/></g></g></svg>