<svg xmlns="http://www.w3.org/2000/svg" viewBox="0 0 419.23 419.23"><defs><style>.cls-1{fill:#fbc907;}.cls-2{fill:#f3a70f;}.cls-3{fill:#426572;}.cls-4,.cls-9{fill:#fff;}.cls-5{fill:#e8e8e8;}.cls-6{fill:#dadada;}.cls-7{opacity:0.1;}.cls-8{fill:#55e0ff;}.cls-9{opacity:0.4;}</style></defs><title>Asset 510</title><g id="Layer_2" data-name="Layer 2"><g id="Layer_1-2" data-name="Layer 1"><circle class="cls-1" cx="210.66" cy="209.62" r="203.61"/><path class="cls-2" d="M27.21,209.62A203.61,203.61,0,0,1,220.72,6.26q-5-.25-10.08-.25C98.19,4.86,6.11,95.09,5,207.54S94.05,412.07,206.5,413.21q2.07,0,4.13,0,5.06,0,10.08-.25A203.61,203.61,0,0,1,27.21,209.62Z"/><path class="cls-3" d="M209.61,419.23C94,419.23,0,325.19,0,209.61S94,0,209.61,0,419.23,94,419.23,209.61,325.19,419.23,209.61,419.23Zm0-407.23C100.65,12,12,100.65,12,209.61s88.65,197.61,197.61,197.61,197.61-88.65,197.61-197.61S318.58,12,209.61,12Z"/><path class="cls-4" d="M111.69,60.1a195,195,0,0,1,41.08-21.2c3.59-1.34,2-7.14-1.6-5.79a201.47,201.47,0,0,0-42.51,21.8c-3.18,2.15-.18,7.35,3,5.18Z"/><path class="cls-4" d="M35.09,160.61c3.09-10.2,8-20,13.05-29.32A212.37,212.37,0,0,1,95.87,72.18c2.93-2.52-1.33-6.75-4.24-4.24A217.08,217.08,0,0,0,43,128.26C37.63,138,32.54,148.34,29.31,159c-1.12,3.7,4.67,5.29,5.79,1.6Z"/><circle class="cls-5" cx="211.45" cy="212.12" r="156.89"/><path class="cls-6" d="M67.05,232.07a156.89,156.89,0,0,1,283.33-92.82A156.91,156.91,0,1,0,85,304.92,156.19,156.19,0,0,1,67.05,232.07Z"/><path class="cls-5" d="M211.32,152.25h0a9.16,9.16,0,0,1,9.16,9.16V210.5a9.16,9.16,0,0,1-9.16,9.16h0a9.16,9.16,0,0,1-9.16-9.16V161.41A9.16,9.16,0,0,1,211.32,152.25Z"/><circle class="cls-5" cx="211.14" cy="221.32" r="15.94"/><path class="cls-3" d="M210.48,92.62c6.29,0,6.29-9.77,0-9.77S204.19,92.62,210.48,92.62Z"/><path class="cls-3" d="M210.48,343.89c6.29,0,6.29-9.77,0-9.77S204.19,343.89,210.48,343.89Z"/><path class="cls-3" d="M339.84,218.25c6.29,0,6.29-9.77,0-9.77S333.55,218.25,339.84,218.25Z"/><path class="cls-3" d="M81.13,218.25c6.29,0,6.29-9.77,0-9.77S74.84,218.25,81.13,218.25Z"/><path class="cls-3" d="M205.56,153.32h0a9.16,9.16,0,0,1,9.16,9.16v49.09a9.16,9.16,0,0,1-9.16,9.16h0a9.16,9.16,0,0,1-9.16-9.16V162.49A9.16,9.16,0,0,1,205.56,153.32Z"/><circle class="cls-3" cx="205.38" cy="221.15" r="15.94"/><path class="cls-3" d="M135.78,272.58l135.16-89.89L290.11,170c5.22-3.46.33-11.94-4.92-8.44L150,251.4l-19.17,12.74C125.64,267.6,130.52,276.08,135.78,272.58Z"/><g class="cls-7"><ellipse class="cls-8" cx="210.2" cy="211.21" rx="156.89" ry="154.23"/></g><path class="cls-9" d="M243.13,60.17,84.37,301.88a162.18,162.18,0,0,1-18.58-47.29L193.5,60.21a153.88,153.88,0,0,1,49.67,0Z"/><path class="cls-9" d="M289.69,72.6,115.93,325.78a155.09,155.09,0,0,1-14.77-15L270,64.76A155.38,155.38,0,0,1,289.69,72.6Z"/><path class="cls-9" d="M362.16,171.75h0L232.51,360.68h0a160.93,160.93,0,0,1-42.54.43L346.63,132.84A151.63,151.63,0,0,1,362.16,171.75Z"/><path class="cls-3" d="M210.12,369.75c-89.82,0-162.89-71.88-162.89-160.23S120.31,49.29,210.12,49.29,373,121.17,373,209.52,299.94,369.75,210.12,369.75Zm0-308.46c-83.2,0-150.89,66.5-150.89,148.23s67.69,148.23,150.89,148.23S361,291.25,361,209.52,293.32,61.29,210.12,61.29Z"/></g></g></svg>